<?xml version="1.0" encoding="UTF-8"?>
<svg version="1.1" xmlns="http://www.w3.org/2000/svg" width="121" height="125">
<path d="M0 0 C0.95310059 0.01047363 1.90620117 0.02094727 2.88818359 0.03173828 C4.43505859 0.04140625 4.43505859 0.04140625 6.01318359 0.05126953 C7.63353516 0.07640625 7.63353516 0.07640625 9.28662109 0.10205078 C10.37458984 0.11107422 11.46255859 0.12009766 12.58349609 0.12939453 C15.27629758 0.1530156 17.96898644 0.18888746 20.66162109 0.22705078 C21.32162109 3.52705078 21.98162109 6.82705078 22.66162109 10.22705078 C23.98162109 10.55705078 25.30162109 10.88705078 26.66162109 11.22705078 C27.48662109 10.40205078 28.31162109 9.57705078 29.16162109 8.72705078 C30.39912109 7.48955078 30.39912109 7.48955078 31.66162109 6.22705078 C36.66515973 6.63293047 39.61409522 10.62719653 42.97412109 13.97705078 C43.6321875 14.59837891 44.29025391 15.21970703 44.96826172 15.85986328 C49.65768184 20.50518227 49.65768184 20.50518227 49.67724609 24.09033203 C48.66162109 26.22705078 48.66162109 26.22705078 47.09912109 27.66455078 C45.32209244 29.26544042 45.32209244 29.26544042 45.47412109 32.41455078 C45.53599609 33.34267578 45.59787109 34.27080078 45.66162109 35.22705078 C46.94037109 35.02080078 48.21912109 34.81455078 49.53662109 34.60205078 C51.71630859 34.25048828 51.71630859 34.25048828 53.66162109 34.22705078 C55.66162109 36.22705078 55.66162109 36.22705078 55.90454102 38.44189453 C55.90043213 39.34037109 55.89632324 40.23884766 55.89208984 41.16455078 C55.89015625 42.14166016 55.88822266 43.11876953 55.88623047 44.12548828 C55.87398438 45.14900391 55.86173828 46.17251953 55.84912109 47.22705078 C55.8481543 48.76232422 55.8481543 48.76232422 55.84716797 50.32861328 C55.80194361 57.94640575 55.80194361 57.94640575 54.66162109 60.22705078 C51.69162109 60.22705078 48.72162109 60.22705078 45.66162109 60.22705078 C44.31648685 64.08644053 44.31648685 64.08644053 45.66162109 67.22705078 C46.32162109 67.22705078 46.98162109 67.22705078 47.66162109 67.22705078 C49.66162109 70.22705078 49.66162109 70.22705078 49.4753418 72.1965332 C47.92914313 76.05483932 44.75142293 78.64891649 41.84912109 81.53955078 C41.21941406 82.19761719 40.58970703 82.85568359 39.94091797 83.53369141 C39.01956055 84.45891602 39.01956055 84.45891602 38.07958984 85.40283203 C37.52037842 85.9691333 36.96116699 86.53543457 36.38500977 87.11889648 C34.66162109 88.22705078 34.66162109 88.22705078 32.60424805 88.03637695 C30.66162109 87.22705078 30.66162109 87.22705078 28.16162109 85.10205078 C25.86930736 82.93847323 25.86930736 82.93847323 23.34912109 83.47705078 C22.79224609 83.72455078 22.23537109 83.97205078 21.66162109 84.22705078 C21.70287109 85.50580078 21.74412109 86.78455078 21.78662109 88.10205078 C21.85693359 90.28173828 21.85693359 90.28173828 21.66162109 92.22705078 C19.13107772 94.75759415 18.22613227 94.48388307 14.72412109 94.49267578 C13.74701172 94.49525391 12.76990234 94.49783203 11.76318359 94.50048828 C10.73966797 94.49275391 9.71615234 94.48501953 8.66162109 94.47705078 C7.63810547 94.48478516 6.61458984 94.49251953 5.56005859 94.50048828 C4.58294922 94.49791016 3.60583984 94.49533203 2.59912109 94.49267578 C1.70064453 94.49041992 0.80216797 94.48816406 -0.12353516 94.48583984 C-2.33837891 94.22705078 -2.33837891 94.22705078 -4.33837891 92.22705078 C-4.60829797 89.53865694 -4.42575248 86.93563142 -4.33837891 84.22705078 C-6.67002924 83.89206778 -6.67002924 83.89206778 -9.33837891 84.22705078 C-9.99837891 84.90767578 -10.65837891 85.58830078 -11.33837891 86.28955078 C-13.33837891 88.22705078 -13.33837891 88.22705078 -15.50244141 88.27392578 C-19.83428953 86.67484135 -22.51592933 83.66757975 -25.71337891 80.41455078 C-26.36693359 79.78484375 -27.02048828 79.15513672 -27.69384766 78.50634766 C-28.30615234 77.89210938 -28.91845703 77.27787109 -29.54931641 76.64501953 C-30.10925293 76.08580811 -30.66918945 75.52659668 -31.24609375 74.95043945 C-32.33837891 73.22705078 -32.33837891 73.22705078 -32.14550781 71.13452148 C-31.33837891 69.22705078 -31.33837891 69.22705078 -29.21337891 67.28955078 C-28.59462891 66.60892578 -27.97587891 65.92830078 -27.33837891 65.22705078 C-27.47863089 62.51999566 -27.47863089 62.51999566 -28.33837891 60.22705078 C-30.35660807 60.32470703 -32.37483724 60.42236328 -34.39306641 60.52001953 C-35.03501953 60.42333984 -35.67697266 60.32666016 -36.33837891 60.22705078 C-39.18637707 55.95505353 -38.66856207 52.24906793 -38.65087891 47.22705078 C-38.66699219 46.31181641 -38.68310547 45.39658203 -38.69970703 44.45361328 C-38.70035156 43.57447266 -38.70099609 42.69533203 -38.70166016 41.78955078 C-38.70464111 40.98646484 -38.70762207 40.18337891 -38.71069336 39.35595703 C-38.33837891 37.22705078 -38.33837891 37.22705078 -37.04614258 35.42236328 C-35.33837891 34.22705078 -35.33837891 34.22705078 -31.65087891 34.53955078 C-30.55775391 34.76642578 -29.46462891 34.99330078 -28.33837891 35.22705078 C-27.39230083 32.47743567 -27.39230083 32.47743567 -27.33837891 29.22705078 C-28.96391174 27.52024131 -30.62953885 25.85044883 -32.33837891 24.22705078 C-32.05750268 20.98295068 -30.78558188 19.29061722 -28.53759766 17.02783203 C-27.97234375 16.45871094 -27.40708984 15.88958984 -26.82470703 15.30322266 C-26.23109375 14.72121094 -25.63748047 14.13919922 -25.02587891 13.53955078 C-24.44386719 12.9459375 -23.86185547 12.35232422 -23.26220703 11.74072266 C-22.69308594 11.17546875 -22.12396484 10.61021484 -21.53759766 10.02783203 C-21.02028076 9.51389893 -20.50296387 8.99996582 -19.9699707 8.47045898 C-18.07442172 7.02589352 -16.69717172 6.5223079 -14.33837891 6.22705078 C-12.08837891 7.53955078 -12.08837891 7.53955078 -10.33837891 9.22705078 C-10.33837891 9.88705078 -10.33837891 10.54705078 -10.33837891 11.22705078 C-8.68837891 10.89705078 -7.03837891 10.56705078 -5.33837891 10.22705078 C-5.15275391 8.30892578 -5.15275391 8.30892578 -4.96337891 6.35205078 C-4.603409 2.63236174 -4.18966216 0.40680579 0 0 Z M-10.33837891 24.22705078 C-10.33837891 24.88705078 -10.33837891 25.54705078 -10.33837891 26.22705078 C-10.91587891 26.43330078 -11.49337891 26.63955078 -12.08837891 26.85205078 C-16.96232853 29.83057555 -18.85083963 34.9373098 -20.33837891 40.22705078 C-21.18484611 48.62282432 -20.93272926 56.00322946 -16.33837891 63.22705078 C-15.94908203 63.85095703 -15.55978516 64.47486328 -15.15869141 65.11767578 C-10.95627188 70.83694496 -4.98742595 74.03650327 1.66162109 76.22705078 C9.93870197 77.41207548 17.58258337 76.89649297 24.66162109 72.22705078 C32.82134298 66.03543083 36.88577146 60.42124105 38.66162109 50.22705078 C39.03389344 40.96160582 35.6599407 32.617108 29.44287109 25.79736328 C22.29422075 19.49526363 14.78220015 17.78376714 5.47021484 17.79345703 C-0.54035966 18.47773782 -5.24406522 21.09208851 -10.33837891 24.22705078 Z " fill="#F97505" transform="translate(49.33837890625,16.77294921875)"/>
<path d="M0 0 C0.95310059 0.01047363 1.90620117 0.02094727 2.88818359 0.03173828 C4.43505859 0.04140625 4.43505859 0.04140625 6.01318359 0.05126953 C7.63353516 0.07640625 7.63353516 0.07640625 9.28662109 0.10205078 C10.37458984 0.11107422 11.46255859 0.12009766 12.58349609 0.12939453 C15.27629758 0.1530156 17.96898644 0.18888746 20.66162109 0.22705078 C21.32162109 3.52705078 21.98162109 6.82705078 22.66162109 10.22705078 C23.98162109 10.55705078 25.30162109 10.88705078 26.66162109 11.22705078 C27.48662109 10.40205078 28.31162109 9.57705078 29.16162109 8.72705078 C29.98662109 7.90205078 30.81162109 7.07705078 31.66162109 6.22705078 C36.66515973 6.63293047 39.61409522 10.62719653 42.97412109 13.97705078 C43.6321875 14.59837891 44.29025391 15.21970703 44.96826172 15.85986328 C49.65768184 20.50518227 49.65768184 20.50518227 49.67724609 24.09033203 C48.66162109 26.22705078 48.66162109 26.22705078 47.09912109 27.66455078 C45.32209244 29.26544042 45.32209244 29.26544042 45.47412109 32.41455078 C45.53599609 33.34267578 45.59787109 34.27080078 45.66162109 35.22705078 C46.94037109 35.02080078 48.21912109 34.81455078 49.53662109 34.60205078 C51.71630859 34.25048828 51.71630859 34.25048828 53.66162109 34.22705078 C55.66162109 36.22705078 55.66162109 36.22705078 55.90454102 38.44189453 C55.90043213 39.34037109 55.89632324 40.23884766 55.89208984 41.16455078 C55.89015625 42.14166016 55.88822266 43.11876953 55.88623047 44.12548828 C55.87398438 45.14900391 55.86173828 46.17251953 55.84912109 47.22705078 C55.8481543 48.76232422 55.8481543 48.76232422 55.84716797 50.32861328 C55.80194361 57.94640575 55.80194361 57.94640575 54.66162109 60.22705078 C51.69162109 60.22705078 48.72162109 60.22705078 45.66162109 60.22705078 C44.31648685 64.08644053 44.31648685 64.08644053 45.66162109 67.22705078 C46.32162109 67.22705078 46.98162109 67.22705078 47.66162109 67.22705078 C49.66162109 70.22705078 49.66162109 70.22705078 49.4753418 72.1965332 C47.92914313 76.05483932 44.75142293 78.64891649 41.84912109 81.53955078 C41.21941406 82.19761719 40.58970703 82.85568359 39.94091797 83.53369141 C39.01956055 84.45891602 39.01956055 84.45891602 38.07958984 85.40283203 C37.52037842 85.9691333 36.96116699 86.53543457 36.38500977 87.11889648 C34.66162109 88.22705078 34.66162109 88.22705078 32.60424805 88.03637695 C30.66162109 87.22705078 30.66162109 87.22705078 28.16162109 85.10205078 C25.86930736 82.93847323 25.86930736 82.93847323 23.34912109 83.47705078 C22.79224609 83.72455078 22.23537109 83.97205078 21.66162109 84.22705078 C21.70287109 85.50580078 21.74412109 86.78455078 21.78662109 88.10205078 C21.85693359 90.28173828 21.85693359 90.28173828 21.66162109 92.22705078 C19.13107772 94.75759415 18.22613227 94.48388307 14.72412109 94.49267578 C13.74701172 94.49525391 12.76990234 94.49783203 11.76318359 94.50048828 C10.73966797 94.49275391 9.71615234 94.48501953 8.66162109 94.47705078 C7.63810547 94.48478516 6.61458984 94.49251953 5.56005859 94.50048828 C4.58294922 94.49791016 3.60583984 94.49533203 2.59912109 94.49267578 C1.70064453 94.49041992 0.80216797 94.48816406 -0.12353516 94.48583984 C-2.33837891 94.22705078 -2.33837891 94.22705078 -4.33837891 92.22705078 C-4.60829797 89.53865694 -4.42575248 86.93563142 -4.33837891 84.22705078 C-6.67002924 83.89206778 -6.67002924 83.89206778 -9.33837891 84.22705078 C-9.99837891 84.90767578 -10.65837891 85.58830078 -11.33837891 86.28955078 C-13.33837891 88.22705078 -13.33837891 88.22705078 -15.50244141 88.27392578 C-19.83428953 86.67484135 -22.51592933 83.66757975 -25.71337891 80.41455078 C-26.36693359 79.78484375 -27.02048828 79.15513672 -27.69384766 78.50634766 C-28.30615234 77.89210938 -28.91845703 77.27787109 -29.54931641 76.64501953 C-30.10925293 76.08580811 -30.66918945 75.52659668 -31.24609375 74.95043945 C-32.33837891 73.22705078 -32.33837891 73.22705078 -32.20019531 71.13842773 C-31.33837891 69.22705078 -31.33837891 69.22705078 -28.33837891 67.22705078 C-28.33837891 67.88705078 -28.33837891 68.54705078 -28.33837891 69.22705078 C-27.67837891 69.55705078 -27.01837891 69.88705078 -26.33837891 70.22705078 C-27.32837891 70.72205078 -27.32837891 70.72205078 -28.33837891 71.22705078 C-26.11909697 74.13507539 -24.40868747 76.1801784 -21.33837891 78.22705078 C-21.00837891 79.21705078 -20.67837891 80.20705078 -20.33837891 81.22705078 C-19.67837891 81.22705078 -19.01837891 81.22705078 -18.33837891 81.22705078 C-18.00837891 82.21705078 -17.67837891 83.20705078 -17.33837891 84.22705078 C-15.68837891 84.55705078 -14.03837891 84.88705078 -12.33837891 85.22705078 C-12.33837891 84.23705078 -12.33837891 83.24705078 -12.33837891 82.22705078 C-7.80463849 81.19665523 -6.6937004 81.04939004 -2.33837891 83.22705078 C-2.33837891 86.19705078 -2.33837891 89.16705078 -2.33837891 92.22705078 C4.92162109 92.22705078 12.18162109 92.22705078 19.66162109 92.22705078 C19.66162109 89.58705078 19.66162109 86.94705078 19.66162109 84.22705078 C20.84912109 81.72705078 20.84912109 81.72705078 22.66162109 80.22705078 C25.34912109 79.97705078 25.34912109 79.97705078 27.66162109 80.22705078 C27.33162109 78.90705078 27.00162109 77.58705078 26.66162109 76.22705078 C23.69162109 76.22705078 20.72162109 76.22705078 17.66162109 76.22705078 C17.66162109 76.88705078 17.66162109 77.54705078 17.66162109 78.22705078 C13.4776546 80.2914561 10.45526238 80.31731758 5.84912109 79.85205078 C4.68767578 79.74119141 3.52623047 79.63033203 2.32958984 79.51611328 C1.44916016 79.42072266 0.56873047 79.32533203 -0.33837891 79.22705078 C-0.33837891 78.23705078 -0.33837891 77.24705078 -0.33837891 76.22705078 C-1.48306641 76.04142578 -1.48306641 76.04142578 -2.65087891 75.85205078 C-5.33837891 75.22705078 -5.33837891 75.22705078 -8.33837891 73.22705078 C-8.00837891 72.56705078 -7.67837891 71.90705078 -7.33837891 71.22705078 C-6.85111328 71.51580078 -6.36384766 71.80455078 -5.86181641 72.10205078 C1.75977096 76.09299108 9.92836455 76.67320057 18.27880859 74.56689453 C25.14247334 71.8238036 31.03727383 67.25916568 34.53662109 60.72705078 C35.09349609 58.99455078 35.09349609 58.99455078 35.66162109 57.22705078 C36.07412109 56.13392578 36.48662109 55.04080078 36.91162109 53.91455078 C38.58343269 45.69481045 36.7565825 38.44528783 32.66162109 31.22705078 C28.45228767 24.97318399 22.71991412 21.57981512 15.66162109 19.22705078 C7.29885315 18.46581053 0.84309742 18.78776026 -6.44775391 23.13330078 C-8.33837891 24.22705078 -8.33837891 24.22705078 -10.33837891 24.22705078 C-10.33837891 24.88705078 -10.33837891 25.54705078 -10.33837891 26.22705078 C-12.31837891 27.21705078 -12.31837891 27.21705078 -14.33837891 28.22705078 C-14.08837891 25.85205078 -14.08837891 25.85205078 -13.33837891 23.22705078 C-10.85593673 21.5150217 -8.26834249 20.85490012 -5.33837891 20.22705078 C-5.33837891 19.56705078 -5.33837891 18.90705078 -5.33837891 18.22705078 C-0.49415044 15.67956832 4.15322486 15.9988865 9.47412109 16.10205078 C10.35777344 16.11107422 11.24142578 16.12009766 12.15185547 16.12939453 C14.32189469 16.15285441 16.49179357 16.18872213 18.66162109 16.22705078 C18.16662109 14.24705078 18.16662109 14.24705078 17.66162109 12.22705078 C17.99162109 8.92705078 18.32162109 5.62705078 18.66162109 2.22705078 C11.73162109 2.22705078 4.80162109 2.22705078 -2.33837891 2.22705078 C-2.33837891 5.19705078 -2.33837891 8.16705078 -2.33837891 11.22705078 C-4.64837891 11.55705078 -6.95837891 11.88705078 -9.33837891 12.22705078 C-8.69900391 12.06205078 -8.05962891 11.89705078 -7.40087891 11.72705078 C-5.17752669 10.4562525 -5.17752669 10.4562525 -4.92041016 8.38330078 C-4.78366286 6.9590648 -4.68012158 5.5312052 -4.61181641 4.10205078 C-4.16883597 1.06447063 -2.96559358 0.28795177 0 0 Z " fill="#F67C14" transform="translate(49.33837890625,16.77294921875)"/>
<path d="M0 0 C6.0741299 5.07673583 9.90916282 10.5042578 11.50390625 18.30078125 C12.32282446 27.56085638 10.40129726 35.00663974 4.50390625 42.30078125 C-2.94725224 49.0551711 -9.12291217 51.93134434 -19.26171875 51.7421875 C-26.3571926 50.77384385 -33.02391581 47.28534574 -37.99609375 42.11328125 C-42.2856298 36.3769786 -45.31460684 28.63862139 -44.8828125 21.40234375 C-43.34274501 13.03308809 -40.25878151 5.63309084 -33.12890625 0.64453125 C-22.73127322 -5.89641297 -10.58742926 -7.20740489 0 0 Z M-23.22265625 7.2890625 C-25.49609375 9.30078125 -25.49609375 9.30078125 -28.01953125 10.84375 C-31.00661918 12.82728946 -32.63223376 14.20280081 -34.49609375 17.30078125 C-35.62274649 23.95801896 -34.89358723 30.5875581 -34.49609375 37.30078125 C-22.61609375 37.30078125 -10.73609375 37.30078125 1.50390625 37.30078125 C1.68953125 32.53640625 1.68953125 32.53640625 1.87890625 27.67578125 C1.93353027 26.68626465 1.9881543 25.69674805 2.04443359 24.67724609 C2.15522686 19.73845299 2.15522686 19.73845299 0.21191406 15.31347656 C-1.53859277 13.41871687 -1.53859277 13.41871687 -4.49609375 11.30078125 C-5.15609375 11.30078125 -5.81609375 11.30078125 -6.49609375 11.30078125 C-6.49609375 10.64078125 -6.49609375 9.98078125 -6.49609375 9.30078125 C-8.17289624 7.48825425 -8.17289624 7.48825425 -10.30859375 5.67578125 C-11.01628906 5.04414062 -11.72398438 4.4125 -12.453125 3.76171875 C-17.22782175 0.34730845 -19.72135101 3.97648933 -23.22265625 7.2890625 Z " fill="#F17B18" transform="translate(74.49609375,40.69921875)"/>
<path d="M0 0 C3.87541527 1.58098679 6.43308448 4.1861694 9.40234375 7.08203125 C9.99144531 7.64148437 10.58054687 8.2009375 11.1875 8.77734375 C16.64829551 13.97451465 16.64829551 13.97451465 16.78515625 17.609375 C16.78782664 19.07942696 16.78496709 20.54949663 16.77734375 22.01953125 C16.78314453 23.13231445 16.78314453 23.13231445 16.7890625 24.26757812 C16.77897876 29.82876123 16.77897876 29.82876123 15.65234375 32.08203125 C12.68234375 32.08203125 9.71234375 32.08203125 6.65234375 32.08203125 C6.65234375 31.42203125 6.65234375 30.76203125 6.65234375 30.08203125 C5.66234375 30.74203125 4.67234375 31.40203125 3.65234375 32.08203125 C0.9295047 32.39457503 -1.59208111 32.21536553 -4.34765625 32.08203125 C-5.34765625 31.08203125 -5.34765625 31.08203125 -5.4453125 29.015625 C-5.39648438 25.54882812 -5.39648438 25.54882812 -5.34765625 22.08203125 C-2.04765625 22.08203125 1.25234375 22.08203125 4.65234375 22.08203125 C4.98234375 21.42203125 5.31234375 20.76203125 5.65234375 20.08203125 C4.41484375 20.26765625 3.17734375 20.45328125 1.90234375 20.64453125 C-1.15839169 21.10364157 -3.37976425 20.98443084 -6.34765625 20.08203125 C-6.33605469 20.86449219 -6.32445312 21.64695312 -6.3125 22.453125 C-6.30347656 23.46503906 -6.29445313 24.47695312 -6.28515625 25.51953125 C-6.27355469 26.52886719 -6.26195312 27.53820312 -6.25 28.578125 C-6.34765625 31.08203125 -6.34765625 31.08203125 -7.34765625 32.08203125 C-8.86693663 32.15383089 -10.38933107 32.16595132 -11.91015625 32.14453125 C-12.73644531 32.13550781 -13.56273437 32.12648437 -14.4140625 32.1171875 C-15.05214844 32.10558594 -15.69023438 32.09398437 -16.34765625 32.08203125 C-16.46409781 28.99901709 -16.53498057 25.91657002 -16.59765625 22.83203125 C-16.63117187 21.95933594 -16.6646875 21.08664063 -16.69921875 20.1875 C-16.79820556 13.70386377 -16.79820556 13.70386377 -14.45703125 10.47265625 C-12.34765625 9.08203125 -12.34765625 9.08203125 -10.34765625 9.08203125 C-10.34765625 8.42203125 -10.34765625 7.76203125 -10.34765625 7.08203125 C-8.7734375 5.3203125 -8.7734375 5.3203125 -6.66015625 3.39453125 C-5.97566406 2.75128906 -5.29117188 2.10804687 -4.5859375 1.4453125 C-2.34765625 0.08203125 -2.34765625 0.08203125 0 0 Z " fill="#F87609" transform="translate(58.34765625,44.91796875)"/>
<path d="M0 0 C0.495 1.485 0.495 1.485 1 3 C2.27875 2.79375 3.5575 2.5875 4.875 2.375 C7.0546875 2.0234375 7.0546875 2.0234375 9 2 C11 4 11 4 11.24291992 6.21484375 C11.23881104 7.11332031 11.23470215 8.01179688 11.23046875 8.9375 C11.22853516 9.91460937 11.22660156 10.89171875 11.22460938 11.8984375 C11.21236328 12.92195313 11.20011719 13.94546875 11.1875 15 C11.1865332 16.53527344 11.1865332 16.53527344 11.18554688 18.1015625 C11.14032251 25.71935497 11.14032251 25.71935497 10 28 C7.03 28 4.06 28 1 28 C-0.34513424 31.85938975 -0.34513424 31.85938975 1 35 C1.66 35 2.32 35 3 35 C5 38 5 38 4.8137207 39.96948242 C3.26752204 43.82778853 0.08980183 46.42186571 -2.8125 49.3125 C-3.44220703 49.97056641 -4.07191406 50.62863281 -4.72070312 51.30664062 C-5.33494141 51.92345703 -5.94917969 52.54027344 -6.58203125 53.17578125 C-7.14124268 53.74208252 -7.7004541 54.30838379 -8.27661133 54.8918457 C-10 56 -10 56 -12.05737305 55.80932617 C-14 55 -14 55 -16.5 52.875 C-18.79231373 50.71142245 -18.79231373 50.71142245 -21.3125 51.25 C-21.869375 51.4975 -22.42625 51.745 -23 52 C-22.95875 53.27875 -22.9175 54.5575 -22.875 55.875 C-22.8046875 58.0546875 -22.8046875 58.0546875 -23 60 C-25.53054337 62.53054337 -26.43548882 62.25683229 -29.9375 62.265625 C-30.91460937 62.26820312 -31.89171875 62.27078125 -32.8984375 62.2734375 C-33.92195313 62.26570313 -34.94546875 62.25796875 -36 62.25 C-37.02351563 62.25773437 -38.04703125 62.26546875 -39.1015625 62.2734375 C-40.07867187 62.27085938 -41.05578125 62.26828125 -42.0625 62.265625 C-42.96097656 62.26336914 -43.85945313 62.26111328 -44.78515625 62.25878906 C-47 62 -47 62 -49 60 C-49.26991906 57.31160615 -49.08737357 54.70858064 -49 52 C-51.33165034 51.66501699 -51.33165034 51.66501699 -54 52 C-54.99 53.0209375 -54.99 53.0209375 -56 54.0625 C-58 56 -58 56 -60.1640625 56.046875 C-64.49591063 54.44779057 -67.17755042 51.44052897 -70.375 48.1875 C-71.02855469 47.55779297 -71.68210937 46.92808594 -72.35546875 46.27929688 C-72.96777344 45.66505859 -73.58007812 45.05082031 -74.2109375 44.41796875 C-74.77087402 43.85875732 -75.33081055 43.2995459 -75.90771484 42.72338867 C-77 41 -77 41 -76.86181641 38.91137695 C-76 37 -76 37 -73 35 C-73 35.66 -73 36.32 -73 37 C-72.34 37.33 -71.68 37.66 -71 38 C-71.99 38.495 -71.99 38.495 -73 39 C-70.78071806 41.90802461 -69.07030857 43.95312762 -66 46 C-65.67 46.99 -65.34 47.98 -65 49 C-64.34 49 -63.68 49 -63 49 C-62.67 49.99 -62.34 50.98 -62 52 C-60.35 52.33 -58.7 52.66 -57 53 C-57 52.01 -57 51.02 -57 50 C-52.46625958 48.96960445 -51.35532149 48.82233925 -47 51 C-47 53.97 -47 56.94 -47 60 C-39.74 60 -32.48 60 -25 60 C-25 57.36 -25 54.72 -25 52 C-23.8125 49.5 -23.8125 49.5 -22 48 C-19.3125 47.75 -19.3125 47.75 -17 48 C-17.495 46.02 -17.495 46.02 -18 44 C-20.97 44 -23.94 44 -27 44 C-27 44.66 -27 45.32 -27 46 C-31.1839665 48.06440531 -34.20635871 48.0902668 -38.8125 47.625 C-39.97394531 47.51414063 -41.13539062 47.40328125 -42.33203125 47.2890625 C-43.21246094 47.19367188 -44.09289063 47.09828125 -45 47 C-45 46.01 -45 45.02 -45 44 C-46.1446875 43.814375 -46.1446875 43.814375 -47.3125 43.625 C-50 43 -50 43 -53 41 C-52.67 40.34 -52.34 39.68 -52 39 C-51.26910156 39.433125 -51.26910156 39.433125 -50.5234375 39.875 C-42.90185013 43.86594029 -34.73325655 44.44614979 -26.3828125 42.33984375 C-19.51914776 39.59675282 -13.62434727 35.0321149 -10.125 28.5 C-9.00397428 25.01236442 -7.93935251 21.54063637 -7 18 C-6.67 18 -6.34 18 -6 18 C-5.6309795 28.55808656 -5.6309795 28.55808656 -8 33 C-7.01 32.67 -6.02 32.34 -5 32 C-4.67 32.66 -4.34 33.32 -4 34 C-3.34 31.69 -2.68 29.38 -2 27 C1.63 27 5.26 27 9 27 C9 19.41 9 11.82 9 4 C6.03 4 3.06 4 0 4 C0 2.68 0 1.36 0 0 Z " fill="#F47911" transform="translate(94,49)"/>
<path d="M0 0 C3.48133831 1.39253532 4.47886033 2.63176216 6 6 C6.66 6.33 7.32 6.66 8 7 C8.12375 7.9590625 8.12375 7.9590625 8.25 8.9375 C8.4975 9.618125 8.745 10.29875 9 11 C10.98636298 11.70626239 12.98848259 12.36893571 15 13 C16.35308313 14.31328657 17.68870078 15.64499081 19 17 C21.1381966 17.7872678 21.1381966 17.7872678 23 18 C23 18.99 23 19.98 23 21 C25.06242617 21.02717692 27.12495703 21.0464758 29.1875 21.0625 C30.91033203 21.07990234 30.91033203 21.07990234 32.66796875 21.09765625 C35.59300586 21.01192832 38.16316291 20.67849023 41 20 C41 19.34 41 18.68 41 18 C44.3 17.67 47.6 17.34 51 17 C51 18.65 51 20.3 51 22 C49.02 22.66 47.04 23.32 45 24 C44.34 27.3 43.68 30.6 43 34 C35.74 34 28.48 34 21 34 C21 31.03 21 28.06 21 25 C17.7 24.67 14.4 24.34 11 24 C11 24.99 11 25.98 11 27 C9.35 27 7.7 27 6 27 C5.67 25.68 5.34 24.36 5 23 C4.01 23.33 3.02 23.66 2 24 C1.896875 23.38125 1.79375 22.7625 1.6875 22.125 C1.12474627 19.63473516 1.12474627 19.63473516 -2 18 C-2 17.34 -2 16.68 -2 16 C-2.99 15.67 -3.98 15.34 -5 15 C-6 12 -6 12 -5 9 C-4.34 8.67 -3.68 8.34 -3 8 C-2.28293018 6.01751285 -1.61709587 4.01584651 -1 2 C-0.67 1.34 -0.34 0.68 0 0 Z " fill="#FA7403" transform="translate(26,75)"/>
<path d="M0 0 C0.45375 0.66 0.9075 1.32 1.375 2 C1.91125 2.66 2.4475 3.32 3 4 C3.66 4 4.32 4 5 4 C5 4.66 5 5.32 5 6 C4.34 6 3.68 6 3 6 C3 6.66 3 7.32 3 8 C2.360625 8.103125 1.72125 8.20625 1.0625 8.3125 C0.381875 8.539375 -0.29875 8.76625 -1 9 C-1.33 9.99 -1.66 10.98 -2 12 C-2.66 12 -3.32 12 -4 12 C-4 12.66 -4 13.32 -4 14 C-4.66 14 -5.32 14 -6 14 C-6 21.59 -6 29.18 -6 37 C6.54 37 19.08 37 32 37 C31.67 38.32 31.34 39.64 31 41 C30.34 41 29.68 41 29 41 C28.835 41.928125 28.67 42.85625 28.5 43.8125 C27 47 27 47 23.625 48.875 C13.99926034 51.74187192 6.34513532 50.36112041 -2.40625 45.703125 C-7.29032191 42.49611393 -9.60100986 39.71254306 -11 34 C-11.125 31.125 -11.125 31.125 -11 29 C-11.66 29 -12.32 29 -13 29 C-13.49506774 20.99640486 -13.19482248 14.04281232 -9 7 C-8.01 6.34 -7.02 5.68 -6 5 C-3.96864317 3.36898357 -1.99068127 1.68101974 0 0 Z " fill="#F2770C" transform="translate(45,42)"/>
<path d="M0 0 C4.29 0.33 8.58 0.66 13 1 C13 8.59 13 16.18 13 24 C9.37 24 5.74 24 2 24 C1.87625 25.134375 1.7525 26.26875 1.625 27.4375 C1.41875 28.613125 1.2125 29.78875 1 31 C0.34 31.33 -0.32 31.66 -1 32 C-1.33 31.34 -1.66 30.68 -2 30 C-2.99 30.33 -3.98 30.66 -5 31 C-4.125 26.125 -4.125 26.125 -3 25 C-2.84365258 23.63377264 -2.74938742 22.26028816 -2.68359375 20.88671875 C-2.64169922 20.05076172 -2.59980469 19.21480469 -2.55664062 18.35351562 C-2.51732422 17.47373047 -2.47800781 16.59394531 -2.4375 15.6875 C-2.39431641 14.81931641 -2.35113281 13.95113281 -2.30664062 13.05664062 C-2.12803651 9.36265396 -2 5.69992943 -2 2 C-1.34 2 -0.68 2 0 2 C0 1.34 0 0.68 0 0 Z " fill="#FA7404" transform="translate(90,52)"/>
<path d="M0 0 C6.93 0 13.86 0 21 0 C21 4.62 21 9.24 21 14 C17.39621391 14.24822759 13.79338203 14.47433336 10.1875 14.6875 C8.65125977 14.79674805 8.65125977 14.79674805 7.08398438 14.90820312 C6.10107422 14.96298828 5.11816406 15.01777344 4.10546875 15.07421875 C3.19949951 15.13182373 2.29353027 15.18942871 1.36010742 15.2487793 C-1 15 -1 15 -2.8190918 13.49536133 C-3.2087915 13.00189209 -3.59849121 12.50842285 -4 12 C-3.34 11.01 -2.68 10.02 -2 9 C-1.34 9 -0.68 9 0 9 C0 6.03 0 3.06 0 0 Z " fill="#FB7402" transform="translate(47,19)"/>
<path d="M0 0 C7.68091053 2.50805242 11.88198556 7.32877497 15.875 14.25 C18.63324106 20.99236703 19.20830817 28.30260733 16.75 35.25 C14.24673128 41.05196861 11.15181702 45.27924326 6 49 C5.67 48.34 5.34 47.68 5 47 C5.495 46.01 5.495 46.01 6 45 C6.66 45 7.32 45 8 45 C8.33 43.68 8.66 42.36 9 41 C-3.54 41 -16.08 41 -29 41 C-29 33.41 -29 25.82 -29 18 C-28.34 18 -27.68 18 -27 18 C-27 17.34 -27 16.68 -27 16 C-26.34 16 -25.68 16 -25 16 C-24.67 14.68 -24.34 13.36 -24 12 C-22.68 12 -21.36 12 -20 12 C-20 11.34 -20 10.68 -20 10 C-19.01 10.33 -18.02 10.66 -17 11 C-17.71027344 11.41765625 -18.42054687 11.8353125 -19.15234375 12.265625 C-23.20112378 15.15030979 -26.39094762 17.45508687 -27.57177734 22.38916016 C-28.27261781 28.31207699 -28.07958321 33.99146748 -28 40 C-16.12 40 -4.24 40 8 40 C7.938125 36.82375 7.87625 33.6475 7.8125 30.375 C7.80581299 29.3854834 7.79912598 28.3959668 7.79223633 27.37646484 C7.57445221 21.20237873 6.47644682 18.2979601 2 14 C3.98 14.33 5.96 14.66 8 15 C8 15.99 8 16.98 8 18 C8.66 18 9.32 18 10 18 C10 25.92 10 33.84 10 42 C10.66 42 11.32 42 12 42 C12 40.35 12 38.7 12 37 C12.66 37 13.32 37 14 37 C14 35.02 14 33.04 14 31 C14.66 31 15.32 31 16 31 C15.67 25.72 15.34 20.44 15 15 C14.01 15.33 13.02 15.66 12 16 C12 14.35 12 12.7 12 11 C11.01 11 10.02 11 9 11 C8.814375 10.2575 8.62875 9.515 8.4375 8.75 C6.39087334 4.83471421 3.9124945 3.95624725 0 2 C0 1.34 0 0.68 0 0 Z " fill="#E79A55" transform="translate(68,38)"/>
<path d="M0 0 C2 2 2 2 2 6 C2.99 6 3.98 6 5 6 C5.33 7.32 5.66 8.64 6 10 C6.66 10 7.32 10 8 10 C8.85298376 13.67387495 9.10789471 17.0447393 9.0625 20.8125 C9.05347656 21.78832031 9.04445313 22.76414062 9.03515625 23.76953125 C9.02355469 24.50558594 9.01195313 25.24164063 9 26 C8.34 26 7.68 26 7 26 C7.04125 26.886875 7.0825 27.77375 7.125 28.6875 C7.00102754 31.97277013 6.38612096 34.05449295 5 37 C4.34 37 3.68 37 3 37 C3 29.08 3 21.16 3 13 C2.34 13 1.68 13 1 13 C1 12.01 1 11.02 1 10 C-1.97 9.505 -1.97 9.505 -5 9 C-5 8.01 -5 7.02 -5 6 C-5.66 6 -6.32 6 -7 6 C-7.66 4.35 -8.32 2.7 -9 1 C-5.92784561 0.08973203 -3.20319784 -0.25288404 0 0 Z " fill="#F87405" transform="translate(75,43)"/>
<path d="M0 0 C0.33 0.66 0.66 1.32 1 2 C0.67 2.66 0.34 3.32 0 4 C-0.66 4 -1.32 4 -2 4 C-2.33 5.32 -2.66 6.64 -3 8 C-3.763125 8.12375 -4.52625 8.2475 -5.3125 8.375 C-8.20267136 8.88102792 -8.20267136 8.88102792 -11 11 C-14.1796875 11.30078125 -14.1796875 11.30078125 -17.875 11.3125 C-19.08929688 11.32925781 -20.30359375 11.34601563 -21.5546875 11.36328125 C-25.18739025 10.98024116 -27.06776093 10.11277302 -30 8 C-29.42655063 5.13275314 -29.1385485 4.1385485 -27 2 C-25.0480957 1.69702148 -25.0480957 1.69702148 -22.67578125 1.62109375 C-21.37930664 1.56985352 -21.37930664 1.56985352 -20.05664062 1.51757812 C-19.15107422 1.49115234 -18.24550781 1.46472656 -17.3125 1.4375 C-11.46774241 1.23771556 -5.77452312 0.95583762 0 0 Z " fill="#F97404" transform="translate(76,79)"/>
<path d="M0 0 C0.45375 0.66 0.9075 1.32 1.375 2 C1.91125 2.66 2.4475 3.32 3 4 C3.66 4 4.32 4 5 4 C5 4.66 5 5.32 5 6 C4.34 6 3.68 6 3 6 C3 6.66 3 7.32 3 8 C2.360625 8.103125 1.72125 8.20625 1.0625 8.3125 C0.381875 8.539375 -0.29875 8.76625 -1 9 C-1.33 9.99 -1.66 10.98 -2 12 C-2.66 12 -3.32 12 -4 12 C-4 12.66 -4 13.32 -4 14 C-4.66 14 -5.32 14 -6 14 C-6.33 20.6 -6.66 27.2 -7 34 C-8.32 34 -9.64 34 -11 34 C-11 32.35 -11 30.7 -11 29 C-11.66 29 -12.32 29 -13 29 C-13.49506774 20.99640486 -13.19482248 14.04281232 -9 7 C-8.01 6.34 -7.02 5.68 -6 5 C-3.96864317 3.36898357 -1.99068127 1.68101974 0 0 Z " fill="#F97404" transform="translate(45,42)"/>
<path d="M0 0 C0.33 0.66 0.66 1.32 1 2 C1.66 2.33 2.32 2.66 3 3 C2.01 3.495 2.01 3.495 1 4 C3.21928194 6.90802461 4.92969143 8.95312762 8 11 C8.33 11.99 8.66 12.98 9 14 C9.66 14 10.32 14 11 14 C11.33 14.99 11.66 15.98 12 17 C13.65 17.33 15.3 17.66 17 18 C17 17.01 17 16.02 17 15 C21.53374042 13.96960445 22.64467851 13.82233925 27 16 C27 18.97 27 21.94 27 25 C34.26 25 41.52 25 49 25 C49 22.36 49 19.72 49 17 C49.33 16.34 49.66 15.68 50 15 C52.32156597 14.59270772 54.6568787 14.25561323 57 14 C56.67 14.66 56.34 15.32 56 16 C53.4375 16.625 53.4375 16.625 51 17 C51.04125 18.27875 51.0825 19.5575 51.125 20.875 C51.1953125 23.0546875 51.1953125 23.0546875 51 25 C48.46945663 27.53054337 47.56451118 27.25683229 44.0625 27.265625 C43.08539063 27.26820312 42.10828125 27.27078125 41.1015625 27.2734375 C40.07804687 27.26570313 39.05453125 27.25796875 38 27.25 C36.97648437 27.25773437 35.95296875 27.26546875 34.8984375 27.2734375 C33.92132813 27.27085938 32.94421875 27.26828125 31.9375 27.265625 C31.03902344 27.26336914 30.14054687 27.26111328 29.21484375 27.25878906 C27 27 27 27 25 25 C24.73008094 22.31160615 24.91262643 19.70858064 25 17 C22.66834966 16.66501699 22.66834966 16.66501699 20 17 C19.01 18.0209375 19.01 18.0209375 18 19.0625 C16 21 16 21 13.8359375 21.046875 C9.50408937 19.44779057 6.82244958 16.44052897 3.625 13.1875 C2.97144531 12.55779297 2.31789063 11.92808594 1.64453125 11.27929688 C1.03222656 10.66505859 0.41992188 10.05082031 -0.2109375 9.41796875 C-0.77087402 8.85875732 -1.33081055 8.2995459 -1.90771484 7.72338867 C-3 6 -3 6 -2.79931641 3.91137695 C-2 2 -2 2 0 0 Z " fill="#E48E45" transform="translate(20,84)"/>
<path d="M0 0 C1.98046875 0.99609375 1.98046875 0.99609375 4 3 C4.32416843 5.83424328 4.42455987 8.24606204 4.3125 11.0625 C4.30283203 11.79533203 4.29316406 12.52816406 4.28320312 13.28320312 C4.16962788 18.66074425 4.16962788 18.66074425 3 21 C0.03 21 -2.94 21 -6 21 C-6 20.34 -6 19.68 -6 19 C-6.99 19.66 -7.98 20.32 -9 21 C-11.72283905 21.31254378 -14.24442486 21.13333428 -17 21 C-18 20 -18 20 -18.09765625 17.93359375 C-18.08605469 17.10988281 -18.07445312 16.28617188 -18.0625 15.4375 C-18.05347656 14.61121094 -18.04445312 13.78492187 -18.03515625 12.93359375 C-18.02355469 12.29550781 -18.01195312 11.65742187 -18 11 C-17.30132812 11.02320312 -16.60265625 11.04640625 -15.8828125 11.0703125 C-14.51769531 11.09738281 -14.51769531 11.09738281 -13.125 11.125 C-12.22007813 11.14820312 -11.31515625 11.17140625 -10.3828125 11.1953125 C-7.81193006 11.24324836 -7.81193006 11.24324836 -6 9 C-5.67 12.3 -5.34 15.6 -5 19 C-2.69 19 -0.38 19 2 19 C1.85870713 16.58299013 1.71213513 14.16649571 1.5625 11.75 C1.52318359 11.06808594 1.48386719 10.38617188 1.44335938 9.68359375 C1.23333528 6.35551959 0.98065998 3.19744598 0 0 Z " fill="#DD7B26" transform="translate(71,56)"/>
<path d="M0 0 C1.46469727 0.00966797 1.46469727 0.00966797 2.95898438 0.01953125 C3.96638672 0.03628906 4.97378906 0.05304687 6.01171875 0.0703125 C7.03845703 0.07933594 8.06519531 0.08835938 9.12304688 0.09765625 C11.64867774 0.12115049 14.17382685 0.15400119 16.69921875 0.1953125 C16.69921875 1.1853125 16.69921875 2.1753125 16.69921875 3.1953125 C17.25609375 3.2571875 17.81296875 3.3190625 18.38671875 3.3828125 C20.69921875 4.1953125 20.69921875 4.1953125 23.13671875 6.6953125 C25.82045197 9.31358881 27.04722265 9.88228426 30.69921875 10.1953125 C30.85390625 11.401875 30.85390625 11.401875 31.01171875 12.6328125 C31.5653799 15.5017839 32.26407309 17.85502218 33.26171875 20.5703125 C34.79925199 24.96646338 34.95191307 28.56258338 34.69921875 33.1953125 C33.02715616 30.16866756 32.23631717 27.37792459 31.51171875 24.0078125 C29.64250116 17.04241959 26.32887568 11.71557263 20.34765625 7.5625 C12.54873034 3.1168582 5.65546839 2.29873373 -3.30078125 3.1953125 C-6.23183093 4.2604716 -8.73649749 5.50799105 -11.41015625 7.1015625 C-13.30078125 8.1953125 -13.30078125 8.1953125 -15.30078125 8.1953125 C-15.30078125 8.8553125 -15.30078125 9.5153125 -15.30078125 10.1953125 C-17.28078125 11.1853125 -17.28078125 11.1853125 -19.30078125 12.1953125 C-19.05078125 9.8203125 -19.05078125 9.8203125 -18.30078125 7.1953125 C-15.81833908 5.48328342 -13.23074484 4.82316184 -10.30078125 4.1953125 C-10.30078125 3.5353125 -10.30078125 2.8753125 -10.30078125 2.1953125 C-6.70642131 0.5581651 -3.94101657 -0.04609376 0 0 Z " fill="#E8974C" transform="translate(54.30078125,32.8046875)"/>
<path d="M0 0 C1.093125 0.226875 2.18625 0.45375 3.3125 0.6875 C2.9825 1.3475 2.6525 2.0075 2.3125 2.6875 C0.3325 2.6875 -1.6475 2.6875 -3.6875 2.6875 C-3.6875 9.2875 -3.6875 15.8875 -3.6875 22.6875 C-1.3775 22.6875 0.9325 22.6875 3.3125 22.6875 C3.3125 23.6775 3.3125 24.6675 3.3125 25.6875 C2.03375 25.749375 0.755 25.81125 -0.5625 25.875 C-1.64144531 25.92720703 -1.64144531 25.92720703 -2.7421875 25.98046875 C-3.38414063 25.88378906 -4.02609375 25.78710938 -4.6875 25.6875 C-7.53549817 21.41550275 -7.01768316 17.70951715 -7 12.6875 C-7.01611328 11.77226563 -7.03222656 10.85703125 -7.04882812 9.9140625 C-7.04947266 9.03492188 -7.05011719 8.15578125 -7.05078125 7.25 C-7.05376221 6.44691406 -7.05674316 5.64382812 -7.05981445 4.81640625 C-6.6875 2.6875 -6.6875 2.6875 -5.39526367 0.8828125 C-3.6875 -0.3125 -3.6875 -0.3125 0 0 Z " fill="#EA8434" transform="translate(17.6875,51.3125)"/>
<path d="M0 0 C0.33 0 0.66 0 1 0 C1 6.93 1 13.86 1 21 C13.21 21 25.42 21 38 21 C38 21.33 38 21.66 38 22 C22.16 22.495 22.16 22.495 6 23 C5.67 24.32 5.34 25.64 5 27 C5.66 27.99 6.32 28.98 7 30 C3.07328769 28.6910959 0.56073969 27.2923796 -2 24 C-2.75 20.75 -2.75 20.75 -3 18 C-2.01 18 -1.02 18 0 18 C0 12.06 0 6.12 0 0 Z " fill="#E87B1C" transform="translate(38,58)"/>
<path d="M0 0 C0.66 0 1.32 0 2 0 C1.84144531 0.52207031 1.68289062 1.04414062 1.51953125 1.58203125 C-0.36440235 10.35011319 0.1280738 19.37097087 5 27 C7.10372184 29.90753197 9.46146329 32.46146329 12 35 C10.02 34.67 8.04 34.34 6 34 C5.67 32.35 5.34 30.7 5 29 C4.01 28.67 3.02 28.34 2 28 C1.66666667 26.66666667 1.33333333 25.33333333 1 24 C0.01 23.67 -0.98 23.34 -2 23 C-2 22.34 -2 21.68 -2 21 C-2.66 20.67 -3.32 20.34 -4 20 C-3.34 20 -2.68 20 -2 20 C-2.08378906 19.21753906 -2.16757812 18.43507813 -2.25390625 17.62890625 C-2.35574219 16.61699219 -2.45757813 15.60507813 -2.5625 14.5625 C-2.66691406 13.55316406 -2.77132813 12.54382813 -2.87890625 11.50390625 C-2.91886719 10.67761719 -2.95882813 9.85132813 -3 9 C-2.67 8.67 -2.34 8.34 -2 8 C-1.835 6.845 -1.67 5.69 -1.5 4.5 C-1 1 -1 1 0 0 Z " fill="#E87916" transform="translate(29,53)"/>
<path d="M0 0 C0.33 0.99 0.66 1.98 1 3 C2.27875 2.79375 3.5575 2.5875 4.875 2.375 C7.0546875 2.0234375 7.0546875 2.0234375 9 2 C11 4 11 4 11.24291992 6.21484375 C11.23675659 7.56255859 11.23675659 7.56255859 11.23046875 8.9375 C11.22853516 9.91460937 11.22660156 10.89171875 11.22460938 11.8984375 C11.21236328 12.92195313 11.20011719 13.94546875 11.1875 15 C11.18685547 16.02351563 11.18621094 17.04703125 11.18554688 18.1015625 C11.14032251 25.71935497 11.14032251 25.71935497 10 28 C7.03 28 4.06 28 1 28 C-0.34513424 31.85938975 -0.34513424 31.85938975 1 35 C0.01 34.67 -0.98 34.34 -2 34 C-2 31.69 -2 29.38 -2 27 C1.63 27 5.26 27 9 27 C9 19.41 9 11.82 9 4 C6.03 4 3.06 4 0 4 C0 2.68 0 1.36 0 0 Z " fill="#E4934C" transform="translate(94,49)"/>
<path d="M0 0 C0.83917969 0.433125 0.83917969 0.433125 1.6953125 0.875 C9.67706198 4.57072967 18.30005893 5.82902673 26.82421875 3.09375 C29.21902961 2.04924753 29.21902961 2.04924753 31.328125 0.875 C33 0 33 0 35 0 C35 0.99 35 1.98 35 3 C32.03 3.66 29.06 4.32 26 5 C26 5.66 26 6.32 26 7 C21.8160335 9.06440531 18.79364129 9.0902668 14.1875 8.625 C13.02605469 8.51414062 11.86460938 8.40328125 10.66796875 8.2890625 C9.78753906 8.19367188 8.90710937 8.09828125 8 8 C8 7.01 8 6.02 8 5 C6.8553125 4.814375 6.8553125 4.814375 5.6875 4.625 C3 4 3 4 0 2 C0 1.34 0 0.68 0 0 Z " fill="#ED7918" transform="translate(41,88)"/>
<path d="M0 0 C0.66 0 1.32 0 2 0 C1 2 0 4 -1 6 C-1.66 6 -2.32 6 -3 6 C-3.66 11.61 -4.32 17.22 -5 23 C-2.69 23 -0.38 23 2 23 C2 19.7 2 16.4 2 13 C3.65 12.67 5.3 12.34 7 12 C6.01 12.33 5.02 12.66 4 13 C4.01160156 13.78246094 4.02320313 14.56492187 4.03515625 15.37109375 C4.04417969 16.38300781 4.05320312 17.39492187 4.0625 18.4375 C4.07410156 19.44683594 4.08570313 20.45617187 4.09765625 21.49609375 C4 24 4 24 3 25 C1.48071962 25.07179964 -0.04167482 25.08392007 -1.5625 25.0625 C-2.38878906 25.05347656 -3.21507812 25.04445313 -4.06640625 25.03515625 C-5.02353516 25.01775391 -5.02353516 25.01775391 -6 25 C-6.11644156 21.91698584 -6.18732432 18.83453877 -6.25 15.75 C-6.28351562 14.87730469 -6.31703125 14.00460938 -6.3515625 13.10546875 C-6.45054931 6.62183252 -6.45054931 6.62183252 -4.109375 3.390625 C-2 2 -2 2 0 2 C0 1.34 0 0.68 0 0 Z " fill="#DC8B42" transform="translate(48,52)"/>
<path d="M0 0 C1.98046875 0.99609375 1.98046875 0.99609375 4 3 C4.32416843 5.83424328 4.42455987 8.24606204 4.3125 11.0625 C4.30283203 11.79533203 4.29316406 12.52816406 4.28320312 13.28320312 C4.16962788 18.66074425 4.16962788 18.66074425 3 21 C0.03 21 -2.94 21 -6 21 C-6 20.34 -6 19.68 -6 19 C-6.99 19.33 -7.98 19.66 -9 20 C-9.08096803 18.54257537 -9.13917774 17.08387193 -9.1875 15.625 C-9.22230469 14.81289062 -9.25710937 14.00078125 -9.29296875 13.1640625 C-9.19628906 12.44992188 -9.09960938 11.73578125 -9 11 C-8.01 10.34 -7.02 9.68 -6 9 C-5.67 12.3 -5.34 15.6 -5 19 C-2.69 19 -0.38 19 2 19 C1.85870713 16.58299013 1.71213513 14.16649571 1.5625 11.75 C1.52318359 11.06808594 1.48386719 10.38617188 1.44335938 9.68359375 C1.23333528 6.35551959 0.98065998 3.19744598 0 0 Z " fill="#D38C45" transform="translate(71,56)"/>
<path d="M0 0 C1.75091019 0.08754551 3.50079551 0.19573373 5.25 0.3125 C6.22453125 0.37050781 7.1990625 0.42851563 8.203125 0.48828125 C11.25341611 1.04636524 12.70711276 1.96369776 15 4 C12.36 4.33 9.72 4.66 7 5 C7.66 6.65 8.32 8.3 9 10 C9.66 10 10.32 10 11 10 C11 10.99 11 11.98 11 13 C10.34 13 9.68 13 9 13 C9 12.34 9 11.68 9 11 C8.13375 10.62875 8.13375 10.62875 7.25 10.25 C4.61295899 8.78497722 2.92641136 7.32497923 1 5 C0.61494698 3.34451727 0.27447779 1.67736425 0 0 Z " fill="#F57409" transform="translate(59,39)"/>
<path d="M0 0 C0.66 0.33 1.32 0.66 2 1 C1.67 2.65 1.34 4.3 1 6 C-0.32 6 -1.64 6 -3 6 C-3.13277344 6.63808594 -3.26554687 7.27617188 -3.40234375 7.93359375 C-3.57894531 8.75988281 -3.75554688 9.58617187 -3.9375 10.4375 C-4.11152344 11.26121094 -4.28554688 12.08492187 -4.46484375 12.93359375 C-5 15 -5 15 -6 16 C-6.23427778 18.01594582 -6.41336124 20.038474 -6.5625 22.0625 C-6.64628906 23.16722656 -6.73007812 24.27195312 -6.81640625 25.41015625 C-6.87699219 26.26480469 -6.93757813 27.11945313 -7 28 C-6.34 28 -5.68 28 -5 28 C-4.34 30.97 -3.68 33.94 -3 37 C-7.57284444 32.42715556 -8.72110472 27.47021533 -9.4375 21.125 C-9.08064115 13.01457162 -5.58281326 5.7378914 0 0 Z " fill="#E59955" transform="translate(39,43)"/>
<path d="M0 0 C0.33 0.66 0.66 1.32 1 2 C1.66 2.33 2.32 2.66 3 3 C2.01 3.495 2.01 3.495 1 4 C3.21928194 6.90802461 4.92969143 8.95312762 8 11 C8.33 11.99 8.66 12.98 9 14 C9.66 14 10.32 14 11 14 C11.33 15.32 11.66 16.64 12 18 C7.62342444 17.55085263 5.13774185 14.65308771 2.1875 11.6875 C1.67251953 11.20087891 1.15753906 10.71425781 0.62695312 10.21289062 C-0.83203125 8.76171875 -0.83203125 8.76171875 -3 6 C-2.92951177 2.90394005 -2.20565641 2.20565641 0 0 Z " fill="#E9842C" transform="translate(20,84)"/>
<path d="M0 0 C0.33 0 0.66 0 1 0 C1.33 2.64 1.66 5.28 2 8 C3.72476911 8.95502158 3.72476911 8.95502158 6 9 C6.825 8.175 7.65 7.35 8.5 6.5 C9.325 5.675 10.15 4.85 11 4 C13.1875 4 13.1875 4 15 5 C15.99 6.485 15.99 6.485 17 8 C15.02 8 13.04 8 11 8 C11.33 8.66 11.66 9.32 12 10 C10.875 11.5625 10.875 11.5625 9 13 C5.8125 12.6875 5.8125 12.6875 3 12 C3 11.34 3 10.68 3 10 C2.01 10 1.02 10 0 10 C0 6.7 0 3.4 0 0 Z " fill="#EE8D35" transform="translate(70,19)"/>
<path d="M0 0 C2.4375 1.25 2.4375 1.25 3.4375 4.25 C2.32375 4.37375 1.21 4.4975 0.0625 4.625 C-3.59353677 4.8965813 -3.59353677 4.8965813 -5.5625 7.25 C-8.1875 7.375 -8.1875 7.375 -10.5625 7.25 C-9.60828192 6.10073734 -8.64897955 4.95569459 -7.6875 3.8125 C-7.15382813 3.17441406 -6.62015625 2.53632813 -6.0703125 1.87890625 C-3.84083442 -0.52962318 -3.2227585 -0.94324639 0 0 Z " fill="#EB9850" transform="translate(35.5625,23.75)"/>
<path d="M0 0 C0.99 0.33 1.98 0.66 3 1 C2.278125 1.40605469 1.55625 1.81210937 0.8125 2.23046875 C-3.35629651 5.13125632 -6.50195431 7.38448994 -7.47363281 12.48730469 C-7.89605337 18.66764241 -7.54797324 24.83656557 -7 31 C-7.66 31 -8.32 31 -9 31 C-9 23.41 -9 15.82 -9 8 C-8.34 8 -7.68 8 -7 8 C-7 7.34 -7 6.68 -7 6 C-6.34 6 -5.68 6 -5 6 C-4.67 4.68 -4.34 3.36 -4 2 C-2.68 2 -1.36 2 0 2 C0 1.34 0 0.68 0 0 Z " fill="#DE8C40" transform="translate(48,48)"/>
<path d="M0 0 C0.33 0 0.66 0 1 0 C1.59670737 6.47095992 1.26906293 10.98993725 -2.5625 16.3671875 C-4.48002893 18.54525025 -6.31004865 19.90947918 -9 21 C-9.66 20.67 -10.32 20.34 -11 20 C-10.45730469 19.47792969 -9.91460937 18.95585938 -9.35546875 18.41796875 C-3.79323383 12.69538112 -1.40603455 7.83571335 0 0 Z " fill="#E7944F" transform="translate(87,67)"/>
<path d="M0 0 C2.31 0 4.62 0 7 0 C4.40282608 3.17432368 1.9729485 4.09388894 -2 5 C-8.10964357 5.40565384 -13.35909718 5.60827066 -19 3 C-15.24600202 1.7960663 -11.66782588 1.90122383 -7.75 1.9375 C-5.85507812 1.95103516 -5.85507812 1.95103516 -3.921875 1.96484375 C-2.95765625 1.97644531 -1.9934375 1.98804687 -1 2 C-0.67 1.34 -0.34 0.68 0 0 Z " fill="#E3A05D" transform="translate(66,87)"/>
<path d="M0 0 C0.66 0.66 1.32 1.32 2 2 C1.96712417 4.72869407 1.43602229 7.2966618 1 10 C0.67 10 0.34 10 0 10 C0 7.36 0 4.72 0 2 C-2.33165034 1.66501699 -2.33165034 1.66501699 -5 2 C-5.99 3.0209375 -5.99 3.0209375 -7 4.0625 C-7.66 4.701875 -8.32 5.34125 -9 6 C-11.6875 5.875 -11.6875 5.875 -14 5 C-14.33 4.34 -14.66 3.68 -15 3 C-12.69 3 -10.38 3 -8 3 C-8 2.01 -8 1.02 -8 0 C-4.67679974 -1.10773342 -3.30835256 -0.93312508 0 0 Z " fill="#EBAA68" transform="translate(45,99)"/>
<path d="M0 0 C0 0.33 0 0.66 0 1 C-5.28 1 -10.56 1 -16 1 C-16 1.66 -16 2.32 -16 3 C-18.97 3.66 -21.94 4.32 -25 5 C-18.29475027 -1.70524973 -8.90943067 -2.22735767 0 0 Z " fill="#EAA25A" transform="translate(67,37)"/>
<path d="M0 0 C2.97 0.495 2.97 0.495 6 1 C6 1.99 6 2.98 6 4 C6.66 4 7.32 4 8 4 C8 11.26 8 18.52 8 26 C7.67 26 7.34 26 7 26 C7 19.4 7 12.8 7 6 C5.68 5.34 4.36 4.68 3 4 C1.25 1.875 1.25 1.875 0 0 Z " fill="#D87723" transform="translate(70,52)"/>
<path d="M0 0 C0.58265625 0.27714844 1.1653125 0.55429688 1.765625 0.83984375 C8.52269183 3.82527736 14.64455576 4.74723559 22 5 C18.78817851 6.90608098 16.46117397 7.22266247 12.75 7.125 C11.85796875 7.10695313 10.9659375 7.08890625 10.046875 7.0703125 C9.03367187 7.03550781 9.03367187 7.03550781 8 7 C8 6.34 8 5.68 8 5 C6.8553125 4.814375 6.8553125 4.814375 5.6875 4.625 C3 4 3 4 0 2 C0 1.34 0 0.68 0 0 Z " fill="#EDAD5C" transform="translate(41,88)"/>
<path d="M0 0 C2.0625 0.4375 2.0625 0.4375 4 1 C3.01 1 2.02 1 1 1 C1.01160156 1.78246094 1.02320313 2.56492187 1.03515625 3.37109375 C1.04417969 4.38300781 1.05320312 5.39492187 1.0625 6.4375 C1.07410156 7.44683594 1.08570313 8.45617187 1.09765625 9.49609375 C1 12 1 12 0 13 C-1.51928038 13.07179964 -3.04167482 13.08392007 -4.5625 13.0625 C-5.38878906 13.05347656 -6.21507812 13.04445313 -7.06640625 13.03515625 C-7.70449219 13.02355469 -8.34257813 13.01195313 -9 13 C-8.67 12.34 -8.34 11.68 -8 11 C-5.69 11 -3.38 11 -1 11 C-1.01160156 10.28972656 -1.02320313 9.57945313 -1.03515625 8.84765625 C-1.04869141 7.46900391 -1.04869141 7.46900391 -1.0625 6.0625 C-1.07410156 5.14597656 -1.08570313 4.22945313 -1.09765625 3.28515625 C-1 1 -1 1 0 0 Z " fill="#DD9859" transform="translate(51,64)"/>
<path d="M0 0 C1.98 1.65 3.96 3.3 6 5 C5.49166802 8.76165664 4.8405007 10.50035938 2 13 C1.34 13.99 0.68 14.98 0 16 C-0.33 14.35 -0.66 12.7 -1 11 C-0.01 11 0.98 11 2 11 C1.25640327 5.44946714 1.25640327 5.44946714 0 0 Z " fill="#E99448" transform="translate(93,33)"/>
<path d="M0 0 C0.66 0.33 1.32 0.66 2 1 C2 5.95 2 10.9 2 16 C-0.31 16 -2.62 16 -5 16 C-5.33 12.7 -5.66 9.4 -6 6 C-3.70986347 9.4352048 -3.82157027 10.985331 -4 15 C-3.01 15 -2.02 15 -1 15 C-1 14.34 -1 13.68 -1 13 C-0.34 13 0.32 13 1 13 C0.67 8.71 0.34 4.42 0 0 Z " fill="#E97612" transform="translate(71,59)"/>
<path d="M0 0 C1.984375 0.98828125 1.984375 0.98828125 4 3 C4.29561076 5.87038052 4.37943016 8.33754745 4.25 11.1875 C4.23195313 11.93708984 4.21390625 12.68667969 4.1953125 13.45898438 C4.14824109 15.3065371 4.07649766 17.15343159 4 19 C1.75357194 15.6303579 1.66820618 14.03359147 1.4375 10.0625 C1.22601179 6.57941861 0.97861504 3.35640695 0 0 Z " fill="#ECA240" transform="translate(71,56)"/>
<path d="M0 0 C2.375 0.3125 2.375 0.3125 5 1 C5.66 1.99 6.32 2.98 7 4 C6.01 4.495 6.01 4.495 5 5 C5 4.34 5 3.68 5 3 C3.35 3 1.7 3 0 3 C-0.33 3.99 -0.66 4.98 -1 6 C-2.65 6.33 -4.3 6.66 -6 7 C-4.02 4.69 -2.04 2.38 0 0 Z " fill="#E4914D" transform="translate(56,45)"/>
<path d="M0 0 C0.66 0 1.32 0 2 0 C1.75636719 0.7734375 1.75636719 0.7734375 1.5078125 1.5625 C0.84541366 4.74201443 0.86812228 7.75371527 0.875 11 C0.87242188 12.216875 0.86984375 13.43375 0.8671875 14.6875 C0.97383845 17.34750011 1.20692126 19.48228971 2 22 C1.01 22 0.02 22 -1 22 C-1.02887814 18.52085059 -1.04675687 15.04173169 -1.0625 11.5625 C-1.07087891 10.56927734 -1.07925781 9.57605469 -1.08789062 8.55273438 C-1.09111328 7.60849609 -1.09433594 6.66425781 -1.09765625 5.69140625 C-1.10289307 4.81685791 -1.10812988 3.94230957 -1.11352539 3.04125977 C-1 1 -1 1 0 0 Z " fill="#E79E5E" transform="translate(29,53)"/>
<path d="M0 0 C1.32 0.33 2.64 0.66 4 1 C5.59162079 6.57067277 6.20674944 11.21101581 6 17 C4.28783521 13.87214917 3.32506137 10.82301329 2.4375 7.375 C1.48326684 3.5878775 1.48326684 3.5878775 0 0 Z " fill="#E69C5F" transform="translate(83,49)"/>
<path d="M0 0 C2.875 0.1875 2.875 0.1875 6 1 C7.375 3.5625 7.375 3.5625 8 6 C8.66 6 9.32 6 10 6 C10 6.99 10 7.98 10 9 C9.34 9 8.68 9 8 9 C8 8.34 8 7.68 8 7 C7.4225 6.773125 6.845 6.54625 6.25 6.3125 C3.4336339 4.66961977 1.91922886 2.60466773 0 0 Z " fill="#E89645" transform="translate(60,43)"/>
<path d="M0 0 C0.56638908 4.81430721 -1.17438373 7.20307814 -4 11 C-5.24386556 7.26840331 -4.77811718 4.81984796 -4 1 C-2 0 -2 0 0 0 Z " fill="#ED8024" transform="translate(35,42)"/>
<path d="M0 0 C2.93193923 2.82722711 5.47780243 5.80521641 8 9 C8.66 9.66 9.32 10.32 10 11 C7.03 10.505 7.03 10.505 4 10 C3.67 8.35 3.34 6.7 3 5 C2.01 4.67 1.02 4.34 0 4 C0 2.68 0 1.36 0 0 Z " fill="#E6974A" transform="translate(31,77)"/>
<path d="M0 0 C1.2065625 0.0309375 1.2065625 0.0309375 2.4375 0.0625 C2.4375 1.7125 2.4375 3.3625 2.4375 5.0625 C0.7875 5.0625 -0.8625 5.0625 -2.5625 5.0625 C-3.125 3.125 -3.125 3.125 -3.5625 1.0625 C-2.5625 0.0625 -2.5625 0.0625 0 0 Z " fill="#F87504" transform="translate(58.5625,68.9375)"/>
<path d="M0 0 C0.33 1.32 0.66 2.64 1 4 C0.01 4 -0.98 4 -2 4 C-2.33 5.32 -2.66 6.64 -3 8 C-3.66 8 -4.32 8 -5 8 C-5.33 8.99 -5.66 9.98 -6 11 C-6.71484375 9.234375 -6.71484375 9.234375 -7 7 C-5.56640625 5.078125 -5.56640625 5.078125 -3.5625 3.25 C-2.90378906 2.63640625 -2.24507812 2.0228125 -1.56640625 1.390625 C-1.04949219 0.93171875 -0.53257813 0.4728125 0 0 Z " fill="#E7A15B" transform="translate(24,31)"/>
<path d="M0 0 C-1.2065625 0.4640625 -1.2065625 0.4640625 -2.4375 0.9375 C-4.89080405 1.76335345 -4.89080405 1.76335345 -6 3 C-7.66617115 3.04063832 -9.33388095 3.042721 -11 3 C-9.53725191 0.73274047 -8.55376366 -0.74991319 -6.0625 -1.875 C-3.50121292 -2.03022952 -2.16590481 -1.31501363 0 0 Z " fill="#F08B33" transform="translate(36,28)"/>
<path d="M0 0 C1.32 0 2.64 0 4 0 C4 0.66 4 1.32 4 2 C2.35 2.66 0.7 3.32 -1 4 C-1 4.66 -1 5.32 -1 6 C-2.98 6.99 -2.98 6.99 -5 8 C-4.75 5.625 -4.75 5.625 -4 3 C-1.9375 1.6875 -1.9375 1.6875 0 1 C0 0.67 0 0.34 0 0 Z " fill="#E58944" transform="translate(40,37)"/>
<path d="M0 0 C0.33 0 0.66 0 1 0 C1 3.3 1 6.6 1 10 C0.01 10.33 -0.98 10.66 -2 11 C-2.05399736 9.54207116 -2.09279177 8.08357288 -2.125 6.625 C-2.15980469 5.40683594 -2.15980469 5.40683594 -2.1953125 4.1640625 C-2 2 -2 2 0 0 Z " fill="#F4C674" transform="translate(64,65)"/>
<path d="M0 0 C0.33 0 0.66 0 1 0 C1.66 2.64 2.32 5.28 3 8 C5.97 8.495 5.97 8.495 9 9 C9 9.33 9 9.66 9 10 C2.84765625 10.09765625 2.84765625 10.09765625 1 10 C0 9 0 9 -0.09765625 6.93359375 C-0.08605469 6.10988281 -0.07445312 5.28617187 -0.0625 4.4375 C-0.05347656 3.61121094 -0.04445312 2.78492187 -0.03515625 1.93359375 C-0.02355469 1.29550781 -0.01195312 0.65742187 0 0 Z " fill="#D59F6B" transform="translate(53,67)"/>
<path d="M0 0 C0.33 0.99 0.66 1.98 1 3 C-1.52956528 6.0916909 -4.22454612 6.90931332 -8 8 C-4.375 3.125 -4.375 3.125 -1 2 C-0.67 1.34 -0.34 0.68 0 0 Z " fill="#EB8B41" transform="translate(84,80)"/>
<path d="M0 0 C2.475 0.99 2.475 0.99 5 2 C5 4.31 5 6.62 5 9 C4.01 9.33 3.02 9.66 2 10 C2.226875 9.0925 2.45375 8.185 2.6875 7.25 C3.32605545 4.00496499 3.32605545 4.00496499 1.5625 1.625 C1.046875 1.08875 0.53125 0.5525 0 0 Z " fill="#E58E42" transform="translate(19,42)"/>
<path d="M0 0 C1.65 0 3.3 0 5 0 C5 1.98 5 3.96 5 6 C3.0625 5.25 3.0625 5.25 1 4 C0.25 1.875 0.25 1.875 0 0 Z " fill="#E68D40" transform="translate(80,43)"/>
<path d="M0 0 C0.99 0 1.98 0 3 0 C2.814375 0.763125 2.62875 1.52625 2.4375 2.3125 C1.77180827 5.08967375 1.77180827 5.08967375 3 8 C2.01 7.67 1.02 7.34 0 7 C0 4.69 0 2.38 0 0 Z " fill="#E98D3A" transform="translate(92,76)"/>
<path d="M0 0 C2.64 0.33 5.28 0.66 8 1 C8 1.66 8 2.32 8 3 C5.36 3 2.72 3 0 3 C0 2.01 0 1.02 0 0 Z " fill="#E37717" transform="translate(95,73)"/>
<path d="M0 0 C2.97 0.495 2.97 0.495 6 1 C6 2.65 6 4.3 6 6 C3.97945196 4.35830472 1.97956942 2.69088222 0 1 C0 0.67 0 0.34 0 0 Z " fill="#E69850" transform="translate(70,52)"/>
<path d="M0 0 C4.95 1.98 4.95 1.98 10 4 C10 4.33 10 4.66 10 5 C6.63295715 5.2295711 4.58629732 5.33943529 1.625 3.625 C1.08875 3.08875 0.5525 2.5525 0 2 C0 1.34 0 0.68 0 0 Z " fill="#EDA56A" transform="translate(41,88)"/>
<path d="M0 0 C0 0.99 0 1.98 0 3 C-6.96428571 5.27678571 -6.96428571 5.27678571 -11 4 C-9.5437455 3.32880451 -8.08492133 2.66318193 -6.625 2 C-5.81289062 1.62875 -5.00078125 1.2575 -4.1640625 0.875 C-2 0 -2 0 0 0 Z " fill="#E99C49" transform="translate(76,88)"/>
<path d="M0 0 C2.31 0 4.62 0 7 0 C4.60490662 2.89932357 2.68754757 3.50168276 -1 4 C-0.67 2.68 -0.34 1.36 0 0 Z " fill="#E89A48" transform="translate(66,87)"/>
<path d="M0 0 C1.98 1.65 3.96 3.3 6 5 C2.125 7 2.125 7 1 7 C0.67 4.69 0.34 2.38 0 0 Z " fill="#EC8F3F" transform="translate(87,27)"/>
<path d="M0 0 C1.875 0.3125 1.875 0.3125 4 1 C4.66 1.99 5.32 2.98 6 4 C3.36 3.67 0.72 3.34 -2 3 C-1.34 2.01 -0.68 1.02 0 0 Z " fill="#EB9C52" transform="translate(81,23)"/>
<path d="M0 0 C0.33 0.66 0.66 1.32 1 2 C1.66 2.33 2.32 2.66 3 3 C2.01 3 1.02 3 0 3 C-0.66 4.32 -1.32 5.64 -2 7 C-2.6875 5.1875 -2.6875 5.1875 -3 3 C-1.5625 1.25 -1.5625 1.25 0 0 Z " fill="#E59353" transform="translate(20,84)"/>
<path d="M0 0 C2.875 0.1875 2.875 0.1875 6 1 C7.375 3.5625 7.375 3.5625 8 6 C4.08597051 4.73058503 2.20927127 3.48832306 0 0 Z " fill="#E79A4D" transform="translate(37,82)"/>
</svg>
