<?xml version="1.0" encoding="UTF-8"?>
<svg version="1.1" xmlns="http://www.w3.org/2000/svg" width="1754" height="757">
<path d="M0 0 C0.802099 -0.00511093 1.604198 -0.01022186 2.43060303 -0.01548767 C5.07954387 -0.02937693 7.72822435 -0.02842744 10.37719727 -0.02612305 C12.22038367 -0.0300103 14.06356919 -0.03434503 15.90675354 -0.03910828 C19.76940821 -0.04656902 23.63197147 -0.04628023 27.49462891 -0.04101562 C32.44227358 -0.0352207 37.38954394 -0.05215322 42.33712673 -0.0753603 C46.14356165 -0.09009853 49.94990643 -0.09096922 53.75636482 -0.08785057 C55.58040165 -0.08836372 57.40444353 -0.09360031 59.22845268 -0.10366249 C61.78015278 -0.11601158 64.3311239 -0.10924466 66.8828125 -0.09765625 C67.63466324 -0.10529999 68.38651398 -0.11294373 69.16114807 -0.12081909 C73.62042393 -0.07610114 76.47658163 0.50039229 80.00610352 3.2746582 C82.46715897 6.96624138 82.26186144 9.74089374 82.20141602 14.00512695 C82.19858612 14.75554764 82.19575623 15.50596832 82.19284058 16.27912903 C82.18165414 18.67363495 82.15655279 21.06776552 82.13110352 23.4621582 C82.12107171 25.08650176 82.11194621 26.71085118 82.10375977 28.33520508 C82.08171988 32.3151672 82.04720092 36.29484908 82.00610352 40.2746582 C82.63371582 40.45424072 83.26132812 40.63382324 83.90795898 40.81884766 C89.44525825 42.43619831 94.8015093 44.2602106 100.13110352 46.4621582 C102.42277018 47.3996582 104.71443685 48.3371582 107.00610352 49.2746582 C107.6620752 48.61344971 108.31804687 47.95224121 108.99389648 47.27099609 C111.42581387 44.82204968 113.85995717 42.37536067 116.2956543 39.93017578 C117.34994382 38.87085347 118.40333461 37.81063591 119.45581055 36.74951172 C120.96762208 35.22558859 122.48262254 33.70490037 123.99829102 32.18481445 C125.3651001 30.81015015 125.3651001 30.81015015 126.75952148 29.40771484 C129.45426322 26.84914513 130.45439771 26.36293113 134.13110352 25.7746582 C138.13787726 26.29166127 138.69011092 26.51088646 141.47485352 29.05834961 C142.17497559 29.69766418 142.87509766 30.33697876 143.59643555 30.9956665 C151.63288104 38.59629564 159.5279623 46.33801932 167.3941803 54.11429405 C170.51732248 57.20152137 173.64877709 60.27915766 176.80151367 63.33618164 C179.87168156 66.3134866 182.91915525 69.31235113 185.95196533 72.32768631 C187.10527771 73.46694098 188.26632017 74.59842729 189.4352417 75.72166061 C199.66746024 85.57254695 199.66746024 85.57254695 200.02758789 91.16943359 C199.39336322 95.52468884 197.16517414 98.28906012 193.97485352 101.18481445 C193.46434448 101.68258896 192.95383545 102.18036346 192.42785645 102.69322205 C190.80729664 104.26377011 189.15827457 105.799969 187.50610352 107.3371582 C186.39598544 108.40208764 185.28788824 109.46912796 184.18188477 110.53833008 C181.47938147 113.14209918 178.75089675 115.71553842 176.00610352 118.2746582 C176.36176392 119.14417114 176.36176392 119.14417114 176.72460938 120.03125 C177.80218699 122.67304467 178.87294921 125.31755055 179.94360352 127.9621582 C180.31678711 128.87416992 180.6899707 129.78618164 181.07446289 130.72583008 C181.61103516 132.05517578 181.61103516 132.05517578 182.15844727 133.41137695 C182.4883667 134.2230835 182.81828613 135.03479004 183.15820312 135.87109375 C184.02382595 138.32489644 184.55783772 140.71456246 185.00610352 143.2746582 C186.46632935 143.25109253 186.46632935 143.25109253 187.95605469 143.22705078 C191.58080718 143.17259581 195.20552377 143.13825194 198.83056641 143.10986328 C200.39703459 143.09481198 201.96346088 143.07436613 203.52978516 143.04833984 C205.78631958 143.01179387 208.04229504 142.99489559 210.29907227 142.98168945 C210.99510056 142.9662056 211.69112885 142.95072174 212.4082489 142.93476868 C216.79866334 142.93326205 219.5284559 143.56629999 223.00610352 146.2746582 C225.50983928 150.03026185 225.3017105 152.98867193 225.29663086 157.33862305 C225.30334808 158.16008316 225.31006531 158.98154327 225.31698608 159.82789612 C225.33600512 162.54719062 225.33989229 165.2662388 225.34204102 167.9855957 C225.34846642 169.8750519 225.35519459 171.76450709 225.36221313 173.65396118 C225.3741958 177.61674303 225.37789296 181.57943764 225.37670898 185.54223633 C225.37650578 190.61891048 225.40380468 195.69502489 225.4382534 200.77156639 C225.46049714 204.67494269 225.4645473 208.57818378 225.46348953 212.48161697 C225.46584943 214.35311436 225.47469478 216.22461525 225.49015427 218.09605026 C225.50976256 220.71506618 225.50399681 223.33286861 225.49194336 225.9519043 C225.50318237 226.72402756 225.51442139 227.49615082 225.52600098 228.29167175 C225.48265956 231.9998602 225.12894285 234.08397638 223.10073853 237.23233032 C219.42279218 240.81843116 216.25643699 240.40668014 211.37329102 240.37231445 C210.62145538 240.37089951 209.86961975 240.36948456 209.09500122 240.36802673 C206.69032842 240.36242285 204.28574824 240.34986977 201.88110352 240.3371582 C200.25219861 240.3321437 198.62329224 240.32758071 196.99438477 240.32348633 C192.99825525 240.31245217 189.00219509 240.29518499 185.00610352 240.2746582 C184.87921143 241.16685059 184.75231934 242.05904297 184.62158203 242.97827148 C184.07110038 245.92654728 183.33979966 248.27910842 182.15844727 251.0168457 C181.80073242 251.85473633 181.44301758 252.69262695 181.07446289 253.5559082 C180.5146875 254.83981445 180.5146875 254.83981445 179.94360352 256.1496582 C179.56655273 257.02879883 179.18950195 257.90793945 178.80102539 258.8137207 C177.87524279 260.96997384 176.9434844 263.12342799 176.00610352 265.2746582 C176.66731201 265.93062988 177.32852051 266.58660156 178.00976562 267.26245117 C180.45871204 269.69436856 182.90540105 272.12851185 185.35058594 274.56420898 C186.40990825 275.6184985 187.47012581 276.67188929 188.53125 277.72436523 C190.05517313 279.23617677 191.57586135 280.75117723 193.09594727 282.2668457 C194.47061157 283.63365479 194.47061157 283.63365479 195.87304688 285.02807617 C198.99220694 288.31324396 199.44306395 290.60508162 199.36845207 295.16691589 C198.72826967 298.89078757 196.24135427 301.15995647 193.64111328 303.69067383 C193.07035568 304.27705627 192.49959808 304.86343872 191.9115448 305.46759033 C190.0265983 307.39271594 188.11390759 309.28712663 186.19750977 311.1809082 C184.87275507 312.51359606 183.54911678 313.84739452 182.22654724 315.18225098 C179.45258823 317.97249951 176.66445216 320.74754461 173.86572266 323.51293945 C170.28548838 327.0532069 166.74494084 330.63035478 163.21437168 334.22006989 C160.4894021 336.98151032 157.74348027 339.72133224 154.99091911 342.45524597 C153.67689186 343.76579257 152.36962353 345.08315334 151.0694294 346.40742493 C149.2457386 348.2587987 147.39550246 350.07885622 145.53564453 351.89379883 C145.0069577 352.44227478 144.47827087 352.99075073 143.93356323 353.55584717 C140.80894516 356.53588051 138.66555598 357.62364546 134.29382324 357.74291992 C130.44012388 357.61763474 128.27313737 356.56549051 125.47972107 353.76794434 C125.02307571 353.26484741 124.56643036 352.76175049 124.09594727 352.2434082 C123.59817276 351.73289917 123.10039825 351.22239014 122.58753967 350.69641113 C121.01699161 349.07585133 119.48079272 347.42682926 117.94360352 345.7746582 C116.87867408 344.66454013 115.81163376 343.55644293 114.74243164 342.45043945 C112.13866254 339.74793616 109.5652233 337.01945144 107.00610352 334.2746582 C106.46195801 334.51176514 105.9178125 334.74887207 105.35717773 334.99316406 C102.86809993 336.07310522 100.37469855 337.14269113 97.88110352 338.2121582 C96.59719727 338.77193359 96.59719727 338.77193359 95.28735352 339.34301758 C94.03051758 339.87958984 94.03051758 339.87958984 92.74829102 340.42700195 C91.98371582 340.75692139 91.21914063 341.08684082 90.43139648 341.42675781 C87.645819 342.40061634 84.92283234 342.85982635 82.00610352 343.2746582 C82.02705078 344.27843506 82.04799805 345.28221191 82.06958008 346.31640625 C82.14217046 350.05291386 82.18797163 353.78935958 82.22583008 357.52636719 C82.24590244 359.14138279 82.27316682 360.7563261 82.30786133 362.37109375 C82.35657566 364.69720321 82.37911506 367.02234913 82.39672852 369.34887695 C82.41737366 370.06677902 82.4380188 370.78468109 82.45928955 371.52433777 C82.46090729 375.16719563 82.10658062 377.11951277 80.10668945 380.20751953 C76.37660735 383.87820819 73.03106824 383.43450326 68.05566406 383.45166016 C67.23434998 383.45823135 66.41303589 383.46480255 65.5668335 383.47157288 C62.84216221 383.4913232 60.11754608 383.50297221 57.39282227 383.51293945 C56.46312937 383.51701498 55.53343647 383.52109051 54.57557106 383.52528954 C49.6550379 383.54615751 44.7345327 383.56045617 39.81396484 383.56982422 C34.72944839 383.5808912 29.64536929 383.61529232 24.5610075 383.65499592 C20.65335776 383.68113096 16.74581272 383.68951328 12.83808327 383.6931057 C10.96378437 383.69797959 9.08949038 383.70961637 7.21527672 383.72814369 C4.5914067 383.75246958 1.96867462 383.75158232 -0.65527344 383.74462891 C-1.8158149 383.76384399 -1.8158149 383.76384399 -2.99980164 383.78344727 C-6.71348057 383.74759131 -8.79861796 383.40035115 -11.95256042 381.37028503 C-15.53666072 377.69086307 -15.12591876 374.52503954 -15.09155273 369.6418457 C-15.08943031 368.51409225 -15.08943031 368.51409225 -15.08726501 367.36355591 C-15.08166114 364.95888311 -15.06910805 362.55430293 -15.05639648 360.1496582 C-15.05138198 358.5207533 -15.04681899 356.89184693 -15.04272461 355.26293945 C-15.03169045 351.26680994 -15.01442327 347.27074978 -14.99389648 343.2746582 C-15.88608887 343.14776611 -16.77828125 343.02087402 -17.69750977 342.89013672 C-20.64578557 342.33965506 -22.9983467 341.60835434 -25.73608398 340.42700195 C-26.57397461 340.06928711 -27.41186523 339.71157227 -28.27514648 339.34301758 C-29.55905273 338.78324219 -29.55905273 338.78324219 -30.86889648 338.2121582 C-31.74803711 337.83510742 -32.62717773 337.45805664 -33.53295898 337.06958008 C-35.68921212 336.14379748 -37.84266627 335.21203909 -39.99389648 334.2746582 C-40.64350342 334.97139648 -41.29311035 335.66813477 -41.96240234 336.38598633 C-44.39346386 338.98073782 -46.85484888 341.54493377 -49.32617188 344.10131836 C-50.38863009 345.20886036 -51.44285071 346.32436923 -52.48828125 347.44799805 C-53.99876752 349.06848165 -55.53724294 350.65734699 -57.08374023 352.2434082 C-57.54038559 352.74650513 -57.99703094 353.24960205 -58.46751404 353.76794434 C-61.26093034 356.56549051 -63.42791685 357.61763474 -67.28161621 357.74291992 C-72.57175597 357.59858846 -74.95789835 355.59279864 -78.5234375 351.89379883 C-79.10996597 351.32143494 -79.69649445 350.74907104 -80.30079651 350.15936279 C-82.22286624 348.27165401 -84.1104156 346.35324665 -85.99780273 344.4309082 C-87.3287688 343.10346765 -88.66114331 341.77743792 -89.99485779 340.45275879 C-92.78050715 337.67585122 -95.54953735 334.88363034 -98.30761719 332.0793457 C-101.8399454 328.49011506 -105.40899909 324.94025087 -108.99112034 321.40079498 C-111.74683539 318.67012975 -114.48292693 315.92045923 -117.21342278 313.16459656 C-118.52219098 311.84799094 -119.83676716 310.53713199 -121.15722847 309.23225403 C-123.00132551 307.40381082 -124.81761727 305.55154798 -126.62890625 303.69067383 C-127.44926361 302.89225067 -127.44926361 302.89225067 -128.28619385 302.07769775 C-131.0852335 299.14205458 -132.32897733 297.00853097 -132.40637207 293.01318359 C-131.98381402 289.18327448 -131.67643918 287.95849633 -129.02124023 285.3059082 C-128.3817041 284.64719727 -127.74216797 283.98848633 -127.08325195 283.30981445 C-126.39376465 282.63821289 -125.70427734 281.96661133 -124.99389648 281.2746582 C-124.30827637 280.57211914 -123.62265625 279.86958008 -122.91625977 279.14575195 C-120.81698421 277.00023685 -118.69155492 274.88442134 -116.55639648 272.7746582 C-115.82485352 272.04762695 -115.09331055 271.3205957 -114.33959961 270.5715332 C-112.55999824 268.80356322 -110.7780873 267.03799443 -108.99389648 265.2746582 C-109.23100342 264.69498291 -109.46811035 264.11530762 -109.71240234 263.51806641 C-110.78997996 260.87627174 -111.86074218 258.23176586 -112.93139648 255.5871582 C-113.30458008 254.67514648 -113.67776367 253.76313477 -114.06225586 252.82348633 C-114.4199707 251.93725586 -114.77768555 251.05102539 -115.14624023 250.13793945 C-115.47615967 249.32623291 -115.8060791 248.51452637 -116.14599609 247.67822266 C-117.01161892 245.22441996 -117.54563069 242.83475395 -117.99389648 240.2746582 C-118.99767334 240.29560547 -120.0014502 240.31655273 -121.03564453 240.33813477 C-124.77215214 240.41072514 -128.50859786 240.45652632 -132.24560547 240.49438477 C-133.86062107 240.51445713 -135.47556438 240.5417215 -137.09033203 240.57641602 C-139.41644149 240.62513035 -141.74158741 240.64766975 -144.06811523 240.6652832 C-144.7860173 240.68592834 -145.50391937 240.70657349 -146.24357605 240.72784424 C-149.88643392 240.72946198 -151.83875105 240.37513531 -154.92675781 238.37524414 C-158.58098121 234.66189371 -158.14784306 231.36869482 -158.1550293 226.41601562 C-158.1599942 225.60445511 -158.16495911 224.79289459 -158.17007446 223.95674133 C-158.1847121 221.26452799 -158.19150111 218.5723736 -158.19702148 215.88012695 C-158.20277209 214.01166278 -158.20852983 212.14319863 -158.21429443 210.2747345 C-158.2248093 206.3530754 -158.23064863 202.43143684 -158.23413086 198.50976562 C-158.23961336 193.48586187 -158.26363413 188.46222945 -158.29210281 183.43841076 C-158.3107327 179.57708445 -158.315935 175.71582341 -158.31746674 171.85445595 C-158.32049354 170.00250072 -158.32852301 168.15054665 -158.34165192 166.29863548 C-158.35871805 163.70604241 -158.35683076 161.11411093 -158.3503418 158.52148438 C-158.35955658 157.75714081 -158.36877136 156.99279724 -158.37826538 156.20529175 C-158.34305711 151.71178013 -157.745145 148.8611942 -154.99389648 145.2746582 C-151.51507191 142.63229944 -147.56993036 143.01773016 -143.38452148 143.0793457 C-142.29430695 143.08359055 -142.29430695 143.08359055 -141.18206787 143.08792114 C-138.86917398 143.09908298 -136.5566726 143.12417969 -134.24389648 143.1496582 C-132.67228751 143.15969319 -131.10067244 143.16881814 -129.52905273 143.17700195 C-125.68385027 143.19900916 -121.83893985 143.23351105 -117.99389648 143.2746582 C-117.81431396 142.6470459 -117.63473145 142.01943359 -117.44970703 141.37280273 C-115.83235638 135.83550347 -114.00834408 130.47925242 -111.80639648 125.1496582 C-111.30970459 123.93552246 -110.8130127 122.72138672 -110.30126953 121.47045898 C-109.86983643 120.41584473 -109.43840332 119.36123047 -108.99389648 118.2746582 C-109.65510498 117.61868652 -110.31631348 116.96271484 -110.99755859 116.28686523 C-113.44650501 113.85494784 -115.89319402 111.42080455 -118.33837891 108.98510742 C-119.39770122 107.9308179 -120.45791878 106.87742711 -121.51904297 105.82495117 C-123.0429661 104.31313964 -124.56365432 102.79813918 -126.08374023 101.2824707 C-127.00018311 100.37126465 -127.91662598 99.46005859 -128.86083984 98.52124023 C-131.41940956 95.8264985 -131.90562356 94.82636401 -132.49389648 91.1496582 C-131.27862522 81.73130587 -119.59437238 73.7286552 -113.00561523 67.15356445 C-111.85441248 66.00168686 -110.70335811 64.84966096 -109.55244446 63.69749451 C-107.15621094 61.29979607 -104.75820144 58.90389238 -102.35888672 56.50927734 C-99.28090332 53.43702938 -96.20748363 50.360261 -93.13534832 47.28216648 C-90.76690307 44.91011588 -88.39609155 42.5404419 -86.02454567 40.17149162 C-84.88947941 39.0370927 -83.75515624 37.90194975 -82.62158775 36.76605415 C-81.0445612 35.18649736 -79.46438137 33.61016538 -77.88330078 32.03466797 C-76.98508102 31.1372438 -76.08686127 30.23981964 -75.16142273 29.31520081 C-72.51703256 26.82573115 -71.47400296 26.35147524 -67.86889648 25.7746582 C-63.78868168 26.30113753 -63.15241145 26.65450119 -60.28295898 29.27856445 C-59.58702637 29.91358887 -58.89109375 30.54861328 -58.17407227 31.20288086 C-54.55146202 34.64537477 -51.00626586 38.1575103 -47.49389648 41.7121582 C-46.76686523 42.44370117 -46.03983398 43.17524414 -45.29077148 43.92895508 C-43.5228015 45.70855645 -41.75723271 47.49046738 -39.99389648 49.2746582 C-39.30763184 49.00202148 -38.62136719 48.72938477 -37.91430664 48.44848633 C-34.81721853 47.22035784 -31.71809652 45.99744684 -28.61889648 44.7746582 C-27.53866211 44.34540039 -26.45842773 43.91614258 -25.34545898 43.47387695 C-24.31420898 43.06782227 -23.28295898 42.66176758 -22.22045898 42.2434082 C-20.79080811 41.67783203 -20.79080811 41.67783203 -19.33227539 41.10083008 C-16.99389648 40.2746582 -16.99389648 40.2746582 -14.99389648 40.2746582 C-15.01746216 38.81443237 -15.01746216 38.81443237 -15.04150391 37.32470703 C-15.09595887 33.69995454 -15.13030275 30.07523795 -15.15869141 26.45019531 C-15.17374271 24.88372713 -15.19418855 23.31730084 -15.22021484 21.75097656 C-15.25676081 19.49444214 -15.2736591 17.23846667 -15.28686523 14.98168945 C-15.30234909 14.28566116 -15.31783295 13.58963287 -15.33378601 12.87251282 C-15.33528953 8.49116527 -14.76617013 5.70589891 -11.99389648 2.2746582 C-8.29364317 -0.29426992 -4.33170384 -0.01423504 0 0 Z M-55.99389648 102.2746582 C-56.58428711 102.8005957 -57.17467773 103.3265332 -57.78295898 103.8684082 C-79.48221892 124.02506672 -92.1703575 156.07349485 -93.27124023 185.2902832 C-93.54518902 197.55741147 -93.01388014 209.35966807 -89.99389648 221.2746582 C-89.8329248 221.92128418 -89.67195312 222.56791016 -89.50610352 223.23413086 C-83.823301 245.21746008 -72.62605497 263.947119 -56.99389648 280.2746582 C-55.9690918 281.39420898 -55.9690918 281.39420898 -54.92358398 282.53637695 C-48.66111845 289.15702779 -41.55041386 294.25429156 -33.99389648 299.2746582 C-32.59397461 300.21825195 -32.59397461 300.21825195 -31.16577148 301.1809082 C-17.99917645 309.45705365 -2.3234899 314.8657221 13.00610352 317.2746582 C14.02188477 317.45641602 15.03766602 317.63817383 16.08422852 317.82543945 C50.35409639 321.75077293 83.63465995 313.38253069 111.00610352 292.2746582 C114.47605882 289.40527208 117.75925229 286.39287032 121.00610352 283.2746582 C121.91231445 282.43161133 122.81852539 281.58856445 123.75219727 280.7199707 C130.63364019 274.13440119 135.90553376 267.30369196 141.00610352 259.2746582 C141.62227539 258.33106445 142.23844727 257.3874707 142.87329102 256.4152832 C159.11037517 230.29161892 164.62264625 196.09982662 157.97094727 166.1340332 C157.65254883 164.86043945 157.33415039 163.5868457 157.00610352 162.2746582 C156.84513184 161.62948242 156.68416016 160.98430664 156.51831055 160.31958008 C148.10634278 127.77067887 126.71559813 99.88494487 98.03588867 82.4519043 C47.0486002 52.88001291 -13.72454368 62.52663522 -55.99389648 102.2746582 Z " fill="#FD7400" transform="translate(846.993896484375,-0.274658203125)"/>
<path d="M0 0 C1.59263362 1.34321628 3.17608587 2.69739703 4.75 4.0625 C5.55824219 4.72636719 6.36648438 5.39023438 7.19921875 6.07421875 C27.779743 23.55312553 40.66953489 49.35687159 43.75 76.0625 C45.92839834 108.79959742 38.82734264 137.12139176 17.58984375 162.66015625 C-0.521879 183.32732489 -25.5091572 198.29969249 -53.25 201.0625 C-83.09078745 202.27291332 -83.09078745 202.27291332 -97.25 198.0625 C-98.46945312 197.7221875 -99.68890625 197.381875 -100.9453125 197.03125 C-129.34995682 188.39903776 -152.70862476 168.30145075 -167.10253906 142.52563477 C-180.40386761 117.17867634 -183.981848 85.22066094 -175.54980469 57.78417969 C-170.63782385 42.49216386 -163.81526662 29.27035125 -153.25 17.0625 C-152.60933594 16.26585937 -151.96867188 15.46921875 -151.30859375 14.6484375 C-114.96077974 -28.80340847 -44.08115221 -34.53710212 0 0 Z M-75.25 -1.1875 C-76.20519531 -0.37023437 -77.16039062 0.44703125 -78.14453125 1.2890625 C-82.57570112 5.21685147 -86.92200556 9.23654548 -91.25 13.27734375 C-94.20876022 16.03596339 -97.23395085 18.70861326 -100.29296875 21.35546875 C-102.6355915 23.39883431 -104.94273422 25.47930859 -107.25 27.5625 C-110.86676345 30.82640848 -114.51389608 34.05040949 -118.1875 37.25 C-120.55964429 39.33461164 -122.90556065 41.44678644 -125.25 43.5625 C-130.19835947 48.02587478 -135.165316 52.46801772 -140.265625 56.7578125 C-140.89984375 57.29148438 -141.5340625 57.82515625 -142.1875 58.375 C-142.75339844 58.84550781 -143.31929687 59.31601563 -143.90234375 59.80078125 C-146.27922274 62.02609114 -146.25602977 63.21213507 -146.39044189 66.54771423 C-146.40253829 68.07726874 -146.40897458 69.60687379 -146.41113281 71.13647461 C-146.41609772 71.97075485 -146.42106262 72.8050351 -146.42617798 73.66459656 C-146.44081338 76.43135393 -146.44760334 79.19805399 -146.453125 81.96484375 C-146.45887464 83.88293968 -146.46463239 85.80103559 -146.47039795 87.71913147 C-146.48091139 91.74333973 -146.48675204 95.76752798 -146.49023438 99.79174805 C-146.49572455 104.95484968 -146.51976228 110.11768832 -146.54820633 115.28070736 C-146.5668039 119.24317708 -146.57203673 123.20558304 -146.57357025 127.16809273 C-146.57660305 129.07194013 -146.5846526 130.97578626 -146.59775543 132.87959099 C-146.61475841 135.53964303 -146.61295009 138.19904694 -146.60644531 140.85913086 C-146.6156601 141.64936646 -146.62487488 142.43960205 -146.6343689 143.25378418 C-146.63258043 147.3726213 -146.63258043 147.3726213 -144.91522217 151.01271057 C-141.45142053 153.19636054 -138.39858694 153.19177179 -134.41812134 153.20294189 C-132.59269554 153.21150711 -132.59269554 153.21150711 -130.73039246 153.22024536 C-129.37966929 153.22149069 -128.02894601 153.22261579 -126.67822266 153.22363281 C-125.25733817 153.22826154 -123.83645492 153.23328628 -122.41557312 153.23867798 C-118.55396843 153.2517978 -114.69238112 153.25824599 -110.83075762 153.26268864 C-108.41839266 153.26561974 -106.00603246 153.2697246 -103.59366989 153.27419281 C-96.04648505 153.28786598 -88.49931107 153.2975338 -80.9521147 153.3013947 C-72.23876842 153.30587665 -63.52557891 153.32343156 -54.8122803 153.3523953 C-48.07758691 153.37400535 -41.34293766 153.3840986 -34.60820997 153.38543582 C-30.58553312 153.38648424 -26.56300368 153.39239991 -22.54036331 153.41025543 C-18.75645294 153.42672474 -14.97280099 153.4288973 -11.18886757 153.42011642 C-9.8009338 153.41934546 -8.41298619 153.42369665 -7.02508736 153.43357468 C-5.12871573 153.44627902 -3.23224045 153.43863115 -1.33584595 153.42999268 C-0.27507151 153.43145924 0.78570293 153.4329258 1.87862206 153.4344368 C5.1944687 153.00492685 7.06889564 152.02980244 9.75 150.0625 C12.12665029 146.02222808 12.03472418 141.88907165 12.00878906 137.32226562 C12.0122937 136.55903488 12.01579834 135.79580414 12.01940918 135.00944519 C12.02818523 132.4957866 12.022392 129.98241127 12.015625 127.46875 C12.01697284 125.71667426 12.01891436 123.96459888 12.02142334 122.21252441 C12.02436901 118.54415316 12.02009487 114.87587943 12.01074219 111.20751953 C11.99934798 106.50995367 12.00591043 101.81261638 12.01788712 97.1150589 C12.02512075 93.49821252 12.02281087 89.88142016 12.01763153 86.26457214 C12.0162992 84.53264845 12.01792816 82.80071981 12.02259064 81.06880188 C12.02768058 78.64664759 12.0199111 76.22486132 12.00878906 73.80273438 C12.01486176 72.73341927 12.01486176 72.73341927 12.02105713 71.64250183 C11.98089978 66.91185881 11.46416871 63.10415529 8.36474609 59.41259766 C7.83961426 58.93870605 7.31448242 58.46481445 6.7734375 57.9765625 C6.18916992 57.44192383 5.60490234 56.90728516 5.00292969 56.35644531 C4.07335449 55.53031738 4.07335449 55.53031738 3.125 54.6875 C2.48981445 54.1109668 1.85462891 53.53443359 1.20019531 52.94042969 C-0.60776516 51.30430399 -2.42585364 49.68054013 -4.25 48.0625 C-5.02601563 47.37414062 -5.80203125 46.68578125 -6.6015625 45.9765625 C-7.83974247 44.89124426 -9.08176652 43.81029129 -10.328125 42.734375 C-12.66105074 40.70491927 -14.95511245 38.634853 -17.25 36.5625 C-20.23062721 33.87266569 -23.22245233 31.19939636 -26.25 28.5625 C-30.14512811 25.16996907 -33.97782763 21.71055799 -37.8125 18.25 C-40.57951939 15.76677747 -43.37688693 13.32096186 -46.18359375 10.8828125 C-48.58814444 8.76462607 -50.94722704 6.5994237 -53.3125 4.4375 C-59.69596823 -1.85531946 -59.69596823 -1.85531946 -67.63671875 -5.29296875 C-71.12063976 -4.81907217 -72.59226063 -3.47250763 -75.25 -1.1875 Z " fill="#FD7400" transform="translate(948.25,101.9375)"/>
<path d="M0 0 C6.45604783 4.55721023 12.13527589 9.72554149 17.89453125 15.109375 C20.88640143 17.90598628 23.94605466 20.61332309 27.04296875 23.29296875 C29.3855915 25.33633431 31.69273422 27.41680859 34 29.5 C36.98062721 32.18983431 39.97245233 34.86310364 43 37.5 C46.81165518 40.8198287 50.56551705 44.20121138 54.3125 47.59375 C56.77557855 49.945313 56.77557855 49.945313 58.98498535 51.21156311 C62.77574414 53.79197531 64.72691327 55.72300492 65.70458984 60.29476929 C65.92678345 64.4785164 65.90091887 68.5925483 65.78125 72.77734375 C65.76631142 74.31430607 65.75493203 75.85130674 65.74694824 77.38832092 C65.71653891 81.41544524 65.63808123 85.44022633 65.54931641 89.46643066 C65.4527132 94.30687281 65.41629203 99.14810279 65.36968994 103.98923492 C65.29235436 111.32778154 65.13901442 118.66119702 65 126 C54.11 126 43.22 126 32 126 C31.93941406 123.01453125 31.87882813 120.0290625 31.81640625 116.953125 C31.75459152 114.06052176 31.69121431 111.16795667 31.62768555 108.27539062 C31.58438356 106.26565957 31.54270512 104.25589285 31.50268555 102.24609375 C31.44486835 99.35666152 31.38120676 96.46740802 31.31640625 93.578125 C31.29969376 92.68007141 31.28298126 91.78201782 31.26576233 90.85675049 C31.2358445 89.5958963 31.2358445 89.5958963 31.20532227 88.30957031 C31.18200584 87.20370575 31.18200584 87.20370575 31.15821838 86.07550049 C30.99640852 83.95288714 30.57589852 82.04586744 30 80 C26.925494 79.10913681 24.14000741 78.85373313 20.94360352 78.80712891 C19.93898575 78.79106598 18.93436798 78.77500305 17.89930725 78.75845337 C13.32732978 78.71387035 8.75549348 78.67297351 4.18334961 78.64990234 C1.7711423 78.63331242 -0.64101525 78.60598301 -3.05297852 78.56787109 C-6.53427577 78.51317485 -10.01442504 78.49124241 -13.49609375 78.4765625 C-14.57330185 78.45389313 -15.65050995 78.43122375 -16.76036072 78.40786743 C-21.36781187 78.42089759 -24.18336812 78.50408013 -28.17480469 80.92797852 C-30.72910111 85.22716416 -30.72870814 88.75412821 -30.70703125 93.67578125 C-30.72215256 94.6009404 -30.73727386 95.52609955 -30.75285339 96.47929382 C-30.79571967 99.42394402 -30.80456736 102.36756891 -30.8125 105.3125 C-30.83564513 107.31317828 -30.8610105 109.31383219 -30.88867188 111.31445312 C-30.95568117 116.21019312 -30.97665101 121.10307978 -31 126 C-41.89 126 -52.78 126 -64 126 C-64.60163214 109.34147452 -64.60163214 109.34147452 -64.73242188 102.15625 C-64.82160172 97.28034019 -64.9262085 92.40871278 -65.1315918 87.53613281 C-66.3006992 59.0721182 -66.3006992 59.0721182 -60.74584961 51.79907227 C-57.73307206 48.68616543 -54.4630387 46.25100742 -50.73997498 44.05104065 C-48.47493233 42.68283023 -46.60590247 41.0007953 -44.6875 39.1875 C-44.09324219 38.67574219 -43.49898437 38.16398437 -42.88671875 37.63671875 C-40.56341213 35.62126228 -38.28251535 33.56151538 -36 31.5 C-32.38323655 28.23609152 -28.73610392 25.01209051 -25.0625 21.8125 C-22.69035571 19.72788836 -20.34443935 17.61571356 -18 15.5 C-6.06456756 4.7379434 -6.06456756 4.7379434 0 0 Z " fill="#FD7400" transform="translate(880,114)"/>
<path d="M0 0 C6.51027927 -0.10205759 13.02034955 -0.17173938 19.53125 -0.21972656 C21.74259145 -0.23974747 23.95388058 -0.26697259 26.16503906 -0.30175781 C29.35755378 -0.35069627 32.54936396 -0.37306467 35.7421875 -0.390625 C37.20686966 -0.42159271 37.20686966 -0.42159271 38.70114136 -0.45318604 C46.04495032 -0.45554585 53.25380179 0.71027404 58.94577026 5.7086792 C64.14564318 11.283567 65.45160354 16.99173354 65.23828125 24.48046875 C64.64578193 30.74542058 62.789384 34.6066486 58.125 38.875 C55.2445762 41.20803699 52.61546324 42.98315096 49 44 C50.0725 44.639375 51.145 45.27875 52.25 45.9375 C59.86292791 51.51316551 60.83362789 60.87131783 62.51831055 69.6159668 C63.37907178 73.92532329 64.24578115 77.44814846 67 81 C70.07561246 82.35980881 70.07561246 82.35980881 73 83 C73 84.65 73 86.3 73 88 C69.89614789 88.11613204 66.79285338 88.18722029 63.6875 88.25 C62.80642578 88.28351563 61.92535156 88.31703125 61.01757812 88.3515625 C54.5741255 88.44956178 54.5741255 88.44956178 52.01953125 86.44921875 C50.6746874 83.2185019 49.77183015 79.96501827 49 76.5625 C48.83193848 75.85963867 48.66387695 75.15677734 48.49072266 74.43261719 C47.68138746 71.02772172 46.91358887 67.61432098 46.1484375 64.19921875 C45.89320313 63.06097656 45.63796875 61.92273438 45.375 60.75 C45.04628906 59.22632813 45.04628906 59.22632813 44.7109375 57.671875 C43.68933361 53.83244059 42.89915854 51.6388758 39.625 49.3125 C36.12521544 48.04533663 33.45651311 47.68460548 29.7734375 47.41796875 C28.69239746 47.33699951 27.61135742 47.25603027 26.49755859 47.17260742 C25.26126709 47.08716675 25.26126709 47.08716675 24 47 C24.11795429 51.82398914 24.24218018 56.64775958 24.37231445 61.47143555 C24.41572297 63.11364303 24.45739358 64.75589739 24.49731445 66.39819336 C24.5548744 68.75388745 24.61860892 71.10934428 24.68359375 73.46484375 C24.70030624 74.20339096 24.71701874 74.94193817 24.73423767 75.7028656 C24.53548013 79.14300627 24.53548013 79.14300627 26 82 C27.34747084 82.23075082 28.70377565 82.41153063 30.0625 82.5625 C31.361875 82.706875 32.66125 82.85125 34 83 C34 84.65 34 86.3 34 88 C22.78 88 11.56 88 0 88 C0 86.35 0 84.7 0 83 C2.05078125 82.77213542 4.1015625 82.54427083 6.15234375 82.31640625 C8.01140229 82.18113386 8.01140229 82.18113386 9 81 C9.09443335 78.69946165 9.11742128 76.39597827 9.11352539 74.09350586 C9.11367142 73.37159561 9.11381744 72.64968536 9.1139679 71.90589905 C9.11326869 69.50885053 9.10547595 67.11187877 9.09765625 64.71484375 C9.0957921 63.05717511 9.09436818 61.39950593 9.09336853 59.74183655 C9.08954312 55.37045786 9.07971265 50.99911219 9.06866455 46.62774658 C9.05845092 42.17045539 9.05387101 37.71315889 9.04882812 33.25585938 C9.0380904 24.50389107 9.02101371 15.75194964 9 7 C6.03 6.01 3.06 5.02 0 4 C0 2.68 0 1.36 0 0 Z M24 7 C24 18.22 24 29.44 24 41 C37.2386279 41.7834681 37.2386279 41.7834681 47.3125 35.875 C51.05713133 29.49525774 51.58838122 23.44479693 49.8125 16.296875 C48.25943939 11.90649212 46.2455711 9.10803977 41.91796875 6.97265625 C35.52929579 4.61091514 30.24988395 3.87505802 24 7 Z " fill="#FFFFFF" transform="translate(948,531)"/>
<path d="M0 0 C6.51027927 -0.10205759 13.02034955 -0.17173938 19.53125 -0.21972656 C21.74259145 -0.23974747 23.95388058 -0.26697259 26.16503906 -0.30175781 C29.35755378 -0.35069627 32.54936396 -0.37306467 35.7421875 -0.390625 C37.20686966 -0.42159271 37.20686966 -0.42159271 38.70114136 -0.45318604 C46.03733096 -0.4555434 53.30944434 0.68411329 58.94821167 5.75042725 C64.13433424 11.38867437 65.43086854 16.67120724 65.23828125 24.22265625 C64.59018344 31.77671437 61.83078716 35.74761654 56.1328125 40.65234375 C53.74384259 42.16185771 51.78117682 42.61722479 49 43 C49 43.66 49 44.32 49 45 C49.7425 45.226875 50.485 45.45375 51.25 45.6875 C54.66589932 47.31781559 55.88185222 48.86294281 58 52 C58.8292622 54.59947174 59.49600906 57.03677359 60.0625 59.6875 C60.39575665 61.11360415 60.73039175 62.53938688 61.06640625 63.96484375 C61.22512207 64.65433105 61.38383789 65.34381836 61.54736328 66.05419922 C63.31073005 75.15468134 63.31073005 75.15468134 69 82 C71.1381966 82.7872678 71.1381966 82.7872678 73 83 C73 84.65 73 86.3 73 88 C66.73 88 60.46 88 54 88 C49.50769231 80.13846154 49.50769231 80.13846154 48.65625 75.3125 C48.36427734 73.76949219 48.36427734 73.76949219 48.06640625 72.1953125 C47.68880208 70.06510417 47.31119792 67.93489583 46.93359375 65.8046875 C45.79517074 59.78838578 44.7087206 54.94496081 41 50 C37.25845442 48.09497592 33.84836938 47.64934304 29.6875 47.375 C28.61886719 47.30023437 27.55023438 47.22546875 26.44921875 47.1484375 C25.64097656 47.09945312 24.83273438 47.05046875 24 47 C24.11795429 51.82398914 24.24218018 56.64775958 24.37231445 61.47143555 C24.41572297 63.11364303 24.45739358 64.75589739 24.49731445 66.39819336 C24.5548744 68.75388745 24.61860892 71.10934428 24.68359375 73.46484375 C24.70030624 74.20339096 24.71701874 74.94193817 24.73423767 75.7028656 C24.53548013 79.14300627 24.53548013 79.14300627 26 82 C27.51469448 82.23192865 29.03754562 82.41215238 30.5625 82.5625 C31.80193359 82.68818359 31.80193359 82.68818359 33.06640625 82.81640625 C33.70449219 82.87699219 34.34257813 82.93757812 35 83 C35 84.65 35 86.3 35 88 C23.45 88 11.9 88 0 88 C0 86.35 0 84.7 0 83 C2.64 82.67 5.28 82.34 8 82 C9.98946225 77.84841484 10.24332273 74.49534927 10.22705078 69.91479492 C10.22734283 69.22156128 10.22763489 68.52832764 10.22793579 67.81408691 C10.22654897 65.53608426 10.21101867 63.25841385 10.1953125 60.98046875 C10.19158006 59.3957792 10.18873418 57.81108734 10.18673706 56.22639465 C10.17911877 52.06545587 10.15948588 47.90465779 10.1373291 43.74377441 C10.11683172 39.49391584 10.10772703 35.24403443 10.09765625 30.99414062 C10.0762382 22.66269601 10.04212416 14.33136553 10 6 C6.7 5.34 3.4 4.68 0 4 C0 2.68 0 1.36 0 0 Z M24 7 C24 18.22 24 29.44 24 41 C37.88196601 42.11803399 37.88196601 42.11803399 45 38 C49.18706349 33.69662919 50.76289454 29.56073899 51.3125 23.625 C50.85549445 18.32373563 49.44023639 14.04956717 46.375 9.6875 C39.63365699 4.89759839 31.50772323 3.24613839 24 7 Z " fill="#FFFFFF" transform="translate(85,531)"/>
<path d="M0 0 C6.51027927 -0.10205759 13.02034955 -0.17173938 19.53125 -0.21972656 C21.74259145 -0.23974747 23.95388058 -0.26697259 26.16503906 -0.30175781 C29.35755378 -0.35069627 32.54936396 -0.37306467 35.7421875 -0.390625 C37.20686966 -0.42159271 37.20686966 -0.42159271 38.70114136 -0.45318604 C46.40874084 -0.45566274 53.36974186 1.06367746 59.47265625 6 C59.99730469 6.66 60.52195312 7.32 61.0625 8 C61.88427734 8.99 61.88427734 8.99 62.72265625 10 C66.09591283 15.28167392 65.54266799 21.96863288 65 28 C63.29837304 34.17096044 59.33904806 38.57967234 54 42 C51.0625 42.875 51.0625 42.875 49 43 C49 43.66 49 44.32 49 45 C49.7425 45.226875 50.485 45.45375 51.25 45.6875 C55.86505341 47.89013913 57.85983753 51.19047268 59.5625 55.875 C61.25894608 61.32196741 62.1862291 66.93461124 63.15625 72.546875 C63.98870985 75.95379403 64.89614493 78.21021651 67 81 C70.07561246 82.35980881 70.07561246 82.35980881 73 83 C73 84.65 73 86.3 73 88 C66.73 88 60.46 88 54 88 C49.51270358 79.02540717 49.51270358 79.02540717 48.47265625 73.70703125 C48.23740234 72.58232422 48.00214844 71.45761719 47.75976562 70.29882812 C47.29281696 67.96408481 46.83193044 65.62812132 46.37695312 63.29101562 C44.69533231 54.91898938 44.69533231 54.91898938 39 49 C34.21460555 47.40486852 29.0268246 47.41890205 24 47 C24.33 58.22 24.66 69.44 25 81 C28.3 81.66 31.6 82.32 35 83 C35 84.65 35 86.3 35 88 C23.45 88 11.9 88 0 88 C0 86.35 0 84.7 0 83 C2.01822917 82.83723958 4.03645833 82.67447917 6.0546875 82.51171875 C8.39519216 82.12606964 8.39519216 82.12606964 10 79 C10.29219993 75.74173382 10.29219993 75.74173382 10.22705078 71.95825195 C10.22748886 70.88957886 10.22748886 70.88957886 10.22793579 69.79931641 C10.22654296 67.44551393 10.21098419 65.0920284 10.1953125 62.73828125 C10.1915822 61.10589267 10.18873531 59.47350185 10.18673706 57.84111023 C10.17910194 53.54533707 10.15945452 49.24969921 10.1373291 44.95397949 C10.11686805 40.57024974 10.10773479 36.18649812 10.09765625 31.80273438 C10.07620849 23.20176083 10.04207404 14.60089725 10 6 C6.7 5.34 3.4 4.68 0 4 C0 2.68 0 1.36 0 0 Z M24 7 C24 18.22 24 29.44 24 41 C37.29060464 41.81013849 37.29060464 41.81013849 47.25 36.25 C50.71876041 31.79016519 51.42074272 26.49759305 51.25 20.98046875 C50.49855232 15.02759416 47.65948827 10.62404644 43 7 C36.63454772 4.42701718 30.19740547 3.90129726 24 7 Z " fill="#FFFFFF" transform="translate(448,531)"/>
<path d="M0 0 C6.38623323 -0.07647595 12.77234702 -0.12877762 19.15893555 -0.16479492 C21.3285768 -0.17982036 23.49818798 -0.20024653 25.66772461 -0.22631836 C28.7980901 -0.26297706 31.9280517 -0.27978926 35.05859375 -0.29296875 C36.01833603 -0.30845261 36.97807831 -0.32393646 37.96690369 -0.33988953 C46.52439625 -0.34199658 54.14414312 1.20148417 60.55859375 7.19921875 C64.5965519 12.24393069 65.67507921 18.6992607 65 25 C63.62391769 31.06969638 61.57792911 35.62553441 57 40 C54.41317513 41.54344012 51.77399913 42.82982667 49 44 C49.81404297 44.61875 49.81404297 44.61875 50.64453125 45.25 C51.71767578 46.11625 51.71767578 46.11625 52.8125 47 C53.52019531 47.556875 54.22789063 48.11375 54.95703125 48.6875 C60.15697227 54.5734753 60.9938174 63.06283797 62.37304688 70.55273438 C63.33903888 75.31802549 64.44000992 78.46074773 68 82 C70.12946603 82.86965506 70.12946603 82.86965506 72 83 C72 84.65 72 86.3 72 88 C69.08110852 88.16216064 66.17120775 88.28091202 63.25 88.375 C62.425 88.42527344 61.6 88.47554687 60.75 88.52734375 C56.65331654 88.62645706 54.7119677 88.64808805 51.60546875 85.8203125 C48.3326371 79.50402715 47.66860424 71.7429167 46.37695312 64.83203125 C44.58014644 55.8966219 44.58014644 55.8966219 39 49 C35.68455701 47.89485234 32.79589889 47.67892369 29.3125 47.4375 C28.13300781 47.35371094 26.95351562 47.26992188 25.73828125 47.18359375 C24.38283203 47.09271484 24.38283203 47.09271484 23 47 C23.09372888 51.34200946 23.19986502 55.68348678 23.31738281 60.02490234 C23.35560666 61.50105536 23.39047103 62.97729943 23.421875 64.45361328 C23.46766986 66.57878094 23.52563837 68.70332542 23.5859375 70.828125 C23.63306885 72.7447998 23.63306885 72.7447998 23.68115234 74.70019531 C23.97420978 77.73309293 24.28644678 79.51366787 26 82 C28.67790463 82.83886169 31.1737941 82.81766414 34 83 C34 84.65 34 86.3 34 88 C22.78 88 11.56 88 0 88 C0 86.35 0 84.7 0 83 C4.455 82.01 4.455 82.01 9 81 C9 56.58 9 32.16 9 7 C6.03 6.01 3.06 5.02 0 4 C0 2.68 0 1.36 0 0 Z M24 7 C22.52094762 9.95810476 22.87809097 12.9547155 22.90234375 16.1953125 C22.9037587 16.90275604 22.90517365 17.61019958 22.90663147 18.33908081 C22.912234 20.60109669 22.92478682 22.86301398 22.9375 25.125 C22.94251468 26.65755065 22.94707764 28.19010286 22.95117188 29.72265625 C22.96220423 33.48180888 22.97947048 37.24088772 23 41 C25.40127635 41.0474382 27.8016048 41.08205332 30.203125 41.109375 C30.87875488 41.12403809 31.55438477 41.13870117 32.25048828 41.15380859 C38.0366351 41.20314237 41.27873211 40.26857008 46 37 C50.6532279 32.04656385 50.2795612 26.64362036 50.21484375 20.171875 C49.86676664 15.03299109 48.33047409 12.33047409 44.75 8.75 C38.8052645 4.9669865 30.24210523 2.67854253 24 7 Z " fill="#FFFFFF" transform="translate(1524,531)"/>
<path d="M0 0 C9.34477848 7.90560373 13.59596503 18.66219852 15.375 30.5625 C15.4575 31.820625 15.54 33.07875 15.625 34.375 C15.6765625 35.08269531 15.728125 35.79039062 15.78125 36.51953125 C16.33147562 50.34394983 13.05191777 65.39176611 3.4765625 75.77734375 C-5.71565818 83.70902784 -16.4764346 85.8677016 -28.29296875 85.625 C-39.4919155 84.71659367 -49.30973334 81.35603615 -56.6875 72.6875 C-65.7049479 60.53276904 -67.80691903 45.32694318 -65.875 30.55078125 C-64.05169316 18.86422636 -60.55511199 8.3631207 -51.375 0.375 C-36.41086935 -9.23431919 -15.0378172 -10.14044378 0 0 Z M-42.08203125 5.10546875 C-50.06459804 14.83604287 -50.56772016 26.41395318 -50.625 38.5 C-50.645625 39.56476562 -50.66625 40.62953125 -50.6875 41.7265625 C-50.73889683 52.31430975 -49.31415112 65.02478592 -41.73828125 73.125 C-35.69785809 78.575794 -30.45866642 79.85212862 -22.37890625 79.68359375 C-16.38306233 79.06763579 -12.27360649 76.60558533 -8.125 72.3125 C1.76278274 59.57660593 1.5400319 40.63194834 -0.375 25.375 C-1.85038263 16.54305433 -4.28987565 9.25586813 -10.875 3 C-20.26593155 -3.10410551 -33.99253355 -3.09509757 -42.08203125 5.10546875 Z " fill="#FFFFFF" transform="translate(239.375,535.625)"/>
<path d="M0 0 C10.89 0 21.78 0 33 0 C33 1.32 33 2.64 33 4 C30.69 4.33 28.38 4.66 26 5 C26.56910777 8.74917294 27.58382651 11.34828149 29.6171875 14.5390625 C30.14183594 15.36664062 30.66648437 16.19421875 31.20703125 17.046875 C32.03267578 18.32304688 32.03267578 18.32304688 32.875 19.625 C33.41769531 20.48351562 33.96039062 21.34203125 34.51953125 22.2265625 C37.84530335 27.44514892 37.84530335 27.44514892 42 32 C42.46055786 31.24493164 42.46055786 31.24493164 42.93041992 30.47460938 C44.34900146 28.14946766 45.76824738 25.82473214 47.1875 23.5 C47.67025391 22.70851563 48.15300781 21.91703125 48.65039062 21.1015625 C51.73624431 16.04821822 54.85066779 11.01403426 58 6 C56.03177114 4.03177114 52.65191291 4.33751619 50 4 C50 2.68 50 1.36 50 0 C59.24 0 68.48 0 78 0 C78 1.32 78 2.64 78 4 C77.443125 4.11214844 76.88625 4.22429688 76.3125 4.33984375 C64.02174097 7.51634059 57.82145779 20.1640591 51.24023438 30.16943359 C50.4364763 31.35576786 49.59526824 32.51789083 48.71289062 33.64697266 C47.37534807 35.32145667 47.37534807 35.32145667 46 38 C46.29859186 40.49986031 46.29859186 40.49986031 48 43 C48.37237793 43.62583984 48.74475586 44.25167969 49.12841797 44.89648438 C50.52952334 47.20492734 51.97754197 49.47834204 53.4375 51.75 C53.96666016 52.57822266 54.49582031 53.40644531 55.04101562 54.25976562 C56.14261492 55.98224253 57.24598964 57.70358518 58.35107422 59.42382812 C59.94588064 61.91544751 61.52378086 64.41699605 63.09765625 66.921875 C64.0647338 68.4481514 65.03216609 69.97420311 66 71.5 C66.44400146 72.21124023 66.88800293 72.92248047 67.34545898 73.65527344 C70.45267991 78.52162894 70.45267991 78.52162894 75 82 C78.65274469 82.72481084 78.65274469 82.72481084 82 83 C82 84.65 82 86.3 82 88 C70.12 88 58.24 88 46 88 C46 86.35 46 84.7 46 83 C48.97 83 51.94 83 55 83 C52.41814859 76.26432124 48.71014045 70.31660153 44.9375 64.1875 C44.30005859 63.13884766 43.66261719 62.09019531 43.00585938 61.00976562 C39.89204102 55.70607856 39.89204102 55.70607856 36 51 C33.5733864 55.09016503 31.15246692 59.18362402 28.73681641 63.28027344 C27.9138393 64.67410359 27.08929996 66.06701255 26.26318359 67.45898438 C25.07760561 69.45724547 23.89764254 71.45872689 22.71875 73.4609375 C22.34689575 74.08495453 21.9750415 74.70897156 21.59191895 75.35189819 C19.62806967 78.46543736 19.62806967 78.46543736 19 82 C21.97 82.33 24.94 82.66 28 83 C28 84.65 28 86.3 28 88 C18.1 88 8.2 88 -2 88 C-2 86.35 -2 84.7 -2 83 C-1.14728516 82.94005859 -1.14728516 82.94005859 -0.27734375 82.87890625 C3.24504621 82.40258974 6.06888467 81.90083515 8.68164062 79.37304688 C9.18888672 78.68275391 9.69613281 77.99246094 10.21875 77.28125 C10.81373291 76.47308838 11.40871582 75.66492676 12.02172852 74.83227539 C15.91537261 69.25777642 19.69360183 63.61295868 23.4375 57.9375 C24.27245939 56.67751757 25.10774373 55.41775042 25.94335938 54.15820312 C27.96598405 51.10793624 29.98422299 48.05479782 32 45 C28.01620258 37.52439918 23.79646555 30.24827561 19.3125 23.0625 C18.46075195 21.68481445 18.46075195 21.68481445 17.59179688 20.27929688 C14.61958685 15.44509687 14.61958685 15.44509687 11.31713867 10.83764648 C10 9 10 9 10 7 C6.7 6.01 3.4 5.02 0 4 C0 2.68 0 1.36 0 0 Z " fill="#FFFFFF" transform="translate(1254,531)"/>
<path d="M0 0 C6.24387037 -0.07453656 12.4874778 -0.12878447 18.73168945 -0.16479492 C20.85282914 -0.17981784 22.9739381 -0.20024211 25.0949707 -0.22631836 C28.15583919 -0.26298838 31.21629454 -0.27979175 34.27734375 -0.29296875 C35.6841465 -0.31619453 35.6841465 -0.31619453 37.11936951 -0.33988953 C46.44378431 -0.34223647 53.50052164 1.71905519 60.33984375 8.1640625 C65.41403064 13.77551623 66.32438598 20.08233173 66.20703125 27.34765625 C65.56418934 35.58331018 62.14226681 41.53883133 56 47 C46.81150483 53.67354067 34.82831931 53.11870265 24 53 C24.11798944 56.96952899 24.24221799 60.93880781 24.37231445 64.90795898 C24.41571223 66.25914147 24.4573837 67.61038053 24.49731445 68.96166992 C24.55489952 70.90036701 24.61914298 72.83886276 24.68359375 74.77734375 C24.72025146 75.94515381 24.75690918 77.11296387 24.79467773 78.31616211 C24.70076188 80.91779795 24.70076188 80.91779795 26 82 C27.51469448 82.23192865 29.03754562 82.41215238 30.5625 82.5625 C31.80193359 82.68818359 31.80193359 82.68818359 33.06640625 82.81640625 C33.70449219 82.87699219 34.34257813 82.93757812 35 83 C35 84.65 35 86.3 35 88 C23.45 88 11.9 88 0 88 C0 86.35 0 84.7 0 83 C2.05078125 82.77213542 4.1015625 82.54427083 6.15234375 82.31640625 C8.01140229 82.18113386 8.01140229 82.18113386 9 81 C9.09443335 78.69946165 9.11742128 76.39597827 9.11352539 74.09350586 C9.11367142 73.37159561 9.11381744 72.64968536 9.1139679 71.90589905 C9.11326869 69.50885053 9.10547595 67.11187877 9.09765625 64.71484375 C9.0957921 63.05717511 9.09436818 61.39950593 9.09336853 59.74183655 C9.08954312 55.37045786 9.07971265 50.99911219 9.06866455 46.62774658 C9.05845092 42.17045539 9.05387101 37.71315889 9.04882812 33.25585938 C9.0380904 24.50389107 9.02101371 15.75194964 9 7 C6.03 6.01 3.06 5.02 0 4 C0 2.68 0 1.36 0 0 Z M24 7 C24 20.2 24 33.4 24 47 C35.74447339 47.37259834 35.74447339 47.37259834 45.8203125 42.55859375 C50.60678011 37.57558037 52.01272782 32.21290717 51.9921875 25.4140625 C51.52819036 18.69619092 50.11601343 14.11601343 45.25 9.25 C38.569265 4.62487577 31.35607765 3.32196117 24 7 Z " fill="#FFFFFF" transform="translate(1350,531)"/>
<path d="M0 0 C20.79 0 41.58 0 63 0 C63 7.26 63 14.52 63 22 C61.35 22 59.7 22 58 22 C57.75765625 21.16855469 57.5153125 20.33710937 57.265625 19.48046875 C56.93046875 18.39378906 56.5953125 17.30710937 56.25 16.1875 C55.76273438 14.56908203 55.76273438 14.56908203 55.265625 12.91796875 C53.89142234 9.74966817 52.97986717 8.66100004 50 7 C46.94901058 6.049021 44.20258683 5.88291106 41.015625 5.90234375 C40.08105469 5.90556641 39.14648438 5.90878906 38.18359375 5.91210938 C36.73146484 5.92467773 36.73146484 5.92467773 35.25 5.9375 C33.77466797 5.94426758 33.77466797 5.94426758 32.26953125 5.95117188 C29.84629209 5.96293517 27.42317727 5.97937316 25 6 C23.5235764 8.9528472 23.77727061 11.68448983 23.68359375 14.9765625 C23.66281265 15.66181 23.64203156 16.3470575 23.62062073 17.05307007 C23.55519815 19.24361069 23.49627446 21.43427189 23.4375 23.625 C23.39430782 25.1093875 23.3506933 26.59376278 23.30664062 28.078125 C23.19952447 31.71862084 23.09823638 35.35925251 23 39 C26.25068154 38.88985294 29.50023328 38.75928788 32.75 38.625 C33.67039062 38.5940625 34.59078125 38.563125 35.5390625 38.53125 C36.87324219 38.47324219 36.87324219 38.47324219 38.234375 38.4140625 C39.05131836 38.3826416 39.86826172 38.3512207 40.70996094 38.31884766 C43.20496565 37.97146214 44.86462768 37.32369488 47 36 C48.11473134 34.06896092 48.11473134 34.06896092 48.75 31.875 C48.99234375 31.15054688 49.2346875 30.42609375 49.484375 29.6796875 C49.65453125 29.12539063 49.8246875 28.57109375 50 28 C51.32 28 52.64 28 54 28 C54 37.24 54 46.48 54 56 C52.68 56 51.36 56 50 56 C49.74605469 55.36191406 49.49210937 54.72382812 49.23046875 54.06640625 C48.88628906 53.24011719 48.54210938 52.41382813 48.1875 51.5625 C47.85105469 50.73878906 47.51460937 49.91507813 47.16796875 49.06640625 C46.11596912 46.66627512 46.11596912 46.66627512 43 46 C41.44733347 45.8535286 39.89004338 45.75305926 38.33203125 45.68359375 C36.99301758 45.62075195 36.99301758 45.62075195 35.62695312 45.55664062 C34.69818359 45.51732422 33.76941406 45.47800781 32.8125 45.4375 C31.87212891 45.39431641 30.93175781 45.35113281 29.96289062 45.30664062 C27.64207146 45.20061335 25.32114675 45.09854971 23 45 C23.09389298 49.18129125 23.20006401 53.36204036 23.31738281 57.54272461 C23.35555149 58.9635373 23.39042513 60.38444263 23.421875 61.80541992 C23.46779065 63.85368855 23.52573805 65.90132608 23.5859375 67.94921875 C23.63306885 69.79519653 23.63306885 69.79519653 23.68115234 71.6784668 C23.99030446 74.89899857 24.46945052 77.15944785 26 80 C34.15894607 83.72473625 44.69490718 82.91406765 53 80 C57.3140563 77.14160687 58.98480149 74.55423608 60.8125 69.75 C61.23144531 68.67234375 61.65039062 67.5946875 62.08203125 66.484375 C62.38496094 65.66453125 62.68789062 64.8446875 63 64 C64.32 64 65.64 64 67 64 C67.14593679 72.0913841 66.62414871 79.88606682 66 88 C44.22 88 22.44 88 0 88 C0 86.35 0 84.7 0 83 C2.05078125 82.77213542 4.1015625 82.54427083 6.15234375 82.31640625 C8.01140229 82.18113386 8.01140229 82.18113386 9 81 C9.09443335 78.69946165 9.11742128 76.39597827 9.11352539 74.09350586 C9.11367142 73.37159561 9.11381744 72.64968536 9.1139679 71.90589905 C9.11326869 69.50885053 9.10547595 67.11187877 9.09765625 64.71484375 C9.0957921 63.05717511 9.09436818 61.39950593 9.09336853 59.74183655 C9.08954312 55.37045786 9.07971265 50.99911219 9.06866455 46.62774658 C9.05845092 42.17045539 9.05387101 37.71315889 9.04882812 33.25585938 C9.0380904 24.50389107 9.02101371 15.75194964 9 7 C6.03 6.01 3.06 5.02 0 4 C0 2.68 0 1.36 0 0 Z " fill="#FFFFFF" transform="translate(1436,531)"/>
<path d="M0 0 C20.46 0 40.92 0 62 0 C62 7.26 62 14.52 62 22 C60.68 22 59.36 22 58 22 C57.731875 21.09636719 57.46375 20.19273437 57.1875 19.26171875 C56.5996875 17.49248047 56.5996875 17.49248047 56 15.6875 C55.62875 14.51574219 55.2575 13.34398437 54.875 12.13671875 C52.81350916 8.68801637 51.22825131 7.60910536 47.3984375 6.44604492 C42.77252676 5.58574984 38.18669322 5.69350741 33.5 5.8125 C30.035 5.874375 26.57 5.93625 23 6 C23 16.89 23 27.78 23 39 C26.238125 38.855625 29.47625 38.71125 32.8125 38.5625 C33.82932861 38.51939697 34.84615723 38.47629395 35.89379883 38.43188477 C36.69841553 38.39377686 37.50303223 38.35566895 38.33203125 38.31640625 C39.56530151 38.26141968 39.56530151 38.26141968 40.82348633 38.20532227 C43.17905178 38.06572228 43.17905178 38.06572228 46 37 C47.02281518 34.90280128 47.02281518 34.90280128 47.6875 32.4375 C47.93886719 31.61121094 48.19023438 30.78492188 48.44921875 29.93359375 C48.63097656 29.29550781 48.81273437 28.65742187 49 28 C50.65 28 52.3 28 54 28 C54 37.24 54 46.48 54 56 C52.35 56 50.7 56 49 56 C48.34 53.03 47.68 50.06 47 47 C43.85244392 46.21311098 41.41637213 45.82637567 38.234375 45.68359375 C37.34492187 45.64169922 36.45546875 45.59980469 35.5390625 45.55664062 C34.15847656 45.49766602 34.15847656 45.49766602 32.75 45.4375 C31.81414062 45.39431641 30.87828125 45.35113281 29.9140625 45.30664062 C27.60951359 45.2008195 25.30486161 45.09873443 23 45 C23.11829766 49.50253816 23.24254934 54.00485779 23.37231445 58.50708008 C23.41561833 60.03861018 23.45729667 61.57018715 23.49731445 63.10180664 C23.55512732 65.30369182 23.61878969 67.50534211 23.68359375 69.70703125 C23.70030624 70.39150833 23.71701874 71.07598541 23.73423767 71.78120422 C23.8273555 74.77120104 24.04687437 77.14062311 25 80 C33.42450254 83.63785337 44.33308713 83.1223791 52.90625 80.171875 C57.8806183 77.38771364 59.7488862 72.23331964 61.3125 67 C61.539375 66.01 61.76625 65.02 62 64 C63.65 64 65.3 64 67 64 C66.86116581 67.43782031 66.71272946 70.87516029 66.5625 74.3125 C66.52318359 75.28896484 66.48386719 76.26542969 66.44335938 77.27148438 C66.40146484 78.20927734 66.35957031 79.14707031 66.31640625 80.11328125 C66.27974854 80.97735596 66.24309082 81.84143066 66.20532227 82.73168945 C66 85 66 85 65 88 C43.55 88 22.1 88 0 88 C0 86.35 0 84.7 0 83 C4.455 82.505 4.455 82.505 9 82 C9.02313874 72.38614362 9.04092293 62.77229678 9.05181217 53.15841866 C9.05703764 48.6946324 9.06412921 44.23086516 9.07543945 39.76708984 C9.08628024 35.46179898 9.09227938 31.15652644 9.09487724 26.85122299 C9.09672933 25.20613186 9.10034584 23.56104177 9.10573006 21.9159584 C9.11295628 19.61728982 9.11399027 17.31869759 9.11352539 15.02001953 C9.115746 13.7098587 9.11796661 12.39969788 9.12025452 11.04983521 C9.21281471 8.08260724 9.21281471 8.08260724 8 6 C6.11235097 5.31527335 6.11235097 5.31527335 3.9375 4.875 C3.20402344 4.70742188 2.47054688 4.53984375 1.71484375 4.3671875 C1.14894531 4.24601563 0.58304688 4.12484375 0 4 C0 2.68 0 1.36 0 0 Z " fill="#FFFFFF" transform="translate(1169,531)"/>
<path d="M0 0 C20.46 0 40.92 0 62 0 C62 7.26 62 14.52 62 22 C60.68 22 59.36 22 58 22 C57.731875 21.09636719 57.46375 20.19273437 57.1875 19.26171875 C56.5996875 17.49248047 56.5996875 17.49248047 56 15.6875 C55.62875 14.51574219 55.2575 13.34398437 54.875 12.13671875 C52.6727399 8.45252113 51.32359765 7.66157895 47.33154297 6.45043945 C43.07083996 5.6272984 38.88680885 5.64892047 34.5625 5.75 C33.65306641 5.75515625 32.74363281 5.7603125 31.80664062 5.765625 C27.57339037 5.44276516 27.57339037 5.44276516 24 7 C23.84028023 9.37338639 23.7407567 11.72118272 23.68359375 14.09765625 C23.66281265 14.80651474 23.64203156 15.51537323 23.62062073 16.24571228 C23.55505402 18.51787305 23.4962077 20.79015264 23.4375 23.0625 C23.39432151 24.59962183 23.35070745 26.1367315 23.30664062 27.67382812 C23.19936551 31.4490959 23.09811863 35.2244836 23 39 C26.25068154 38.88985294 29.50023328 38.75928788 32.75 38.625 C33.67039062 38.5940625 34.59078125 38.563125 35.5390625 38.53125 C36.87324219 38.47324219 36.87324219 38.47324219 38.234375 38.4140625 C39.05131836 38.3826416 39.86826172 38.3512207 40.70996094 38.31884766 C43.20423029 37.97156452 44.86931668 37.3310839 47 36 C47.90609992 34.06018382 47.90609992 34.06018382 48.25 31.875 C48.4975 30.59625 48.745 29.3175 49 28 C50.65 28 52.3 28 54 28 C54 37.24 54 46.48 54 56 C52.35 56 50.7 56 49 56 C48.34 53.03 47.68 50.06 47 47 C43.85244392 46.21311098 41.41637213 45.82637567 38.234375 45.68359375 C37.34492187 45.64169922 36.45546875 45.59980469 35.5390625 45.55664062 C34.15847656 45.49766602 34.15847656 45.49766602 32.75 45.4375 C31.81414062 45.39431641 30.87828125 45.35113281 29.9140625 45.30664062 C27.60951359 45.2008195 25.30486161 45.09873443 23 45 C23.11829766 49.50253816 23.24254934 54.00485779 23.37231445 58.50708008 C23.41561833 60.03861018 23.45729667 61.57018715 23.49731445 63.10180664 C23.55512732 65.30369182 23.61878969 67.50534211 23.68359375 69.70703125 C23.70030624 70.39150833 23.71701874 71.07598541 23.73423767 71.78120422 C23.8273555 74.77120104 24.04687437 77.14062311 25 80 C33.42450254 83.63785337 44.33308713 83.1223791 52.90625 80.171875 C57.8806183 77.38771364 59.7488862 72.23331964 61.3125 67 C61.539375 66.01 61.76625 65.02 62 64 C63.65 64 65.3 64 67 64 C66.86152362 67.62532066 66.71297357 71.25015904 66.5625 74.875 C66.52318359 75.90753906 66.48386719 76.94007813 66.44335938 78.00390625 C66.40146484 78.99003906 66.35957031 79.97617187 66.31640625 80.9921875 C66.27974854 81.90339355 66.24309082 82.81459961 66.20532227 83.75341797 C66 86 66 86 65 88 C43.55 88 22.1 88 0 88 C0 86.35 0 84.7 0 83 C4.455 82.505 4.455 82.505 9 82 C9.02313874 72.38614362 9.04092293 62.77229678 9.05181217 53.15841866 C9.05703764 48.6946324 9.06412921 44.23086516 9.07543945 39.76708984 C9.08628024 35.46179898 9.09227938 31.15652644 9.09487724 26.85122299 C9.09672933 25.20613186 9.10034584 23.56104177 9.10573006 21.9159584 C9.11295628 19.61728982 9.11399027 17.31869759 9.11352539 15.02001953 C9.115746 13.7098587 9.11796661 12.39969788 9.12025452 11.04983521 C9.21281471 8.08260724 9.21281471 8.08260724 8 6 C6.11235097 5.31527335 6.11235097 5.31527335 3.9375 4.875 C3.20402344 4.70742188 2.47054688 4.53984375 1.71484375 4.3671875 C1.14894531 4.24601563 0.58304688 4.12484375 0 4 C0 2.68 0 1.36 0 0 Z " fill="#FFFFFF" transform="translate(1039,531)"/>
<path d="M0 0 C20.79 0 41.58 0 63 0 C63 7.26 63 14.52 63 22 C61.35 21.67 59.7 21.34 58 21 C57.84144531 20.32453125 57.68289063 19.6490625 57.51953125 18.953125 C56.02820797 13.1817276 56.02820797 13.1817276 52.5625 8.4375 C48.66521907 6.25122045 45.45059121 5.87530127 41.015625 5.90234375 C40.17290039 5.90484131 39.33017578 5.90733887 38.46191406 5.90991211 C37.40198242 5.91901611 36.34205078 5.92812012 35.25 5.9375 C30.17625 5.9684375 30.17625 5.9684375 25 6 C24.67 16.89 24.34 27.78 24 39 C27.2175 38.855625 30.435 38.71125 33.75 38.5625 C34.75772461 38.51939697 35.76544922 38.47629395 36.80371094 38.43188477 C38.00688965 38.3747229 38.00688965 38.3747229 39.234375 38.31640625 C40.05131836 38.27974854 40.86826172 38.24309082 41.70996094 38.20532227 C44.31267611 38.03157467 44.31267611 38.03157467 48 37 C48.66 34.03 49.32 31.06 50 28 C51.32 28 52.64 28 54 28 C54 37.24 54 46.48 54 56 C52.68 56 51.36 56 50 56 C49.82984375 55.44570313 49.6596875 54.89140625 49.484375 54.3203125 C49.24203125 53.59585938 48.9996875 52.87140625 48.75 52.125 C48.40195312 51.04605469 48.40195312 51.04605469 48.046875 49.9453125 C46.7038301 47.44965444 45.60002233 47.0596922 43 46 C40.78395837 45.63991339 40.78395837 45.63991339 38.453125 45.5859375 C37.60878906 45.54726563 36.76445312 45.50859375 35.89453125 45.46875 C34.58548828 45.42234375 34.58548828 45.42234375 33.25 45.375 C32.36183594 45.33632813 31.47367187 45.29765625 30.55859375 45.2578125 C28.3726002 45.16379127 26.18660938 45.07813857 24 45 C24.06884472 49.64530679 24.15679304 54.28971059 24.26245117 58.93432617 C24.29570188 60.51430243 24.32373346 62.09439752 24.34643555 63.67456055 C24.37998016 65.94631579 24.43229227 68.21698203 24.48828125 70.48828125 C24.49467117 71.19463211 24.5010611 71.90098297 24.50764465 72.6287384 C24.59476702 75.53569114 24.65947848 77.5266637 26.38647461 79.92724609 C32.48301634 83.98053772 43.08570167 82.52906721 49.9375 81.3125 C54.19267948 80.17573725 56.38448676 78.66171854 59 75 C60.54387431 71.39424092 61.82708605 67.74152998 63 64 C64.65 64 66.3 64 68 64 C67.8583467 66.87526069 67.71181468 69.75013536 67.5625 72.625 C67.52318359 73.43324219 67.48386719 74.24148438 67.44335938 75.07421875 C67.40146484 75.86699219 67.35957031 76.65976562 67.31640625 77.4765625 C67.27974854 78.19924316 67.24309082 78.92192383 67.20532227 79.66650391 C66.95931043 82.4624387 66.46142474 85.23145157 66 88 C44.22 88 22.44 88 0 88 C0 86.35 0 84.7 0 83 C4.95 82.505 4.95 82.505 10 82 C10.0231687 72.68145282 10.04093822 63.36291555 10.05181217 54.04434586 C10.05703107 49.71737908 10.06411074 45.390432 10.07543945 41.06347656 C10.08630355 36.88785356 10.09228433 32.71224951 10.09487724 28.53661346 C10.09672513 26.94341483 10.10033355 25.35021724 10.10573006 23.75702667 C10.1129872 21.52582048 10.11398896 19.29469266 10.11352539 17.06347656 C10.115746 15.79328674 10.11796661 14.52309692 10.12025452 13.2144165 C10.10433571 9.83340004 10.10433571 9.83340004 9 6 C4.545 5.01 4.545 5.01 0 4 C0 2.68 0 1.36 0 0 Z " fill="#FFFFFF" transform="translate(360,531)"/>
<path d="M0 0 C6.06481249 -0.09961787 12.12913826 -0.17182006 18.19458008 -0.21972656 C20.25358386 -0.23971846 22.31253177 -0.26692128 24.37133789 -0.30175781 C36.69581315 -0.50492492 46.88925504 -0.58433411 57.875 5.625 C64.13983014 12.62686898 65.72267523 19.42822526 65.359375 28.72265625 C64.65356369 35.15934855 62.65655327 40.34344673 58 45 C46.9387026 53.14793641 36.67451411 53 23 53 C23.495 67.355 23.495 67.355 24 82 C27.63 82.33 31.26 82.66 35 83 C35 84.65 35 86.3 35 88 C23.45 88 11.9 88 0 88 C0 86.35 0 84.7 0 83 C4.455 82.505 4.455 82.505 9 82 C9 56.92 9 31.84 9 6 C4.545 5.01 4.545 5.01 0 4 C0 2.68 0 1.36 0 0 Z M23 7 C23 20.2 23 33.4 23 47 C35.45814596 47.16175998 35.45814596 47.16175998 45.875 41.8125 C50.90145052 35.1598449 52.05350932 28.24078398 51 20 C49.40699722 14.38166761 47.21411451 9.96256506 42 7 C35.48409338 4.62183155 29.34100132 3.82949934 23 7 Z " fill="#FFFFFF" transform="translate(0,531)"/>
<path d="M0 0 C6.06481249 -0.09961787 12.12913826 -0.17182006 18.19458008 -0.21972656 C20.25358386 -0.23971846 22.31253177 -0.26692128 24.37133789 -0.30175781 C36.69581315 -0.50492492 46.88925504 -0.58433411 57.875 5.625 C64.28066104 12.78426822 65.84145546 19.85506933 65.4765625 29.37109375 C64.52685605 36.60287482 61.87768507 41.83596967 56.1875 46.4375 C45.68049866 53.41588363 35.56101754 53 23 53 C23.495 67.355 23.495 67.355 24 82 C27.63 82.33 31.26 82.66 35 83 C35 84.65 35 86.3 35 88 C23.45 88 11.9 88 0 88 C0 86.35 0 84.7 0 83 C4.455 82.505 4.455 82.505 9 82 C9.02313874 72.38614362 9.04092293 62.77229678 9.05181217 53.15841866 C9.05703764 48.6946324 9.06412921 44.23086516 9.07543945 39.76708984 C9.08628024 35.46179898 9.09227938 31.15652644 9.09487724 26.85122299 C9.09672933 25.20613186 9.10034584 23.56104177 9.10573006 21.9159584 C9.11295628 19.61728982 9.11399027 17.31869759 9.11352539 15.02001953 C9.115746 13.7098587 9.11796661 12.39969788 9.12025452 11.04983521 C9.21281471 8.08260724 9.21281471 8.08260724 8 6 C6.11235097 5.31527335 6.11235097 5.31527335 3.9375 4.875 C3.20402344 4.70742188 2.47054688 4.53984375 1.71484375 4.3671875 C1.14894531 4.24601563 0.58304687 4.12484375 0 4 C0 2.68 0 1.36 0 0 Z M24 6 C22.33422375 9.33155251 22.87992144 13.06536059 22.90234375 16.7265625 C22.9037587 17.58937836 22.90517365 18.45219421 22.90663147 19.34115601 C22.91223812 22.1024723 22.92479173 24.86370812 22.9375 27.625 C22.94251414 29.4947905 22.9470772 31.36458226 22.95117188 33.234375 C22.96220971 37.82294777 22.9794788 42.41146023 23 47 C24.73164543 47.03234776 26.46346913 47.0552236 28.1953125 47.07421875 C29.15969238 47.08799561 30.12407227 47.10177246 31.11767578 47.1159668 C36.87277314 46.88441748 41.35551825 45.28698572 45.875 41.75 C51.25480693 34.78789692 51.8270662 28.63824701 51 20 C50.07705176 15.3237289 48.58037363 12.62086481 45.3125 9.125 C38.91619063 5.0217072 31.36705837 3.54431388 24 6 Z " fill="#FFFFFF" transform="translate(275,531)"/>
<path d="M0 0 C0.66 -0.99 1.32 -1.98 2 -3 C3.32 -3 4.64 -3 6 -3 C6.495 9.375 6.495 9.375 7 22 C5.35 22 3.7 22 2 22 C1.84144531 21.34773437 1.68289063 20.69546875 1.51953125 20.0234375 C-0.188463 13.62553638 -1.95469658 8.61596288 -7.7578125 4.86328125 C-10.72584429 3.7205373 -13.26255021 3.69851139 -16.4375 3.6875 C-17.54996094 3.67074219 -18.66242188 3.65398438 -19.80859375 3.63671875 C-23.35972732 4.04094815 -25.18304185 4.83004637 -28 7 C-31.4453482 11.79689958 -31.17737842 16.91181894 -30.32421875 22.5078125 C-26.56191351 29.58849316 -17.97050774 32.63163845 -10.9375 35.5625 C-1.57098604 39.49039295 5.46573175 43.21027985 11 52 C13.23687415 58.71062245 13.39097689 69.1500699 10.4375 75.625 C5.7385755 83.09381684 -1.04564378 86.62886805 -9.42578125 88.55859375 C-17.45238305 89.93493063 -24.69642306 88.86522713 -32.46875 86.65625 C-35.04817577 85.87451892 -35.04817577 85.87451892 -38 86 C-38.495 86.99 -38.495 86.99 -39 88 C-40.65 88 -42.3 88 -44 88 C-45.06996173 78.98175113 -45.10234659 70.06335876 -45 61 C-43.68 61 -42.36 61 -41 61 C-40.731875 61.78503906 -40.46375 62.57007813 -40.1875 63.37890625 C-37.00133879 71.92075292 -33.39497213 76.73462213 -25.625 81.4375 C-20.12241658 82.61662502 -14.95205593 82.68683449 -9.625 80.8125 C-6.16263874 78.42182199 -3.87971195 75.7594239 -2 72 C-1.85207127 70.23338962 -1.7787831 68.46005936 -1.75 66.6875 C-1.71132812 65.27017578 -1.71132812 65.27017578 -1.671875 63.82421875 C-2.06387653 60.45020562 -2.95955495 58.70245611 -5 56 C-9.95185678 52.10925539 -15.84858223 49.56556918 -21.5625 47 C-30.06788415 43.1475613 -37.65415815 38.88511672 -43 31 C-45.17647345 24.47057966 -45.3118035 14.86087272 -42.5625 8.4375 C-39.2063998 2.97491138 -33.53519318 0.09361274 -27.8125 -2.375 C-18.15207984 -3.95867544 -9.15129091 -3.54243519 0 0 Z " fill="#FFFFFF" transform="translate(1742,532)"/>
<path d="M0 0 C2.97 0 5.94 0 9 0 C13.81959269 12.71977156 18.55459992 25.46636591 23.1484375 38.26953125 C23.57747375 39.46238739 24.00651001 40.65524353 24.44854736 41.88424683 C28.03757066 51.86318149 28.03757066 51.86318149 29.72314453 56.59350586 C31.02390206 60.23832206 32.33519099 63.87919954 33.6484375 67.51953125 C34.04219574 68.63181595 34.43595398 69.74410065 34.84164429 70.89009094 C35.21278351 71.91354111 35.58392273 72.93699127 35.96630859 73.99145508 C36.28779877 74.88947342 36.60928894 75.78749176 36.94052124 76.71272278 C38.03010955 79.06500261 38.98315399 80.3901302 41 82 C43.60611077 82.72197162 43.60611077 82.72197162 46 83 C46 84.65 46 86.3 46 88 C35.77 88 25.54 88 15 88 C15 86.35 15 84.7 15 83 C17.64 83 20.28 83 23 83 C22.39802244 76.81913185 20.55172878 71.37937768 18.4375 65.5625 C16.7359375 60.8290625 16.7359375 60.8290625 15 56 C5.43 55.67 -4.14 55.34 -14 55 C-14.66 57.97 -15.32 60.94 -16 64 C-17.24088299 67.6587247 -18.60234683 71.25298631 -19.9765625 74.86328125 C-21.20678896 78.08387467 -21.20678896 78.08387467 -21 82 C-17.535 82.495 -17.535 82.495 -14 83 C-14 84.65 -14 86.3 -14 88 C-21.92 88 -29.84 88 -38 88 C-38 86.35 -38 84.7 -38 83 C-36.92250488 82.84080078 -35.84500977 82.68160156 -34.73486328 82.51757812 C-32.41295446 81.83877768 -31.29488906 81.40039065 -29.84759521 79.43530273 C-28.84044947 77.22966245 -28.02523266 75.01381173 -27.2421875 72.71875 C-26.91870331 71.84448364 -26.59521912 70.97021729 -26.26193237 70.06945801 C-25.54380826 68.11961934 -24.83815751 66.1651558 -24.14294434 64.20703125 C-22.93550529 60.81903182 -21.68752705 57.44808816 -20.43066406 54.078125 C-17.63285279 46.56270023 -14.87636874 39.03249798 -12.125 31.5 C-10.70317972 27.60908981 -9.28040048 23.71853708 -7.85421753 19.82922363 C-6.97493662 17.4305579 -6.09782515 15.03109549 -5.22317505 12.6307373 C-4.63148026 11.01624695 -4.63148026 11.01624695 -4.02783203 9.36914062 C-3.51109421 7.95405212 -3.51109421 7.95405212 -2.98391724 6.51037598 C-2 4 -2 4 0 0 Z M0 16 C-1.57058493 20.37682832 -3.13705846 24.75509751 -4.69970703 29.13476562 C-5.23210143 30.62508016 -5.76562555 32.11499161 -6.30029297 33.60449219 C-7.06774099 35.74309502 -7.83114081 37.88310517 -8.59375 40.0234375 C-8.83436157 40.69120209 -9.07497314 41.35896667 -9.32287598 42.04696655 C-10.58122206 45.43974167 -10.58122206 45.43974167 -11 49 C-3.08 49 4.84 49 13 49 C7.58420513 32.27814824 7.58420513 32.27814824 1 16 C0.67 16 0.34 16 0 16 Z " fill="#FFFFFF" transform="translate(885,531)"/>
<path d="M0 0 C2.67843448 0.84873959 3.87086147 0.7951278 6.453125 -0.22265625 C6.783125 -0.55265625 7.113125 -0.88265625 7.453125 -1.22265625 C9.103125 -1.22265625 10.753125 -1.22265625 12.453125 -1.22265625 C12.948125 10.65734375 12.948125 10.65734375 13.453125 22.77734375 C11.803125 22.77734375 10.153125 22.77734375 8.453125 22.77734375 C8.1128125 21.98070312 7.7725 21.1840625 7.421875 20.36328125 C4.22733872 13.37948118 1.32085392 8.4821101 -5.546875 4.77734375 C-12.05328182 2.60854148 -21.68127391 2.427262 -28.046875 5.27734375 C-36.69195445 10.65232793 -40.77110036 18.86704358 -43.23046875 28.4375 C-46.17741963 42.56254041 -45.07592854 57.76319314 -38.0625 70.5859375 C-34.0498032 76.38780066 -29.3705107 79.97183517 -22.546875 81.77734375 C-13.77017064 82.61581303 -5.98489502 82.37002663 1.078125 76.65234375 C4.18689085 72.88910087 6.84157465 68.89659328 9.453125 64.77734375 C11.433125 65.27234375 11.433125 65.27234375 13.453125 65.77734375 C13.11975156 72.4448126 9.47400468 76.6928666 4.96875 81.29296875 C-2.66797694 88.10854225 -11.46003288 89.11786697 -21.265625 88.984375 C-32.45296218 88.2785073 -42.44331399 85.02077804 -50.421875 76.859375 C-59.93211778 64.94779591 -61.65399022 50.54952535 -60.546875 35.77734375 C-59.43768568 27.29377855 -57.52358104 19.80728097 -52.546875 12.77734375 C-52.05445313 12.07996094 -51.56203125 11.38257813 -51.0546875 10.6640625 C-45.42226764 3.50900282 -37.19836885 -1.42105516 -28.1796875 -2.97265625 C-18.08667057 -3.93104361 -9.50488394 -3.94266834 0 0 Z " fill="#FFFFFF" transform="translate(816.546875,532.22265625)"/>
<path d="M0 0 C10.56 0 21.12 0 32 0 C32 1.32 32 2.64 32 4 C29.69 4.33 27.38 4.66 25 5 C25 8.83249876 26.27329189 10.98060619 27.95703125 14.42578125 C28.26066086 15.05099167 28.56429047 15.67620209 28.87712097 16.32035828 C29.85010409 18.32046309 30.83120174 20.31646379 31.8125 22.3125 C32.46211927 23.64492367 33.11121373 24.97760334 33.75976562 26.31054688 C36.47754379 31.88825831 39.21909746 37.45345436 42 43 C46.41880139 34.27076019 50.76582142 25.50792771 55 16.6875 C55.39759521 15.86983154 55.79519043 15.05216309 56.20483398 14.2097168 C56.57036377 13.44312744 56.93589355 12.67653809 57.3125 11.88671875 C57.63863281 11.20826904 57.96476563 10.52981934 58.30078125 9.83081055 C59.17839131 7.85953783 59.17839131 7.85953783 59 5 C56.36 4.67 53.72 4.34 51 4 C51 2.68 51 1.36 51 0 C59.91 0 68.82 0 78 0 C78 1.32 78 2.64 78 4 C77.37351562 4.08636719 76.74703125 4.17273438 76.1015625 4.26171875 C75.28429687 4.40222656 74.46703125 4.54273438 73.625 4.6875 C72.81289063 4.81511719 72.00078125 4.94273437 71.1640625 5.07421875 C68.80602987 5.80715329 68.80602987 5.80715329 67.921875 8.15625 C67.61765625 9.0946875 67.3134375 10.033125 67 11 C66.20563562 12.63964956 65.40899706 14.2783628 64.58789062 15.90478516 C63.91815149 17.23169733 63.25872949 18.56384665 62.60742188 19.89990234 C60.51061851 24.16520262 58.26467339 28.26437824 55.8046875 32.33203125 C46.1703245 48.88639253 45.50430465 62.36133481 47 81 C49.29629994 82.14814997 51.07698086 82.30769809 53.625 82.5625 C54.44226563 82.64628906 55.25953125 82.73007812 56.1015625 82.81640625 C56.72804688 82.87699219 57.35453125 82.93757812 58 83 C58 84.65 58 86.3 58 88 C45.79 88 33.58 88 21 88 C21 86.35 21 84.7 21 83 C21.62648438 82.96261719 22.25296875 82.92523437 22.8984375 82.88671875 C23.71570313 82.82097656 24.53296875 82.75523437 25.375 82.6875 C26.18710937 82.62949219 26.99921875 82.57148437 27.8359375 82.51171875 C30.37921338 82.17009472 30.37921338 82.17009472 32 79 C36.15293861 58.75633177 28.80362939 43.95791546 18.86328125 27.21923828 C17.2050693 24.35430343 15.70751495 21.48136404 14.28125 18.49609375 C13.89702881 17.70017822 13.51280762 16.9042627 13.11694336 16.08422852 C12.44378942 14.67386269 11.78426475 13.25685537 11.14282227 11.83178711 C9.27208965 8.09181092 7.55664987 6.51884295 3.74609375 5.0703125 C2.50988281 4.71710937 1.27367187 4.36390625 0 4 C0 2.68 0 1.36 0 0 Z " fill="#FFFFFF" transform="translate(618,531)"/>
<path d="M0 0 C23.76 0 47.52 0 72 0 C72 7.26 72 14.52 72 22 C70.35 22 68.7 22 67 22 C66.82984375 21.25234375 66.6596875 20.5046875 66.484375 19.734375 C66.24203125 18.74953125 65.9996875 17.7646875 65.75 16.75 C65.51796875 15.77546875 65.2859375 14.8009375 65.046875 13.796875 C63.854242 10.61058685 62.65057493 9.10885159 60 7 C54.46461177 5.61615294 48.68894123 5.43761086 43 5 C43.33 30.08 43.66 55.16 44 81 C46.29629994 82.14814997 48.07698086 82.30769809 50.625 82.5625 C51.44226563 82.64628906 52.25953125 82.73007812 53.1015625 82.81640625 C53.72804688 82.87699219 54.35453125 82.93757812 55 83 C55 84.65 55 86.3 55 88 C42.46 88 29.92 88 17 88 C17 86.35 17 84.7 17 83 C17.71027344 82.93941406 18.42054688 82.87882813 19.15234375 82.81640625 C20.07144531 82.73261719 20.99054687 82.64882813 21.9375 82.5625 C22.85402344 82.48128906 23.77054688 82.40007812 24.71484375 82.31640625 C26.96159732 82.23955024 26.96159732 82.23955024 28 81 C28.12486954 78.62798453 28.18600052 76.28359657 28.20532227 73.90991211 C28.22017166 72.79778603 28.22017166 72.79778603 28.23532104 71.66319275 C28.26702466 69.20127607 28.29172826 66.73934007 28.31640625 64.27734375 C28.33696814 62.57482895 28.3579644 60.87231935 28.37937927 59.16981506 C28.43467899 54.68012691 28.48405328 50.19039208 28.53222656 45.70062256 C28.58238406 41.12263822 28.63810008 36.54472197 28.69335938 31.96679688 C28.80103751 22.9779227 28.90246088 13.9889895 29 5 C26.91892981 5.13818577 24.83827382 5.28261892 22.7578125 5.4296875 C21.59910645 5.50944824 20.44040039 5.58920898 19.24658203 5.67138672 C15.01512833 6.09968697 12.57047191 6.67143136 9 9 C7.07048123 12.27988785 7.07048123 12.27988785 6 16 C5.608125 17.134375 5.21625 18.26875 4.8125 19.4375 C4.544375 20.283125 4.27625 21.12875 4 22 C2.68 22 1.36 22 0 22 C0 14.74 0 7.48 0 0 Z " fill="#FFFFFF" transform="translate(531,531)"/>
<path d="M0 0 C24.09 0 48.18 0 73 0 C73 7.26 73 14.52 73 22 C71.35 22 69.7 22 68 22 C67.63648438 20.75283203 67.63648438 20.75283203 67.265625 19.48046875 C66.76289062 17.85044922 66.76289062 17.85044922 66.25 16.1875 C65.76273438 14.56908203 65.76273438 14.56908203 65.265625 12.91796875 C63.89888361 9.76687055 62.93743826 8.68734526 60 7 C54.58705256 5.19568419 48.69124757 5.40651768 43 5 C43.33 30.41 43.66 55.82 44 82 C47.96 82.33 51.92 82.66 56 83 C56 84.65 56 86.3 56 88 C43.13 88 30.26 88 17 88 C17 86.35 17 84.7 17 83 C22.94 82.505 22.94 82.505 29 82 C29.33 56.59 29.66 31.18 30 5 C16.97712125 5.03349964 16.97712125 5.03349964 10 9 C7.40327702 13.08056469 6.20589984 17.36192368 5 22 C3.35 22 1.7 22 0 22 C0 14.74 0 7.48 0 0 Z " fill="#FFFFFF" transform="translate(1606,531)"/>
<path d="M0 0 C10.89 0 21.78 0 33 0 C33 10.89 33 21.78 33 33 C22.11 33 11.22 33 0 33 C0 22.11 0 11.22 0 0 Z " fill="#FD7400" transform="translate(864,207)"/>
<path d="M0 0 C3.85410207 -0.05847045 7.70808865 -0.09375405 11.5625 -0.125 C12.64853516 -0.14175781 13.73457031 -0.15851562 14.85351562 -0.17578125 C27.94859461 -0.25538659 27.94859461 -0.25538659 33.875 4.125 C36.57142511 7.77310457 37.29111903 10.49621733 37 15 C35.43034822 20.23217261 33.51861269 22.94688332 29 26 C29.92039062 26.71929688 29.92039062 26.71929688 30.859375 27.453125 C33.79996688 30.95178542 34.35811482 34.34174785 35.25 38.75 C35.42273437 39.54277344 35.59546875 40.33554687 35.7734375 41.15234375 C36.19554648 43.09873515 36.59958271 45.04903064 37 47 C38.32 47.33 39.64 47.66 41 48 C41 48.99 41 49.98 41 51 C37.37 51 33.74 51 30 51 C26.95035505 45.91725842 25.96590578 40.71690662 24.84375 34.92578125 C23.83452796 31.25311426 23.83452796 31.25311426 21 29 C18.36 28.67 15.72 28.34 13 28 C13.33 33.94 13.66 39.88 14 46 C15.65 46.66 17.3 47.32 19 48 C19 48.99 19 49.98 19 51 C12.73 51 6.46 51 0 51 C0 50.01 0 49.02 0 48 C2.475 47.505 2.475 47.505 5 47 C4.505 26.21 4.505 26.21 4 5 C2.68 4.67 1.36 4.34 0 4 C0 2.68 0 1.36 0 0 Z M13 5 C12.91348389 6.41570123 12.89295096 7.835595 12.90234375 9.25390625 C12.90556641 10.10791016 12.90878906 10.96191406 12.91210938 11.84179688 C12.92048828 12.73962891 12.92886719 13.63746094 12.9375 14.5625 C12.94201172 15.46419922 12.94652344 16.36589844 12.95117188 17.29492188 C12.96299775 19.53001314 12.9794778 21.76497437 13 24 C19.98625892 24.29862613 19.98625892 24.29862613 26 21 C28.45928744 17.31106884 28.69305579 14.28358579 28 10 C25.8755173 6.55687286 24.85147359 5.28382453 21 4 C16.68645991 3.46370408 16.68645991 3.46370408 13 5 Z " fill="#FFFFFF" transform="translate(1244,705)"/>
<path d="M0 0 C3.83318619 -0.08789644 7.66610928 -0.14069087 11.5 -0.1875 C13.11648438 -0.22520508 13.11648438 -0.22520508 14.765625 -0.26367188 C22.29275236 -0.33251755 28.15651073 0.2405718 34.4375 4.75 C37.33061062 8.91607929 37.19537064 12.74094478 36.4375 17.625 C34.62289514 21.88537662 32.72010844 23.33122655 29 26 C29.61359375 26.65355469 30.2271875 27.30710937 30.859375 27.98046875 C33.47795584 31.67419684 34.29784776 34.9458674 35.25 39.3125 C35.42273438 40.05306641 35.59546875 40.79363281 35.7734375 41.55664062 C36.19422476 43.36836355 36.5987809 45.18384332 37 47 C38.32 47.33 39.64 47.66 41 48 C41 48.99 41 49.98 41 51 C37.37 51 33.74 51 30 51 C26.95035505 45.91725842 25.96590578 40.71690662 24.84375 34.92578125 C23.83452796 31.25311426 23.83452796 31.25311426 21 29 C18.36 28.67 15.72 28.34 13 28 C13.33 33.94 13.66 39.88 14 46 C15.65 46.66 17.3 47.32 19 48 C19 48.99 19 49.98 19 51 C12.73 51 6.46 51 0 51 C0 50.01 0 49.02 0 48 C2.475 47.505 2.475 47.505 5 47 C4.505 26.21 4.505 26.21 4 5 C2.68 4.67 1.36 4.34 0 4 C0 2.68 0 1.36 0 0 Z M13 5 C12.91348389 6.41570123 12.89295096 7.835595 12.90234375 9.25390625 C12.90556641 10.10791016 12.90878906 10.96191406 12.91210938 11.84179688 C12.92048828 12.73962891 12.92886719 13.63746094 12.9375 14.5625 C12.94201172 15.46419922 12.94652344 16.36589844 12.95117188 17.29492188 C12.96299775 19.53001314 12.9794778 21.76497437 13 24 C19.98625892 24.29862613 19.98625892 24.29862613 26 21 C28.45928744 17.31106884 28.69305579 14.28358579 28 10 C25.8755173 6.55687286 24.85147359 5.28382453 21 4 C16.68645991 3.46370408 16.68645991 3.46370408 13 5 Z " fill="#FFFFFF" transform="translate(513,705)"/>
<path d="M0 0 C6.27 0 12.54 0 19 0 C19 1.32 19 2.64 19 4 C17.68 4.33 16.36 4.66 15 5 C14.90075177 9.87461475 14.82835419 14.74863497 14.78027344 19.62402344 C14.76021991 21.28070325 14.73296971 22.93731282 14.69824219 24.59375 C14.64944488 26.98194758 14.62696936 29.36920547 14.609375 31.7578125 C14.58872986 32.49242706 14.56808472 33.22704163 14.54681396 33.98391724 C14.54458974 39.13929606 15.73516172 42.04075748 19 46 C22.21929573 47.60964787 25.51887712 47.60686242 29 47 C32.21954645 44.46546343 33.70432435 42.88702695 35 39 C35.08481773 36.41369776 35.11598229 33.85521944 35.09765625 31.26953125 C35.0962413 30.51911057 35.09482635 29.76868988 35.09336853 28.99552917 C35.0877756 26.6011454 35.07522444 24.20685547 35.0625 21.8125 C35.05748408 20.18815239 35.05292134 18.56380332 35.04882812 16.93945312 C35.03780848 12.95959931 35.02054873 8.97981556 35 5 C32.525 4.505 32.525 4.505 30 4 C30 2.68 30 1.36 30 0 C36.6 0 43.2 0 50 0 C50 1.32 50 2.64 50 4 C48.35 4.33 46.7 4.66 45 5 C44.98541748 5.99330322 44.97083496 6.98660645 44.95581055 8.01000977 C44.89751838 11.72097461 44.8202897 15.43135215 44.73754883 19.1418457 C44.70444408 20.74298519 44.67636779 22.34423732 44.65356445 23.94555664 C44.61975018 26.25715817 44.56742549 28.56774078 44.51171875 30.87890625 C44.50213387 31.9402755 44.50213387 31.9402755 44.49235535 33.02308655 C44.31557497 39.09770282 43.06445492 43.93554508 38.6875 48.3125 C31.52047387 52.81272571 24.31494378 52.77810462 16.1875 51.3125 C11.77647994 49.49619762 9.08108845 47.10111323 6.88916016 42.84106445 C5.74255491 39.17740567 5.64532658 35.65893256 5.5859375 31.85546875 C5.55688828 30.7007885 5.55688828 30.7007885 5.5272522 29.52278137 C5.46774377 27.07779829 5.42118705 24.63276738 5.375 22.1875 C5.33679369 20.52406866 5.29774043 18.86065653 5.2578125 17.19726562 C5.16206617 13.13166759 5.07792991 9.06597699 5 5 C3.35 4.67 1.7 4.34 0 4 C0 2.68 0 1.36 0 0 Z " fill="#FFFFFF" transform="translate(894,705)"/>
<path d="M0 0 C5.30551505 5.17287717 8.25751998 11.43191658 8.703125 18.79296875 C8.81138326 27.64308159 8.71368515 35.48584807 3.1875 42.8125 C-1.86173022 47.74430626 -7.32840727 49.55524027 -14.25 49.6875 C-21.0531281 49.5974586 -27.08767292 47.78716813 -32.1796875 43.04296875 C-38.42683392 35.44658656 -38.4217097 25.70788141 -37.73193359 16.34912109 C-36.91944564 9.65250986 -33.69989836 4.64694153 -28.5 0.4375 C-19.50111287 -4.92353914 -9.4071564 -4.19962339 0 0 Z M-24.5 4.4375 C-29.77422341 13.16724909 -30.10239341 24.86927356 -27.7109375 34.671875 C-26.19509811 38.58297205 -24.75298775 41.70072945 -21.5 44.4375 C-16.75307382 46.01980873 -12.38879534 46.16726184 -7.75 44.375 C-3.37097838 40.60417583 -1.34419384 36.1033394 -0.5 30.4375 C0.07416296 20.67672975 0.58876928 11.22435185 -6.0625 3.4375 C-9.58055194 0.55089328 -11.80858792 0.08512213 -16.40234375 0.16015625 C-19.90903514 0.62379701 -21.88925777 2.13033245 -24.5 4.4375 Z " fill="#FFFFFF" transform="translate(871.5,707.5625)"/>
<path d="M0 0 C4.73408166 -1.1085194 9.38337741 -1.81425169 14 0 C19.45445499 4.58862513 22.82020844 11.43382264 26.375 17.5 C27.41466093 19.18904415 28.45889281 20.87528377 29.5078125 22.55859375 C32.06936846 26.67248505 34.52625668 30.82742091 37 35 C37 25.1 37 15.2 37 5 C34.525 4.505 34.525 4.505 32 4 C32 2.68 32 1.36 32 0 C37.28 0 42.56 0 48 0 C48 1.32 48 2.64 48 4 C46.35 4.33 44.7 4.66 43 5 C42.67 20.18 42.34 35.36 42 51 C37 51 37 51 35.41166687 49.51940918 C34.96088272 48.82657837 34.51009857 48.13374756 34.0456543 47.41992188 C33.5254924 46.63911255 33.00533051 45.85830322 32.46940613 45.05383301 C31.92649429 44.20075562 31.38358246 43.34767822 30.82421875 42.46875 C30.25419632 41.60310425 29.68417389 40.7374585 29.09687805 39.84558105 C27.27725459 37.07411204 25.48232427 34.2875782 23.6875 31.5 C22.45927425 29.62005272 21.2294755 27.74113211 19.99804688 25.86328125 C16.97716444 21.25556981 13.99016685 16.62829511 11 12 C11 23.22 11 34.44 11 46 C12.98 46.66 14.96 47.32 17 48 C17 48.99 17 49.98 17 51 C11.39 51 5.78 51 0 51 C0 50.01 0 49.02 0 48 C1.65 47.34 3.3 46.68 5 46 C5 32.47 5 18.94 5 5 C3.35 4.67 1.7 4.34 0 4 C0 2.68 0 1.36 0 0 Z " fill="#FFFFFF" transform="translate(1101,705)"/>
<path d="M0 0 C6.27 0 12.54 0 19 0 C19 1.32 19 2.64 19 4 C17.35 4.66 15.7 5.32 14 6 C13.92506964 9.96516109 13.87103551 13.93004014 13.83520508 17.89575195 C13.81294542 19.89744576 13.77479854 21.89894275 13.73632812 23.90039062 C13.58341445 35.72507777 13.58341445 35.72507777 18.6875 46.0625 C22.15926622 47.46997279 25.31514921 47.68237978 29 47 C32.44269553 44.55387423 33.72901344 41.95982168 35 38 C35.16464931 35.39163626 35.23392915 32.89680502 35.1953125 30.29296875 C35.19106766 29.20487663 35.19106766 29.20487663 35.18673706 28.09480286 C35.17559799 25.79219632 35.15050566 23.48998773 35.125 21.1875 C35.11496206 19.62044835 35.10583763 18.05339057 35.09765625 16.48632812 C35.0756793 12.65740022 35.04119339 8.82876744 35 5 C32.525 4.505 32.525 4.505 30 4 C30 2.68 30 1.36 30 0 C36.6 0 43.2 0 50 0 C50 1.32 50 2.64 50 4 C48.35 4.33 46.7 4.66 45 5 C44.98541748 5.95777344 44.97083496 6.91554688 44.95581055 7.90234375 C44.89741637 11.48848011 44.82019016 15.07401526 44.73754883 18.65966797 C44.70449138 20.20546643 44.67640097 21.75138004 44.65356445 23.29736328 C44.36151714 42.54763105 44.36151714 42.54763105 38.6875 48.375 C31.95329599 52.44684428 25.14329848 53.02705492 17.49609375 51.5 C12.57780492 50.07393932 9.72654311 48.54423851 7 44 C5.82884065 40.48652195 5.79003738 37.2535214 5.71875 33.59375 C5.70034058 32.87264038 5.68193115 32.15153076 5.66296387 31.40856934 C5.58441307 28.32607613 5.51660202 25.24336722 5.44775391 22.16064453 C5.39594447 19.90907294 5.33872751 17.65768286 5.28125 15.40625 C5.26767456 14.7093103 5.25409912 14.01237061 5.2401123 13.29431152 C5.16253628 10.27445441 4.96254754 7.88764261 4 5 C1.98491642 4.26676204 1.98491642 4.26676204 0 4 C0 2.68 0 1.36 0 0 Z " fill="#FFFFFF" transform="translate(1298,705)"/>
<path d="M0 0 C6.27 0 12.54 0 19 0 C19 1.32 19 2.64 19 4 C17.68 4 16.36 4 15 4 C16.31081901 6.14687669 17.62356611 8.29253099 18.9375 10.4375 C19.49727539 11.35499023 19.49727539 11.35499023 20.06835938 12.29101562 C21.81461481 15.31027306 21.81461481 15.31027306 24 18 C26.97 13.38 29.94 8.76 33 4 C31.68 4 30.36 4 29 4 C29 2.68 29 1.36 29 0 C34.28 0 39.56 0 45 0 C45 1.32 45 2.64 45 4 C44.154375 4.144375 43.30875 4.28875 42.4375 4.4375 C35.00750878 7.81476874 31.15140972 16.26398613 27 23 C29.18409043 26.61938826 31.40125137 30.21736514 33.625 33.8125 C34.24246094 34.83666016 34.85992187 35.86082031 35.49609375 36.91601562 C39.86261979 44.12061949 39.86261979 44.12061949 47 48 C47 48.99 47 49.98 47 51 C40.07 51 33.14 51 26 51 C26 50.01 26 49.02 26 48 C27.65 48 29.3 48 31 48 C27.69612816 41.05111793 27.69612816 41.05111793 23.6875 34.5 C22 32 22 32 22 30 C21.34 30 20.68 30 20 30 C19.73445313 30.69480469 19.46890625 31.38960937 19.1953125 32.10546875 C17.89396924 35.25676076 16.41296617 38.27000171 14.875 41.3125 C14.06675781 42.91544922 14.06675781 42.91544922 13.2421875 44.55078125 C12.62730469 45.76314453 12.62730469 45.76314453 12 47 C13.65 47.33 15.3 47.66 17 48 C17 48.99 17 49.98 17 51 C11.06 51 5.12 51 -1 51 C-1 50.01 -1 49.02 -1 48 C-0.09507812 47.61457031 0.80984375 47.22914063 1.7421875 46.83203125 C5.32586404 44.81675032 6.8243758 43.05460789 9.125 39.6875 C9.79660156 38.7078125 10.46820313 37.728125 11.16015625 36.71875 C11.76730469 35.8215625 12.37445313 34.924375 13 34 C13.70962891 33.08734375 13.70962891 33.08734375 14.43359375 32.15625 C16.27456145 29.76108095 17.01777466 28.4022997 16.8828125 25.34765625 C15.72649944 20.96287621 13.70836307 17.56939046 11.3125 13.75 C10.89033203 13.03070312 10.46816406 12.31140625 10.03320312 11.5703125 C7.79940578 7.97197832 6.63426897 6.28255827 2.66796875 4.515625 C1.34732422 4.26039063 1.34732422 4.26039063 0 4 C0 2.68 0 1.36 0 0 Z " fill="#FFFFFF" transform="translate(349,705)"/>
<path d="M0 0 C11.88 0 23.76 0 36 0 C36 4.29 36 8.58 36 13 C35.01 13 34.02 13 33 13 C32.566875 11.865625 32.13375 10.73125 31.6875 9.5625 C31.130625 8.386875 30.57375 7.21125 30 6 C26.68455701 4.89485234 23.79589889 4.67892369 20.3125 4.4375 C18.229375 4.293125 16.14625 4.14875 14 4 C14 10.27 14 16.54 14 23 C20.91295034 22.72728459 20.91295034 22.72728459 27 20 C27.72382467 17.94074861 27.72382467 17.94074861 28 16 C28.99 16 29.98 16 31 16 C31 21.61 31 27.22 31 33 C30.01 33 29.02 33 28 33 C27.79632812 32.20207031 27.59265625 31.40414062 27.3828125 30.58203125 C26.2302512 27.71612757 26.2302512 27.71612757 23.1796875 27.07421875 C22.08914063 26.94660156 20.99859375 26.81898438 19.875 26.6875 C16.966875 26.3471875 16.966875 26.3471875 14 26 C14 32.6 14 39.2 14 46 C16.3925 46.061875 18.785 46.12375 21.25 46.1875 C21.99668945 46.21481201 22.74337891 46.24212402 23.51269531 46.27026367 C26.57731098 46.30859197 28.69747994 46.16501094 31.40625 44.6875 C33.58189988 42.38387072 34.19349834 40.02438123 35 37 C35.99 37 36.98 37 38 37 C38 41.62 38 46.24 38 51 C25.46 51 12.92 51 0 51 C0 50.01 0 49.02 0 48 C1.65 47.34 3.3 46.68 5 46 C5 32.47 5 18.94 5 5 C3.35 4.67 1.7 4.34 0 4 C0 2.68 0 1.36 0 0 Z " fill="#FFFFFF" transform="translate(701,705)"/>
<path d="M0 0 C11.88 0 23.76 0 36 0 C36 4.29 36 8.58 36 13 C35.01 13 34.02 13 33 13 C32.54625 11.865625 32.0925 10.73125 31.625 9.5625 C30.42904194 5.95278308 30.42904194 5.95278308 28 5 C23.34005103 4.54741503 18.67317512 4.29738387 14 4 C14 10.27 14 16.54 14 23 C20.91295034 22.72728459 20.91295034 22.72728459 27 20 C27.72382467 17.94074861 27.72382467 17.94074861 28 16 C28.99 16 29.98 16 31 16 C31 21.61 31 27.22 31 33 C30.01 33 29.02 33 28 33 C27.79632813 32.20207031 27.59265625 31.40414062 27.3828125 30.58203125 C26.2302512 27.71612757 26.2302512 27.71612757 23.1796875 27.07421875 C22.08914063 26.94660156 20.99859375 26.81898438 19.875 26.6875 C18.77929688 26.54699219 17.68359375 26.40648437 16.5546875 26.26171875 C15.71164062 26.17535156 14.86859375 26.08898437 14 26 C14.13822199 29.14621682 14.28685084 32.29185566 14.4375 35.4375 C14.47681641 36.33533203 14.51613281 37.23316406 14.55664062 38.15820312 C14.61948242 39.43920898 14.61948242 39.43920898 14.68359375 40.74609375 C14.73858032 41.93223267 14.73858032 41.93223267 14.79467773 43.14233398 C14.80563257 45.01401441 14.80563257 45.01401441 16 46 C18.10221693 46.09968672 20.20792604 46.12968203 22.3125 46.125 C23.46363281 46.12757813 24.61476563 46.13015625 25.80078125 46.1328125 C28.41251737 46.02438878 30.52307984 45.77059738 33 45 C33.66 42.69 34.32 40.38 35 38 C36.98 37.505 36.98 37.505 39 37 C38.67 41.62 38.34 46.24 38 51 C25.46 51 12.92 51 0 51 C0 50.01 0 49.02 0 48 C1.65 47.34 3.3 46.68 5 46 C5 32.47 5 18.94 5 5 C3.35 4.67 1.7 4.34 0 4 C0 2.68 0 1.36 0 0 Z " fill="#FFFFFF" transform="translate(459,705)"/>
<path d="M0 0 C11.88 0 23.76 0 36 0 C36 4.29 36 8.58 36 13 C35.01 13 34.02 13 33 13 C32.54625 11.865625 32.0925 10.73125 31.625 9.5625 C30.42904194 5.95278308 30.42904194 5.95278308 28 5 C23.34005103 4.54741503 18.67317512 4.29738387 14 4 C14 10.27 14 16.54 14 23 C20.91295034 22.72728459 20.91295034 22.72728459 27 20 C28.19232613 17.94996045 28.19232613 17.94996045 29 16 C29.66 16 30.32 16 31 16 C31 21.61 31 27.22 31 33 C29.515 32.505 29.515 32.505 28 32 C27.73445313 31.34515625 27.46890625 30.6903125 27.1953125 30.015625 C26.12486072 27.68866175 26.12486072 27.68866175 23.1796875 27.171875 C22.08914063 27.03265625 20.99859375 26.8934375 19.875 26.75 C18.77929688 26.60046875 17.68359375 26.4509375 16.5546875 26.296875 C15.71164062 26.19890625 14.86859375 26.1009375 14 26 C14.13822199 29.14621682 14.28685084 32.29185566 14.4375 35.4375 C14.47681641 36.33533203 14.51613281 37.23316406 14.55664062 38.15820312 C14.61948242 39.43920898 14.61948242 39.43920898 14.68359375 40.74609375 C14.73858032 41.93223267 14.73858032 41.93223267 14.79467773 43.14233398 C14.80563257 45.01401441 14.80563257 45.01401441 16 46 C18.26617608 46.17883149 20.53971385 46.26802736 22.8125 46.3125 C24.67841797 46.36857422 24.67841797 46.36857422 26.58203125 46.42578125 C30.04433667 46.2909233 30.04433667 46.2909233 32.37109375 44.15234375 C34.11054337 41.8539343 35.09112753 39.72661742 36 37 C36.99 37 37.98 37 39 37 C38.67 41.62 38.34 46.24 38 51 C25.46 51 12.92 51 0 51 C0 50.01 0 49.02 0 48 C2.97 47.505 2.97 47.505 6 47 C5.505 26.21 5.505 26.21 5 5 C3.35 4.67 1.7 4.34 0 4 C0 2.68 0 1.36 0 0 Z " fill="#FFFFFF" transform="translate(297,705)"/>
<path d="M0 0 C3.64567713 -0.08816905 7.29107474 -0.14077948 10.9375 -0.1875 C12.46987305 -0.22520508 12.46987305 -0.22520508 14.03320312 -0.26367188 C21.89885364 -0.3390615 28.42678486 0.54341459 35 5.0625 C37.85318088 9.25310941 38.26636452 12.98607963 38 18 C37.16712312 21.85753502 35.51864978 24.46694328 32.75 27.3125 C26.63769828 31.0632306 20.95301628 31.21393896 14 31 C14.33 35.95 14.66 40.9 15 46 C16.65 46.66 18.3 47.32 20 48 C20 48.99 20 49.98 20 51 C13.4 51 6.8 51 0 51 C0 50.01 0 49.02 0 48 C1.65 47.34 3.3 46.68 5 46 C5 32.47 5 18.94 5 5 C3.35 4.67 1.7 4.34 0 4 C0 2.68 0 1.36 0 0 Z M14 5 C13.91299658 6.63472882 13.89298937 8.27314055 13.90234375 9.91015625 C13.90556641 10.89951172 13.90878906 11.88886719 13.91210938 12.90820312 C13.92048828 13.94912109 13.92886719 14.99003906 13.9375 16.0625 C13.94201172 17.10728516 13.94652344 18.15207031 13.95117188 19.22851562 C13.96300087 21.8190666 13.97948311 24.40950559 14 27 C15.26070313 27.02578125 16.52140625 27.0515625 17.8203125 27.078125 C18.52945801 27.09262695 19.23860352 27.10712891 19.96923828 27.12207031 C22.97828243 26.94119485 24.7003669 25.89381549 27 24 C29.5666288 19.77631962 29.55894189 15.81549936 29 11 C27.7530291 8.06961838 26.77654345 6.58240759 24.25 4.6875 C21.29720846 3.78525814 16.38373176 2.61626824 14 5 Z " fill="#FFFFFF" transform="translate(407,705)"/>
<path d="M0 0 C0.68835937 0.05220703 1.37671875 0.10441406 2.0859375 0.15820312 C3.76612758 0.28655098 5.44564749 0.42362225 7.125 0.5625 C7.125 5.1825 7.125 9.8025 7.125 14.5625 C6.135 14.5625 5.145 14.5625 4.125 14.5625 C3.7125 13.469375 3.3 12.37625 2.875 11.25 C1.47971462 8.04408846 0.37464035 6.14089674 -2.875 4.5625 C-6.15467299 4.15254088 -8.20306078 4.27957822 -11.25 5.5625 C-13.32401184 8.11512996 -13.68687356 10.30933875 -13.5078125 13.57421875 C-12.45947952 16.86805509 -10.2463806 17.85228387 -7.30078125 19.421875 C-5.63291583 20.2061209 -3.96355719 20.9871965 -2.29296875 21.765625 C3.20567404 24.37067915 6.87368164 26.31843813 10.125 31.5625 C11.5454406 36.77078221 11.28489104 40.6127497 9.125 45.5625 C5.29039985 49.84992982 1.82308093 52.33008826 -3.98828125 52.6953125 C-8.7149947 52.67852133 -13.19402573 52.29677047 -17.875 51.5625 C-19.195 51.5625 -20.515 51.5625 -21.875 51.5625 C-22.205 46.2825 -22.535 41.0025 -22.875 35.5625 C-21.885 35.5625 -20.895 35.5625 -19.875 35.5625 C-19.64425781 36.09359375 -19.41351562 36.6246875 -19.17578125 37.171875 C-17.09552121 41.67773469 -15.38272833 45.10373909 -10.875 47.5625 C-7.90509627 48.13158335 -5.98072643 47.95687796 -2.875 47.5625 C-0.09374768 45.63701763 0.85677839 44.25987619 2.0625 41.125 C2.14775217 37.62966123 1.24033342 36.34782946 -0.875 33.5625 C-3.3131519 32.11829853 -5.63814091 30.88491222 -8.1875 29.6875 C-19.59428705 23.90588462 -19.59428705 23.90588462 -21.875 18.5625 C-22.71255057 13.88984944 -22.46715661 10.02730845 -20.6875 5.625 C-15.02616339 -0.81721062 -8.02420306 -0.67645898 0 0 Z " fill="#FFFFFF" transform="translate(1384.875,704.4375)"/>
<path d="M0 0 C0.68835938 0.05220703 1.37671875 0.10441406 2.0859375 0.15820312 C3.76612758 0.28655098 5.44564749 0.42362225 7.125 0.5625 C7.125 5.1825 7.125 9.8025 7.125 14.5625 C6.135 14.5625 5.145 14.5625 4.125 14.5625 C3.7125 13.469375 3.3 12.37625 2.875 11.25 C1.47971462 8.04408846 0.37464035 6.14089674 -2.875 4.5625 C-6.15467299 4.15254088 -8.20306078 4.27957822 -11.25 5.5625 C-13.32401184 8.11512996 -13.68687356 10.30933875 -13.5078125 13.57421875 C-12.45947952 16.86805509 -10.2463806 17.85228387 -7.30078125 19.421875 C-5.63291583 20.2061209 -3.96355719 20.9871965 -2.29296875 21.765625 C7.24637015 26.28501195 7.24637015 26.28501195 10.125 31.5625 C11.01486747 36.51540575 11.29896168 41.24262351 8.98046875 45.82421875 C5.94685789 49.64224614 3.00049197 51.70211906 -1.875 52.5625 C-7.63869848 52.94889319 -13.17060221 52.34931349 -18.875 51.5625 C-19.865 51.5625 -20.855 51.5625 -21.875 51.5625 C-22.205 46.2825 -22.535 41.0025 -22.875 35.5625 C-21.885 35.5625 -20.895 35.5625 -19.875 35.5625 C-19.64425781 36.09359375 -19.41351562 36.6246875 -19.17578125 37.171875 C-17.09552121 41.67773469 -15.38272833 45.10373909 -10.875 47.5625 C-7.90509627 48.13158335 -5.98072643 47.95687796 -2.875 47.5625 C-0.09374768 45.63701763 0.85677839 44.25987619 2.0625 41.125 C2.14775217 37.62966123 1.24033342 36.34782946 -0.875 33.5625 C-3.3131519 32.11829853 -5.63814091 30.88491222 -8.1875 29.6875 C-19.59428705 23.90588462 -19.59428705 23.90588462 -21.875 18.5625 C-22.71255057 13.88984944 -22.46715661 10.02730845 -20.6875 5.625 C-15.02616339 -0.81721062 -8.02420306 -0.67645898 0 0 Z " fill="#FFFFFF" transform="translate(674.875,704.4375)"/>
<path d="M0 0 C1.2065625 0.0309375 1.2065625 0.0309375 2.4375 0.0625 C3.40196643 2.47685967 4.35982729 4.89347638 5.3125 7.3125 C5.61841064 8.08722656 5.92432129 8.86195313 6.23950195 9.66015625 C8.27203104 14.87592933 10.17186126 20.12730828 11.98828125 25.421875 C12.42910252 26.69632252 12.87002066 27.97073653 13.31103516 29.24511719 C14.18487386 31.77230164 15.03869832 34.30375538 15.88427734 36.84082031 C16.28727051 38.00709961 16.69026367 39.17337891 17.10546875 40.375 C17.45891357 41.42300781 17.8123584 42.47101562 18.17651367 43.55078125 C19.59007944 46.36641816 20.51103105 47.04526787 23.4375 48.0625 C23.4375 49.0525 23.4375 50.0425 23.4375 51.0625 C17.4975 51.0625 11.5575 51.0625 5.4375 51.0625 C5.4375 50.0725 5.4375 49.0825 5.4375 48.0625 C7.4175 47.5675 7.4175 47.5675 9.4375 47.0625 C8.80593005 42.00994036 7.30290627 37.76656799 5.4375 33.0625 C0.1575 32.7325 -5.1225 32.4025 -10.5625 32.0625 C-10.85125 33.403125 -11.14 34.74375 -11.4375 36.125 C-12.33088981 40.15801685 -13.38347941 44.10435945 -14.5625 48.0625 C-13.2425 48.0625 -11.9225 48.0625 -10.5625 48.0625 C-10.5625 49.0525 -10.5625 50.0425 -10.5625 51.0625 C-15.1825 51.0625 -19.8025 51.0625 -24.5625 51.0625 C-24.5625 50.0725 -24.5625 49.0825 -24.5625 48.0625 C-23.94012451 47.80863525 -23.31774902 47.55477051 -22.67651367 47.29321289 C-20.19173975 45.84665494 -19.75388203 45.01280228 -18.73828125 42.37109375 C-18.43607666 41.6025708 -18.13387207 40.83404785 -17.82250977 40.04223633 C-17.50983154 39.20329834 -17.19715332 38.36436035 -16.875 37.5 C-16.53976318 36.63334717 -16.20452637 35.76669434 -15.85913086 34.8737793 C-12.57845827 26.31206078 -9.4932624 17.67375538 -6.44458008 9.02709961 C-5.90160278 7.49194702 -5.90160278 7.49194702 -5.34765625 5.92578125 C-5.02676025 5.01094971 -4.70586426 4.09611816 -4.37524414 3.15356445 C-3.17967591 0.07755307 -3.17967591 0.07755307 0 0 Z M-2.5625 11.0625 C-3.56649524 13.68603518 -4.56584445 16.31117795 -5.5625 18.9375 C-5.84867188 19.68386719 -6.13484375 20.43023438 -6.4296875 21.19921875 C-7.99586648 25.02235011 -7.99586648 25.02235011 -8.5625 29.0625 C-4.2725 29.0625 0.0175 29.0625 4.4375 29.0625 C2.6552429 22.95190424 0.74428315 16.9942281 -1.5625 11.0625 C-1.8925 11.0625 -2.2225 11.0625 -2.5625 11.0625 Z " fill="#FFFFFF" transform="translate(1065.5625,704.9375)"/>
<path d="M0 0 C6.27 0 12.54 0 19 0 C19 1.32 19 2.64 19 4 C17.68 4.33 16.36 4.66 15 5 C18.3 11.27 21.6 17.54 25 24 C27.97 17.4 30.94 10.8 34 4 C32.68 4 31.36 4 30 4 C30 2.68 30 1.36 30 0 C34.95 0 39.9 0 45 0 C45 1.32 45 2.64 45 4 C44.28199219 4.13664063 43.56398438 4.27328125 42.82421875 4.4140625 C38.40272793 6.8969467 36.98853637 10.92416616 34.8125 15.375 C34.37486328 16.23867188 33.93722656 17.10234375 33.48632812 17.9921875 C32.30929356 20.32109863 31.15174667 22.6585109 30 25 C29.6285083 25.66757324 29.2570166 26.33514648 28.87426758 27.02294922 C27.89974303 29.22671906 27.76836662 30.71219689 27.8046875 33.109375 C27.81113281 33.86347656 27.81757812 34.61757813 27.82421875 35.39453125 C27.84935547 36.56048828 27.84935547 36.56048828 27.875 37.75 C27.88402344 38.54277344 27.89304687 39.33554687 27.90234375 40.15234375 C27.92582988 42.10169281 27.96169863 44.05088575 28 46 C29.98 46.66 31.96 47.32 34 48 C34 48.99 34 49.98 34 51 C26.74 51 19.48 51 12 51 C12 50.01 12 49.02 12 48 C13.98 47.34 15.96 46.68 18 46 C19.99032462 34.58540325 17.09558206 26.70089298 11.8125 16.5625 C11.23540283 15.44238525 10.65830566 14.32227051 10.0637207 13.16821289 C7.3599103 7.37015804 7.3599103 7.37015804 2.29174805 4.18725586 C1.15733276 4.09456421 1.15733276 4.09456421 0 4 C0 2.68 0 1.36 0 0 Z " fill="#FFFFFF" transform="translate(779,705)"/>
<path d="M0 0 C4.40829448 0.70887147 6.94500897 1.09187276 11.3125 0 C11.3125 4.95 11.3125 9.9 11.3125 15 C10.3225 15 9.3325 15 8.3125 15 C8.09335938 14.45730469 7.87421875 13.91460938 7.6484375 13.35546875 C5.99822783 9.63243475 4.87788221 7.40204957 1.5 5 C-3.40985163 3.45965439 -7.00993134 3.40791694 -11.875 5.125 C-16.57947153 8.26131436 -18.60012651 11.98835677 -19.9375 17.375 C-21.63701593 26.54626165 -20.89976378 35.02617222 -15.75 43 C-12.52746279 46.12488457 -9.79679117 47.28889847 -5.3125 47.3125 C-1.09123574 47.19447123 1.80544097 46.50504217 5.3125 44 C7.21456849 40.94960779 7.21456849 40.94960779 8.3125 38 C9.6325 38.33 10.9525 38.66 12.3125 39 C9.97419238 44.66695728 7.95407601 48.06167916 2.3125 51 C-4.46211821 53.08127446 -11.98626511 52.67004956 -18.58203125 50.16015625 C-24.23155318 47.04715437 -27.58630008 42.14627652 -29.625 36.125 C-31.73617046 27.54918957 -31.43450779 19.08773161 -27.6875 11 C-23.50453477 4.77836737 -18.97393028 0.8405789 -11.48046875 -0.62890625 C-7.41215439 -1.02693907 -4.02798997 -0.65164651 0 0 Z " fill="#FFFFFF" transform="translate(1016.6875,705)"/>
<path d="M0 0 C13.53 0 27.06 0 41 0 C41 4.62 41 9.24 41 14 C40.01 14 39.02 14 38 14 C37.80664062 13.43410156 37.61328125 12.86820313 37.4140625 12.28515625 C37.02347656 11.18494141 37.02347656 11.18494141 36.625 10.0625 C36.36976562 9.33160156 36.11453125 8.60070312 35.8515625 7.84765625 C35.14728587 5.81317884 35.14728587 5.81317884 33 5 C30.03 4.67 27.06 4.34 24 4 C24.33 17.86 24.66 31.72 25 46 C26.98 46.66 28.96 47.32 31 48 C31 48.99 31 49.98 31 51 C23.74 51 16.48 51 9 51 C9 50.01 9 49.02 9 48 C12.465 47.505 12.465 47.505 16 47 C16 32.81 16 18.62 16 4 C12.7 4.66 9.4 5.32 6 6 C3.74213143 9.9592145 3.74213143 9.9592145 3 14 C2.01 14 1.02 14 0 14 C0 9.38 0 4.76 0 0 Z " fill="#FFFFFF" transform="translate(1409,705)"/>
<path d="M0 0 C13.53 0 27.06 0 41 0 C41 4.62 41 9.24 41 14 C40.01 14 39.02 14 38 14 C37.80664062 13.43410156 37.61328125 12.86820313 37.4140625 12.28515625 C37.02347656 11.18494141 37.02347656 11.18494141 36.625 10.0625 C36.36976563 9.33160156 36.11453125 8.60070312 35.8515625 7.84765625 C35.14728587 5.81317884 35.14728587 5.81317884 33 5 C30.03 4.67 27.06 4.34 24 4 C24.33 17.86 24.66 31.72 25 46 C26.98 46.66 28.96 47.32 31 48 C31 48.99 31 49.98 31 51 C23.74 51 16.48 51 9 51 C9 50.01 9 49.02 9 48 C12.465 47.505 12.465 47.505 16 47 C16 32.81 16 18.62 16 4 C12.7 4.66 9.4 5.32 6 6 C4.0549 8.91765 3.54723683 10.62537285 3 14 C2.01 14 1.02 14 0 14 C0 9.38 0 4.76 0 0 Z " fill="#FFFFFF" transform="translate(563,705)"/>
<path d="M0 0 C13.53 0 27.06 0 41 0 C41 4.62 41 9.24 41 14 C40.01 14 39.02 14 38 14 C37.80664062 13.43410156 37.61328125 12.86820313 37.4140625 12.28515625 C37.02347656 11.18494141 37.02347656 11.18494141 36.625 10.0625 C36.36976562 9.33160156 36.11453125 8.60070312 35.8515625 7.84765625 C35.14728587 5.81317884 35.14728587 5.81317884 33 5 C30.03 4.67 27.06 4.34 24 4 C24.33 18.19 24.66 32.38 25 47 C28.465 47.495 28.465 47.495 32 48 C32 48.99 32 49.98 32 51 C24.41 51 16.82 51 9 51 C9 50.01 9 49.02 9 48 C12.465 47.505 12.465 47.505 16 47 C16.33 32.81 16.66 18.62 17 4 C8.65850618 4.22919044 8.65850618 4.22919044 5 7 C3.7811879 10.55672179 3.7811879 10.55672179 3 14 C2.01 14 1.02 14 0 14 C0 9.38 0 4.76 0 0 Z " fill="#FFFFFF" transform="translate(1189,705)"/>
<path d="M0 0 C6.6 0 13.2 0 20 0 C20 1.32 20 2.64 20 4 C18.35 4.33 16.7 4.66 15 5 C15 18.53 15 32.06 15 46 C16.65 46.66 18.3 47.32 20 48 C20 48.99 20 49.98 20 51 C13.4 51 6.8 51 0 51 C0 50.01 0 49.02 0 48 C1.65 47.34 3.3 46.68 5 46 C5 32.47 5 18.94 5 5 C3.35 4.67 1.7 4.34 0 4 C0 2.68 0 1.36 0 0 Z " fill="#FFFFFF" transform="translate(617,705)"/>
</svg>
